<?xml version="1.0" encoding="UTF-8"?>
<svg width="95px" height="77px" viewBox="0 0 95 77" version="1.1" xmlns="http://www.w3.org/2000/svg" xmlns:xlink="http://www.w3.org/1999/xlink">
    <!-- Generator: Sketch 46.2 (44496) - http://www.bohemiancoding.com/sketch -->
    <title>return-arrow</title>
    <desc>Created with Sketch.</desc>
    <defs></defs>
    <g id="Page-1" stroke="none" stroke-width="1" fill="none" fill-rule="evenodd">
        <g id="TEST-TEST-3" transform="translate(-18.000000, -224.000000)" fill-rule="nonzero" fill="#FFFFFF">
            <g id="return-arrow" transform="translate(65.500000, 262.500000) scale(1, -1) translate(-65.500000, -262.500000) translate(18.000000, 224.000000)">
                <path d="M63.2300577,13.3117921 L21.2094028,13.3117921 L24.6786609,9.842534 C26.8417555,7.67943939 26.8417555,4.17437635 24.6786609,2.00841735 C22.5155663,-0.154677257 19.0105033,-0.154677257 16.8445443,2.00841735 L3.92135491,14.9316067 C3.91896792,14.9339937 3.91610352,14.9339937 3.91610352,14.9339937 L0,18.8529616 L3.91562613,22.7662008 C3.91562613,22.7662008 3.91801312,22.7685878 3.92087751,22.7738391 L17.7659242,36.6164989 C18.848665,37.6992397 20.2665399,38.2391779 21.6815504,38.2391779 C23.1018122,38.2391779 24.5168227,37.6992397 25.6000409,36.6164989 C27.7631355,34.4534043 27.7631355,30.9483412 25.6000409,28.7823822 L21.2094028,24.3917442 L63.2300577,24.3917442 C74.4293595,24.3917442 83.5405183,33.5057674 83.5405183,44.7022048 C83.5405183,55.8986422 74.4264951,65.0126654 63.2300577,65.0126654 L7.83936803,65.0126654 C4.77780862,65.0126654 2.29819851,67.4922755 2.29819851,70.5514479 C2.29819851,73.6101429 4.77780862,76.0902304 7.83936803,76.0902304 L63.2300577,76.0902304 C80.5391112,76.0902304 94.617606,62.0088712 94.617606,44.7026822 C94.617606,27.3964931 80.5386338,13.3117921 63.2300577,13.3117921 Z" id="Shape"></path>
            </g>
        </g>
    </g>
</svg>