<svg xmlns="http://www.w3.org/2000/svg" xmlns:xlink="http://www.w3.org/1999/xlink" width="28" height="25" viewBox="0 0 28 25"><defs><path id="a" d="M138.49 84.93a4.93 4.93 0 0 1-4.77 5.63h-12.96v-4.55L114 91.75l6.76 5.73v-4.25h12.96c4.05 0 7.35-3.46 7.35-7.71 0-.86-.14-1.7-.41-2.52l-2.17 1.93z"/><path id="b" d="M116.58 86.55a4.93 4.93 0 0 1 4.76-5.63h12.97v4.55l6.76-5.73-6.76-5.74v4.25h-12.97c-4.05 0-7.34 3.46-7.34 7.71 0 .86.14 1.7.41 2.52l2.17-1.93z"/></defs><g transform="translate(-114 -73)"><use fill="#fff" xlink:href="#a"/></g><g transform="translate(-114 -73)"><use fill="#fff" xlink:href="#b"/></g></svg>