<svg xmlns="http://www.w3.org/2000/svg" xmlns:xlink="http://www.w3.org/1999/xlink" width="22" height="22" viewBox="0 0 22 22"><defs><path id="a" d="M275.84 517.4l-2.67 2.66a.68.68 0 0 1-.97 0 .68.68 0 0 1 0-.97l3.89-3.89c.27-.27.7-.27.97 0l3.89 3.89c.27.27.27.7 0 .97a.68.68 0 0 1-.97 0l-2.76-2.76v15.29a.7.7 0 0 1-1.38 0V517.4z"/><path id="b" d="M286.63 536.06l.68-.68H266.69l.69.68v-12.37a.7.7 0 0 0-1.38 0v12.37c0 .38.31.69.69.69H287.31a.7.7 0 0 0 .69-.69v-12.37a.7.7 0 0 0-.69-.69.68.68 0 0 0-.68.69v12.37z"/></defs><g transform="translate(-266 -515)"><use fill="#fff" xlink:href="#a"/></g><g transform="translate(-266 -515)"><use fill="#fff" xlink:href="#b"/></g></svg>