<?xml version="1.0" encoding="utf-8"?>
<!-- Generator: Adobe Illustrator 16.0.0, SVG Export Plug-In . SVG Version: 6.00 Build 0)  -->
<!DOCTYPE svg PUBLIC "-//W3C//DTD SVG 1.1//EN" "http://www.w3.org/Graphics/SVG/1.1/DTD/svg11.dtd">
<svg version="1.1" id="Layer_1" xmlns="http://www.w3.org/2000/svg" xmlns:xlink="http://www.w3.org/1999/xlink" x="0px" y="0px"
	 width="60px" height="60px" viewBox="0 0 60 60" enable-background="new 0 0 60 60" xml:space="preserve">
<g>
	<g>
		<path fill="#F58A4C" d="M15.247,19.154h10.192v7.375H15.247c-2.04,0-3.693-1.653-3.693-3.693v0.005
			C11.554,20.802,13.208,19.154,15.247,19.154z"/>
		<path fill="#F58A4C" d="M43.08,19.154H32.814v7.375H43.08c2.04,0,3.693-1.653,3.693-3.693v0.005
			C46.773,20.802,45.12,19.154,43.08,19.154z"/>
	</g>
	<path fill="#C2D2E8" d="M47.564,57.092V60H10.689v-2.908c0-5.293,2.92-9.91,7.217-12.344c0.86-0.49,1.785-0.855,2.747-1.156
		c1.341-0.42,2.774-0.611,4.255-0.611h8.51c1.48,0,2.904,0.191,4.246,0.611c0.962,0.301,1.859,0.684,2.719,1.174
		C44.682,47.199,47.564,51.799,47.564,57.092z"/>
	<path fill="#FFFAF1" d="M40.402,44.748c-0.758,5.525-5.51,9.791-11.239,9.791c-5.729,0-10.481-4.266-11.238-9.791
		c0.86-0.49,1.776-0.855,2.737-1.156c1.342-0.42,2.766-0.611,4.246-0.611h8.51c1.48,0,2.904,0.191,4.246,0.611
		C38.627,43.893,39.543,44.258,40.402,44.748z"/>
	<path fill="#FFA870" d="M37.665,43.592c-0.19,4.525-3.933,8.129-8.501,8.129c-4.569,0-8.311-3.596-8.501-8.119
		c1.342-0.42,2.766-0.621,4.246-0.621h8.51C34.898,42.98,36.323,43.172,37.665,43.592z"/>
	<path fill="#F58A4C" d="M29.181,48.867h-0.108c-3.104,0-5.619-2.516-5.619-5.619v-5.656H34.8v5.656
		C34.8,46.352,32.284,48.867,29.181,48.867z"/>
	<path fill="#FFA870" d="M29.28,40.826h-0.279c-7.763,0-14.057-6.293-14.057-14.057V12.346h28.367v14.451
		C43.311,34.545,37.027,40.826,29.28,40.826z"/>
	<path fill="#A12D37" d="M37.637,26.529c0,1.001-0.164,1.958-0.472,2.837c-0.711,2.067-2.187,3.741-4.081,4.716
		c-1.184,0.615-2.529,0.957-3.957,0.957c-1.449,0-2.817-0.352-4.014-0.984c-1.87-0.981-3.322-2.641-4.025-4.688
		c-0.307-0.879-0.471-1.835-0.471-2.837H37.637z"/>
	<path fill="#FFFFFF" d="M37.637,26.529c0,1.001-0.164,1.958-0.472,2.837H21.088c-0.307-0.879-0.471-1.835-0.471-2.837H37.637z"/>
	<path fill="#C93945" d="M33.084,34.082c-1.184,0.615-2.529,0.957-3.957,0.957c-1.449,0-2.817-0.352-4.014-0.984
		c0.618-1.594,2.167-2.721,3.979-2.721C30.914,31.334,32.471,32.475,33.084,34.082z"/>
	<path fill="#F57355" d="M31.964,24.26H26.29v-2.791c0-1.546,1.254-2.8,2.8-2.8h0.063c1.552,0,2.81,1.258,2.81,2.81L31.964,24.26
		L31.964,24.26z"/>
	<circle fill="#7A2F45" cx="21.894" cy="20.799" r="1.702"/>
	<circle fill="#7A2F45" cx="36.359" cy="20.799" r="1.702"/>
	<path fill="#FFC03B" d="M43.348,6.673h5.672c0,3.121-2.539,5.673-5.672,5.673H14.981l0,0C14.981,6.08,20.061,1,26.327,1H49.02
		C49.02,4.12,46.48,6.673,43.348,6.673z"/>
</g>
</svg>
