<?xml version="1.0" encoding="utf-8"?>
<!-- Generator: Adobe Illustrator 16.0.0, SVG Export Plug-In . SVG Version: 6.00 Build 0)  -->
<!DOCTYPE svg PUBLIC "-//W3C//DTD SVG 1.1//EN" "http://www.w3.org/Graphics/SVG/1.1/DTD/svg11.dtd">
<svg version="1.1" id="Layer_1" xmlns="http://www.w3.org/2000/svg" xmlns:xlink="http://www.w3.org/1999/xlink" x="0px" y="0px"
	 width="60px" height="60px" viewBox="0 0 60 60" enable-background="new 0 0 60 60" xml:space="preserve">
<g>
	<path fill="#3D2F45" d="M49.214,21.15v8.915c0,11.613-9.45,21.062-21.062,21.062c-1.245,0-2.479-0.109-3.687-0.33h3.702v-7.568
		c0.06,0,0.122-0.002,0.185-0.002c7.226-0.109,12.964-6.146,12.964-13.372V21.15c0-3.636-1.475-6.927-3.857-9.31
		c-2.383-2.38-5.674-3.854-9.307-3.854c-2.167,0-4.21,0.524-6.013,1.451c-1.857,0.953-4.134,0.318-5.206-1.472
		c-0.379-0.634-0.561-1.329-0.561-2.014c0-1.438,0.792-2.831,2.175-3.539c2.938-1.505,6.226-2.324,9.604-2.324
		c5.621,0,10.907,2.19,14.889,6.163C47.022,10.234,49.214,15.524,49.214,21.15z"/>
	<path fill="#BF593A" d="M41.315,21.15v8.915c0,7.269-5.896,13.164-13.165,13.164c-4.399,0-8.293-2.158-10.684-5.474
		c-1.561-2.163-2.479-4.821-2.479-7.69V21.15c0-2.873,0.919-5.529,2.479-7.693c2.391-3.314,6.285-5.472,10.684-5.472
		c3.634,0,6.924,1.475,9.308,3.854C39.84,14.223,41.315,17.514,41.315,21.15z"/>
	<path fill="#3D2F45" d="M41.315,21.15v8.915c0,7.269-5.896,13.164-13.165,13.164c-4.399,0-8.293-2.158-10.684-5.474V13.458
		c2.391-3.314,6.285-5.472,10.684-5.472c3.634,0,6.924,1.475,9.308,3.854C39.84,14.223,41.315,17.514,41.315,21.15z"/>
	<path fill="#3D2F45" d="M28.15,47.177c-9.437,0-17.114-7.677-17.114-17.113v-8.914c0-9.436,7.677-17.113,17.114-17.113
		c9.436,0,17.112,7.677,17.112,17.113v8.914C45.263,39.5,37.586,47.177,28.15,47.177z"/>
	<path fill="#BF593A" d="M45.263,60.045H11.037v-0.032c0-2.339,0.508-4.557,1.421-6.551c0.651-1.422,1.506-2.728,2.528-3.883
		c2.885-3.27,7.111-5.331,11.816-5.331h2.664c4.718,0,8.954,2.069,11.849,5.347c1.017,1.152,1.868,2.453,2.517,3.867
		C44.749,55.466,45.263,57.696,45.263,60.045z"/>
	<g>
		<path fill="#96442B" d="M15.233,25.678h9.46v6.845h-9.46c-1.893,0-3.428-1.535-3.428-3.428v0.005
			C11.805,27.208,13.34,25.678,15.233,25.678z"/>
		<path fill="#96442B" d="M41.066,25.678h-9.528v6.845h9.528c1.894,0,3.429-1.535,3.429-3.428v0.005
			C44.495,27.208,42.96,25.678,41.066,25.678z"/>
	</g>
	<path fill="#96442B" d="M28.167,50.796h-0.009c-2.908,0-5.274-2.355-5.274-5.265v-5.2h10.532v5.2
		C33.416,48.44,31.074,50.796,28.167,50.796z"/>
	<path fill="#BF593A" d="M41.315,21.15v8.915c0,7.269-5.896,13.164-13.165,13.164c-4.399,0-8.293-2.158-10.684-5.474
		c-1.561-2.163-2.479-4.821-2.479-7.69V21.15c0-2.873,0.919-5.529,2.479-7.693c2.391-3.314,6.285-5.472,10.684-5.472
		c3.634,0,6.924,1.475,9.308,3.854C39.84,14.223,41.315,17.514,41.315,21.15z"/>
	<path fill="#96442B" d="M30.783,27.958h-5.266v-2.556c0-1.454,1.169-2.633,2.624-2.633h0.004c1.453,0,2.638,1.179,2.638,2.633
		V27.958z"/>
	<path fill="#A12D37" d="M34.055,31.061c0,0.695-0.113,1.358-0.327,1.968c-0.492,1.436-1.517,2.597-2.832,3.274
		c-0.819,0.427-1.756,0.662-2.745,0.662c-1.006,0-1.956-0.243-2.786-0.683c-1.297-0.68-2.305-1.832-2.793-3.254
		c-0.212-0.609-0.327-1.272-0.327-1.968H34.055z"/>
	<path fill="#FFFFFF" d="M34.055,31.061c0,0.695-0.113,1.358-0.327,1.968H22.571c-0.212-0.609-0.327-1.272-0.327-1.968H34.055z"/>
	<path fill="#C93945" d="M30.896,36.303c-0.819,0.427-1.756,0.662-2.745,0.662c-1.006,0-1.956-0.243-2.786-0.683
		c0.429-1.105,1.504-1.888,2.761-1.888C29.391,34.395,30.471,35.187,30.896,36.303z"/>
	<path fill="#A978FF" d="M24.678,23.969h-7.211c0-1.991,1.614-3.605,3.605-3.605C23.063,20.363,24.678,21.978,24.678,23.969z"/>
	<circle fill="#66273A" cx="21.072" cy="23.969" r="1.58"/>
	<path fill="#A978FF" d="M38.833,23.969h-7.212c0-1.991,1.616-3.605,3.606-3.605S38.833,21.978,38.833,23.969z"/>
	<circle fill="#66273A" cx="35.228" cy="23.969" r="1.58"/>
	<path fill="#FFC03B" d="M12.023,38.054l3.193-5.53l3.192,5.53c1.418,2.458-0.354,5.529-3.192,5.529l0,0
		C12.378,43.583,10.604,40.512,12.023,38.054z"/>
	<path fill="#FFC03B" d="M37.899,38.054l3.192-5.53l3.193,5.53c1.419,2.458-0.354,5.529-3.193,5.529l0,0
		C38.254,43.583,36.48,40.512,37.899,38.054z"/>
	<path fill="#FF4D60" d="M45.263,60.045H11.037v-0.032c0-2.339,0.508-4.557,1.421-6.551h31.373
		C44.749,55.466,45.263,57.696,45.263,60.045z"/>
</g>
</svg>
