<?xml version="1.0" encoding="utf-8"?>
<!-- Generator: Adobe Illustrator 16.0.0, SVG Export Plug-In . SVG Version: 6.00 Build 0)  -->
<!DOCTYPE svg PUBLIC "-//W3C//DTD SVG 1.1//EN" "http://www.w3.org/Graphics/SVG/1.1/DTD/svg11.dtd">
<svg version="1.1" id="Layer_1" xmlns="http://www.w3.org/2000/svg" xmlns:xlink="http://www.w3.org/1999/xlink" x="0px" y="0px"
	 width="60px" height="60px" viewBox="0 0 60 60" enable-background="new 0 0 60 60" xml:space="preserve">
<g>
	<path fill="#C75B20" d="M47.41,18.4v41.612H11.343V18.4c0-9.961,8.073-18.033,18.033-18.033c4.979,0,9.487,2.017,12.75,5.28
		C45.393,8.913,47.41,13.421,47.41,18.4z"/>
	<rect x="11.343" y="20.485" fill="#A14716" width="36.067" height="39.526"/>
	<rect x="11.343" y="19.572" fill="#C75B20" width="3.945" height="40.439"/>
	<rect x="43.465" y="19.572" fill="#C75B20" width="3.945" height="40.439"/>
	<path fill="#FFDB56" d="M47.691,60.013h-36.63v-0.034c0-4.282,1.595-8.191,4.227-11.165c3.088-3.5,7.611-5.707,12.646-5.707h2.852
		c5.05,0,9.584,2.215,12.68,5.724C46.096,51.811,47.691,55.724,47.691,60.013z"/>
	<path fill="#BABABA" d="M29.305,58.434L29.305,58.434c-3.073,0-5.565-2.491-5.565-5.565v-3.27h11.13v3.27
		C34.87,55.942,32.379,58.434,29.305,58.434z"/>
	<path fill="#FFFFFF" d="M19.722,56.063l9.625-2.792V40.23h-2.836c-3.75,0-6.79,3.039-6.79,6.788V56.063z"/>
	<path fill="#FFFFFF" d="M38.974,56.063l-9.626-2.792V40.23h2.837c3.749,0,6.789,3.039,6.789,6.788V56.063z"/>
	<path fill="#F59055" d="M29.375,50.115L29.375,50.115c-3.112,0-5.636-2.522-5.636-5.636v-5.564h11.271v5.564
		C35.011,47.593,32.488,50.115,29.375,50.115z"/>
	<path fill="#FFA870" d="M29.375,42.859L29.375,42.859c-7.78,0-14.088-6.308-14.088-14.088V16.968c0-5.152,4.177-9.33,9.33-9.33
		h9.518c5.153,0,9.329,4.177,9.329,9.33v11.804C43.464,36.552,37.156,42.859,29.375,42.859z"/>
	<circle fill="#7A2F45" cx="22.19" cy="23.08" r="1.69"/>
	<circle fill="#7A2F45" cx="36.561" cy="23.08" r="1.69"/>
	<path fill="#F57355" d="M32.193,26.517h-5.634v-2.742c0-1.553,1.257-2.811,2.81-2.811l0,0c1.56,0,2.825,1.265,2.825,2.825V26.517z"
		/>
	<path fill="#A12D37" d="M37.829,28.771c0,0.994-0.163,1.944-0.469,2.817c-0.706,2.054-2.172,3.717-4.055,4.686
		c-1.174,0.611-2.513,0.95-3.93,0.95c-1.439,0-2.798-0.351-3.987-0.979c-1.856-0.974-3.299-2.623-3.997-4.657
		c-0.305-0.873-0.469-1.823-0.469-2.817H37.829z"/>
	<path fill="#FFFFFF" d="M37.829,28.771c0,0.994-0.163,1.944-0.469,2.817H21.391c-0.305-0.873-0.469-1.823-0.469-2.817H37.829z"/>
	<path fill="#C93945" d="M33.306,36.274c-1.174,0.611-2.513,0.95-3.93,0.95c-1.439,0-2.798-0.351-3.987-0.979
		c0.615-1.582,2.153-2.701,3.954-2.701C31.15,33.545,32.698,34.678,33.306,36.274z"/>
	<path fill="#C75B20" d="M30.263,6.376h-7.371c-4.199,0-7.604,3.405-7.604,7.605v5.591h2.487c6.897,0,12.488-5.591,12.488-12.488
		V6.376z"/>
	<path fill="#C75B20" d="M28.488,6.376h7.371c4.2,0,7.604,3.405,7.604,7.605v5.591h-2.486c-6.898,0-12.489-5.591-12.489-12.488
		V6.376z"/>
	<path fill="#BABABA" d="M15.288,48.813v11.199h-4.227v-0.034C11.061,55.696,12.656,51.787,15.288,48.813z"/>
	<path fill="#BABABA" d="M47.691,60.013h-4.227V48.83C46.096,51.811,47.691,55.724,47.691,60.013z"/>
</g>
</svg>
