<?xml version="1.0" encoding="utf-8"?>
<!-- Generator: Adobe Illustrator 16.0.0, SVG Export Plug-In . SVG Version: 6.00 Build 0)  -->
<!DOCTYPE svg PUBLIC "-//W3C//DTD SVG 1.1//EN" "http://www.w3.org/Graphics/SVG/1.1/DTD/svg11.dtd">
<svg version="1.1" id="Layer_1" xmlns="http://www.w3.org/2000/svg" xmlns:xlink="http://www.w3.org/1999/xlink" x="0px" y="0px"
	 width="60px" height="60px" viewBox="0 0 60 60" enable-background="new 0 0 60 60" xml:space="preserve">
<g>
	<path fill="#3D2F45" d="M41.92,33.715H18.256c-4.066,0-7.362-3.296-7.362-7.362v-9.84h38.387v9.84
		C49.281,30.419,45.984,33.715,41.92,33.715z"/>
	<g>
		<path fill="#F58A4C" d="M16.671,21.941h9.852v7.129h-9.852c-1.972,0-3.57-1.598-3.57-3.57v0.005
			C13.102,23.534,14.7,21.941,16.671,21.941z"/>
		<path fill="#F58A4C" d="M43.576,21.941h-9.924v7.129h9.924c1.971,0,3.57-1.598,3.57-3.57v0.005
			C47.146,23.534,45.547,21.941,43.576,21.941z"/>
	</g>
	<path fill="#004EA3" d="M47.908,57.241v2.811H12.264v-2.811c0-5.116,2.824-9.58,6.978-11.932c0.831-0.475,1.725-0.826,2.654-1.116
		c0.348-0.11,0.704-0.203,1.066-0.28c0.979-0.214,2.002-0.312,3.047-0.312h8.225c1.025,0,2.021,0.097,2.982,0.302
		c0.379,0.077,0.756,0.176,1.123,0.291c0.932,0.29,1.799,0.66,2.629,1.135C45.123,47.681,47.908,52.125,47.908,57.241z"/>
	<path fill="#3BBEFF" d="M37.217,43.902c-0.051,3.889-3.223,7.033-7.112,7.033h-0.008c-3.902,0-7.08-3.14-7.134-7.022
		c0.979-0.214,2.002-0.312,3.047-0.312h8.225C35.26,43.601,36.256,43.697,37.217,43.902z"/>
	<path fill="#F58A4C" d="M30.105,49.291h-0.008c-3.029,0-5.494-2.455-5.494-5.483v-5.415h10.969v5.415
		C35.572,46.836,33.135,49.291,30.105,49.291z"/>
	<path fill="#FFA870" d="M30.105,42.89h-0.008c-7.572,0-13.719-6.137-13.719-13.708V15.36h27.419v13.821
		C43.797,36.753,37.678,42.89,30.105,42.89z"/>
	<g>
		<path fill="#A12D37" d="M36.629,29.913c0,0.77-0.127,1.504-0.363,2.18c-0.547,1.589-1.68,2.875-3.137,3.625
			c-0.908,0.474-1.943,0.735-3.042,0.735c-1.114,0-2.165-0.271-3.084-0.757c-1.437-0.754-2.553-2.03-3.094-3.604
			c-0.235-0.676-0.361-1.41-0.361-2.18H36.629z"/>
		<path fill="#FFFFFF" d="M36.629,29.913c0,0.77-0.127,1.504-0.363,2.18H23.909c-0.235-0.676-0.361-1.41-0.361-2.18H36.629z"/>
		<path fill="#C93945" d="M33.129,35.718c-0.908,0.474-1.943,0.735-3.042,0.735c-1.114,0-2.165-0.271-3.084-0.757
			c0.476-1.225,1.665-2.091,3.059-2.091C31.461,33.605,32.658,34.482,33.129,35.718z"/>
	</g>
	<path fill="#FF8366" d="M32.83,26.876h-5.484v-2.662c0-1.515,1.219-2.742,2.732-2.742h0.006c1.514,0,2.747,1.228,2.747,2.742
		V26.876z"/>
	<path fill="#7A2F45" d="M24.872,23.866h-4.786c0-1.322,1.071-2.393,2.393-2.393C23.801,21.473,24.872,22.544,24.872,23.866z"/>
	<path fill="#7A2F45" d="M35.312,23.866H40.1c0-1.322-1.072-2.393-2.395-2.393C36.385,21.473,35.312,22.544,35.312,23.866z"/>
	<polygon fill="#FFDB56" points="0.996,17.334 30.087,-0.01 59.18,17.334 	"/>
	<path fill="#3D2F45" d="M17.771,43.656l2.865-4.591v-8.089c0-1.499,1.219-2.717,2.717-2.717h5.913v1.645h-5.913
		c-0.591,0-1.072,0.481-1.072,1.072v8.561L17.771,43.656z"/>
	<path fill="#3D2F45" d="M37.895,39.537v-8.561c0-0.591-0.48-1.072-1.072-1.072H30.91v-1.645h5.912c1.498,0,2.719,1.219,2.719,2.717
		v8.089l2.865,4.591L37.895,39.537z"/>
	<rect x="29.267" y="49.717" fill="#3BBEFF" width="1.646" height="10.335"/>
	<g>
		<rect x="26.509" y="53.025" fill="#FFDB56" width="7.157" height="1.646"/>
		<rect x="26.509" y="56.316" fill="#FFDB56" width="7.157" height="1.646"/>
	</g>
	<g>
		<rect x="27.62" y="38.338" fill="#3D2F45" width="1.646" height="8.317"/>
		<rect x="30.91" y="38.338" fill="#3D2F45" width="1.646" height="8.317"/>
	</g>
</g>
</svg>
