<?xml version="1.0" encoding="utf-8"?>
<!-- Generator: Adobe Illustrator 16.0.0, SVG Export Plug-In . SVG Version: 6.00 Build 0)  -->
<!DOCTYPE svg PUBLIC "-//W3C//DTD SVG 1.1//EN" "http://www.w3.org/Graphics/SVG/1.1/DTD/svg11.dtd">
<svg version="1.1" id="Layer_1" xmlns="http://www.w3.org/2000/svg" xmlns:xlink="http://www.w3.org/1999/xlink" x="0px" y="0px"
	 width="60px" height="60px" viewBox="0 0 60 60" enable-background="new 0 0 60 60" xml:space="preserve">
<g>
	<path fill="#7B5F8C" d="M31.708,2.95h-4.159V2.17c0-1.148,0.931-2.08,2.08-2.08l0,0c1.148,0,2.079,0.931,2.079,2.08V2.95z"/>
	<path fill="#BF571F" d="M24.445,15.797v27.654c0,5.456-4.422,9.878-9.877,9.878h-4.418l0,0c2.821-2.69,4.418-6.42,4.418-10.318
		V15.797H24.445z"/>
	<path fill="#BF571F" d="M24.445,21.533v16.773c0,5.456-4.422,9.878-9.877,9.878h-4.418l0,0c2.821-2.691,4.418-6.42,4.418-10.32
		V21.533H24.445z"/>
	<path fill="#BF571F" d="M34.842,21.533v16.773c0,5.456,4.422,9.878,9.876,9.878h4.419l0,0c-2.821-2.691-4.419-6.42-4.419-10.32
		V21.533H34.842z"/>
	<path fill="#BF571F" d="M49.137,53.329h-4.419c-5.454,0-9.876-4.422-9.876-9.878V15.797h9.876v27.213
		C44.718,46.909,46.315,50.639,49.137,53.329L49.137,53.329z"/>
	<g>
		<path fill="#F58A4C" d="M16.892,26.104h9.339v6.758h-9.339c-1.869,0-3.384-1.516-3.384-3.383v0.005
			C13.508,27.615,15.023,26.104,16.892,26.104z"/>
		<path fill="#F58A4C" d="M42.396,26.104h-9.407v6.758h9.407c1.869,0,3.385-1.516,3.385-3.383v0.005
			C45.78,27.615,44.265,26.104,42.396,26.104z"/>
	</g>
	<path fill="#FFDB56" d="M46.539,60.032H12.75V60c0-3.771,1.341-7.228,3.576-9.92c0.104-0.13,0.213-0.254,0.322-0.38
		c0.065-0.072,0.13-0.145,0.198-0.219c1.016-1.107,2.188-2.068,3.488-2.843c0.115-0.067,0.229-0.135,0.346-0.2
		c0.171-0.099,0.342-0.191,0.52-0.28c0.044-0.023,0.091-0.047,0.135-0.07c0.335-0.172,0.681-0.327,1.032-0.471
		c0.855-0.354,1.744-0.636,2.667-0.831c0.172-0.039,0.346-0.074,0.52-0.104c0.895-0.16,1.82-0.245,2.76-0.245h2.63
		c0.955,0,1.89,0.087,2.797,0.253c0.175,0.027,0.349,0.065,0.52,0.104c0.921,0.193,1.81,0.478,2.662,0.83
		c0.352,0.147,0.693,0.302,1.029,0.477c0.047,0.023,0.096,0.05,0.143,0.072c0.177,0.092,0.35,0.185,0.52,0.28
		c0.115,0.066,0.227,0.131,0.339,0.201c1.302,0.772,2.479,1.736,3.495,2.849c0.065,0.07,0.131,0.141,0.192,0.213
		c0.113,0.128,0.222,0.255,0.327,0.386C45.2,52.799,46.539,56.258,46.539,60.032z"/>
	<path fill="#FFFFFF" d="M38.613,46.453c-0.17-0.096-0.343-0.188-0.52-0.28c-0.047-0.022-0.096-0.049-0.143-0.072
		c-0.127,2.72-1.564,5.103-3.691,6.524c-0.168,0.114-0.34,0.222-0.52,0.318c-1.138,0.65-2.443,1.035-3.834,1.074
		c-0.08,0.005-0.163,0.005-0.246,0.005h-0.008c-0.089,0-0.177-0.002-0.265-0.007c-1.391-0.04-2.695-0.427-3.834-1.073
		c-0.18-0.099-0.351-0.206-0.52-0.32c-2.134-1.427-3.573-3.812-3.698-6.534c-0.044,0.023-0.091,0.047-0.135,0.07
		c-0.178,0.089-0.349,0.182-0.52,0.28c-0.118,0.065-0.231,0.133-0.346,0.2c0.06,0.603,0.177,1.188,0.346,1.749
		c0.138,0.463,0.311,0.91,0.52,1.339c0.825,1.73,2.169,3.171,3.833,4.117c0.169,0.097,0.343,0.187,0.52,0.273
		c1.165,0.568,2.461,0.903,3.834,0.94c0.088,0.005,0.176,0.005,0.265,0.005h0.008c0.083,0,0.164,0,0.246-0.002
		c1.373-0.037,2.672-0.37,3.834-0.938c0.178-0.086,0.352-0.177,0.52-0.275c1.664-0.946,3.01-2.39,3.834-4.128
		c0.209-0.432,0.383-0.884,0.52-1.35c0.164-0.553,0.279-1.125,0.339-1.715C38.84,46.584,38.729,46.52,38.613,46.453z"/>
	<path fill="#F59055" d="M29.66,50.903h-0.008c-2.872,0-5.207-2.328-5.207-5.198v-5.134h10.396v5.134
		C34.842,48.575,32.531,50.903,29.66,50.903z"/>
	<path fill="#FFA870" d="M42.639,30.434c0,7.177-5.818,12.995-12.995,12.995l0,0c-7.178,0-12.996-5.817-12.996-12.995V10.94h25.991
		V30.434z"/>
	<path fill="#C2D2E8" d="M44.717,16.408v1.989h-1.51c-4.262-1.29-8.821-1.989-13.562-1.989c-4.741,0-9.3,0.699-13.563,1.989H14.57
		v-1.989c0-8.325,6.748-15.075,15.073-15.075c4.164,0,7.933,1.687,10.66,4.416C43.031,8.478,44.717,12.247,44.717,16.408z"/>
	<path fill="#F57355" d="M32.242,28.354h-5.198v-2.523c0-1.436,1.155-2.6,2.59-2.6h0.004c1.436,0,2.604,1.164,2.604,2.6V28.354z"/>
	<g>
		<g>
			<path fill="#A12D37" d="M35.473,31.419c0,0.685-0.112,1.34-0.322,1.941c-0.488,1.418-1.498,2.563-2.796,3.232
				c-0.812,0.423-1.733,0.655-2.711,0.655c-0.993,0-1.93-0.24-2.75-0.675c-1.281-0.672-2.275-1.809-2.758-3.213
				c-0.209-0.602-0.322-1.257-0.322-1.941H35.473z"/>
			<path fill="#FFFFFF" d="M35.473,31.419c0,0.685-0.112,1.34-0.322,1.941H24.136c-0.209-0.602-0.322-1.257-0.322-1.941H35.473z"/>
		</g>
		<path fill="#C93945" d="M32.354,36.593c-0.812,0.423-1.733,0.655-2.711,0.655c-0.993,0-1.93-0.24-2.75-0.675
			c0.424-1.092,1.485-1.862,2.727-1.862C30.867,34.711,31.934,35.491,32.354,36.593z"/>
	</g>
	<path fill="#F58A4C" d="M20.406,22.814l-0.83-0.769c0.859-0.926,2.076-1.457,3.339-1.457c0.6,0,1.183,0.115,1.734,0.342
		l-0.431,1.045c-0.414-0.171-0.853-0.257-1.303-0.257C21.966,21.719,21.051,22.119,20.406,22.814z"/>
	<path fill="#7A2F45" d="M24.836,25.152v0.64h-3.841v-0.64c0-1.059,0.861-1.92,1.921-1.92
		C23.979,23.232,24.836,24.093,24.836,25.152z"/>
	<g>
		<path fill="#F58A4C" d="M38.881,22.814c-0.646-0.696-1.561-1.095-2.509-1.095c-0.452,0-0.891,0.086-1.304,0.257l-0.431-1.045
			c0.55-0.227,1.134-0.342,1.734-0.342c1.263,0,2.479,0.531,3.337,1.457L38.881,22.814z"/>
		<path fill="#7A2F45" d="M34.45,25.152v0.64h3.841v-0.64c0-1.059-0.861-1.92-1.92-1.92C35.309,23.232,34.45,24.093,34.45,25.152z"
			/>
	</g>
	<polygon fill="#BF571F" points="31.475,16.408 39.824,29.245 39.824,23.232 48.206,31.613 44.717,19.801 36.371,16.408 	"/>
	<path fill="#7B5F8C" d="M13.92,20.281c-0.479,0-0.928-0.297-1.1-0.773c-0.22-0.607,0.095-1.278,0.702-1.498
		c0.75-0.271,1.499-0.518,2.226-0.735c4.468-1.351,9.145-2.038,13.896-2.038c4.752,0,9.43,0.687,13.901,2.039
		c0.722,0.216,1.471,0.463,2.222,0.734c0.606,0.22,0.922,0.891,0.702,1.498c-0.218,0.607-0.891,0.922-1.497,0.703
		c-0.71-0.256-1.416-0.49-2.101-0.694c-4.256-1.287-8.705-1.939-13.228-1.939c-4.521,0-8.971,0.652-13.224,1.938
		c-0.688,0.206-1.395,0.439-2.104,0.695C14.186,20.258,14.052,20.281,13.92,20.281z"/>
	<g>
		<path fill="#FFFFFF" d="M16.845,49.481v10.551h-0.52V50.08c0.104-0.13,0.213-0.254,0.322-0.38
			C16.713,49.628,16.778,49.556,16.845,49.481z"/>
		<path fill="#FFFFFF" d="M21.199,46.158v13.874h-0.52V46.438C20.851,46.34,21.022,46.247,21.199,46.158z"/>
		<path fill="#FFFFFF" d="M25.553,52.942v7.09h-0.52v-7.41C25.203,52.736,25.374,52.844,25.553,52.942z"/>
		<path fill="#FFFFFF" d="M29.906,54.018v6.015h-0.519v-6.017c0.088,0.005,0.176,0.007,0.265,0.007h0.008
			C29.743,54.022,29.826,54.022,29.906,54.018z"/>
		<path fill="#FFFFFF" d="M34.26,52.625v7.407h-0.52v-7.089C33.92,52.847,34.092,52.739,34.26,52.625z"/>
		<path fill="#FFFFFF" d="M38.613,46.453v13.579h-0.52V46.173C38.27,46.265,38.441,46.357,38.613,46.453z"/>
		<path fill="#FFFFFF" d="M42.966,50.102v9.931h-0.52V49.503c0.065,0.07,0.131,0.141,0.192,0.213
			C42.752,49.844,42.86,49.971,42.966,50.102z"/>
	</g>
</g>
</svg>
