<?xml version="1.0" encoding="utf-8"?>
<!-- Generator: Adobe Illustrator 16.0.0, SVG Export Plug-In . SVG Version: 6.00 Build 0)  -->
<!DOCTYPE svg PUBLIC "-//W3C//DTD SVG 1.1//EN" "http://www.w3.org/Graphics/SVG/1.1/DTD/svg11.dtd">
<svg version="1.1" id="Layer_1" xmlns="http://www.w3.org/2000/svg" xmlns:xlink="http://www.w3.org/1999/xlink" x="0px" y="0px"
	 width="60px" height="60px" viewBox="0 0 60 60" enable-background="new 0 0 60 60" xml:space="preserve">
<g>
	<path fill="#0B6ED9" d="M47.565,57.153v2.761H12.548v-2.761c0-5.026,2.773-9.412,6.854-11.723c0.816-0.466,1.695-0.812,2.608-1.098
		c1.274-0.398,2.635-0.581,4.041-0.581h8.082c1.406,0,2.758,0.183,4.032,0.581c0.913,0.285,1.766,0.648,2.582,1.114
		C44.828,47.759,47.565,52.127,47.565,57.153z"/>
	<polygon fill="#413369" points="30.014,58.231 26.299,51.496 33.814,51.496 	"/>
	<polygon fill="#413369" points="30.022,53.179 27.074,59.914 33.04,59.914 	"/>
	<path fill="#413369" d="M19.419,45.431c-2.993,1.697-5.207,4.441-6.23,7.733l-1.285-0.401c1.104-3.551,3.529-6.621,6.853-8.504
		L19.419,45.431z"/>
	<path fill="#413369" d="M48.279,52.763l-1.284,0.401c-1.026-3.292-3.235-6.036-6.226-7.73l0.663-1.172
		C44.754,46.142,47.175,49.212,48.279,52.763z"/>
	<path fill="#0053AD" d="M30.057,39.87c-5.199,0-9.428,4.229-9.428,9.428v5.717l9.428-3.547l9.427,3.547v-5.717
		C39.484,44.1,35.255,39.87,30.057,39.87z"/>
	<polygon fill="#0B6ED9" points="30.092,29.05 10.81,13.921 15.491,4.079 30.092,0.086 44.692,4.079 49.374,13.921 	"/>
	<g>
		<path fill="#F58A4C" d="M16.876,23.201h9.679v7.003h-9.679c-1.937,0-3.507-1.569-3.507-3.506v0.005
			C13.37,24.766,14.939,23.201,16.876,23.201z"/>
		<path fill="#F58A4C" d="M43.308,23.201h-9.749v7.003h9.749c1.937,0,3.507-1.569,3.507-3.506v0.005
			C46.814,24.766,45.244,23.201,43.308,23.201z"/>
	</g>
	<path fill="#F58A4C" d="M30.07,50.697L30.07,50.697c-2.983,0-5.4-2.418-5.4-5.4v-5.308h10.774v5.334
		C35.444,48.291,33.038,50.697,30.07,50.697z"/>
	<path fill="#FFA870" d="M43.525,15.478v14.117c0,7.438-6.031,13.469-13.468,13.469c-7.438,0-13.469-6.031-13.469-13.469V15.478
		H43.525z"/>
	<path fill="#A12D37" d="M38.046,30.721c-0.073,0.507-0.194,0.991-0.356,1.457c-0.147,0.432-0.331,0.844-0.549,1.236
		c-0.763,1.393-1.924,2.521-3.327,3.243c-0.199,0.105-0.401,0.199-0.608,0.286c-0.97,0.403-2.034,0.622-3.149,0.622
		c-1.118,0-2.185-0.221-3.157-0.625c-0.223-0.095-0.441-0.196-0.655-0.311c-1.381-0.724-2.523-1.839-3.272-3.216
		c-0.218-0.393-0.401-0.805-0.549-1.236c-0.162-0.466-0.283-0.95-0.356-1.457H38.046z"/>
	<path fill="#C93945" d="M33.205,36.943c-0.97,0.403-2.034,0.622-3.149,0.622c-1.118,0-2.185-0.221-3.157-0.625
		c0.518-1.229,1.737-2.085,3.151-2.085C31.47,34.855,32.688,35.718,33.205,36.943z"/>
	<rect x="27.363" y="22.955" fill="#F57355" width="5.388" height="5.387"/>
	<circle fill="#7A2F45" cx="23.188" cy="26.187" r="1.616"/>
	<circle fill="#7A2F45" cx="36.926" cy="26.187" r="1.616"/>
	<rect x="16.588" y="13.982" fill="#FFDB56" width="2.694" height="13.446"/>
	<rect x="41.102" y="13.982" fill="#FFDB56" width="2.424" height="13.446"/>
	<rect x="16.588" y="12.515" fill="#0053AD" width="26.937" height="5.926"/>
	<path fill="#413369" d="M43.56,18.477l-0.015,0.012c-7.903,6.2-19.019,6.199-26.921-0.001l0,0L43.56,18.477z"/>
	<path fill="#0053AD" d="M43.56,12.635l-0.015-0.012c-7.903-6.2-19.019-6.2-26.921,0.001l0,0L43.56,12.635z"/>
	<path fill="#413369" d="M43.56,18.477l-0.015-0.012c-7.903-6.2-19.019-6.2-26.921,0.001l0,0L43.56,18.477z"/>
	<path fill="#FFDB56" d="M33.827,3.895v5.218c0,1.217-0.824,2.287-1.993,2.629l-1.778,0.512l-1.775-0.512
		c-1.169-0.342-1.996-1.412-1.996-2.629V3.895H33.827z"/>
	<path fill="#FFFFFF" d="M38.046,30.721c-0.073,0.507-0.194,0.991-0.355,1.457c-0.148,0.432-0.332,0.844-0.55,1.236H22.972
		c-0.218-0.393-0.402-0.805-0.55-1.236c-0.162-0.466-0.283-0.95-0.356-1.457H38.046z"/>
</g>
</svg>
