<?xml version="1.0" encoding="utf-8"?>
<!-- Generator: Adobe Illustrator 16.0.0, SVG Export Plug-In . SVG Version: 6.00 Build 0)  -->
<!DOCTYPE svg PUBLIC "-//W3C//DTD SVG 1.1//EN" "http://www.w3.org/Graphics/SVG/1.1/DTD/svg11.dtd">
<svg version="1.1" id="Layer_1" xmlns="http://www.w3.org/2000/svg" xmlns:xlink="http://www.w3.org/1999/xlink" x="0px" y="0px"
	 width="60px" height="60px" viewBox="0 0 60 60" enable-background="new 0 0 60 60" xml:space="preserve">
<g>
	<path fill="#73648C" d="M48.367,59.887H10.554v-0.035c0-1.184,0.119-2.338,0.343-3.455c0.245-1.213,0.615-2.383,1.097-3.49
		c0.544-1.248,1.228-2.418,2.036-3.49c0.989-1.324,2.165-2.498,3.485-3.492c0.833-0.625,1.723-1.182,2.662-1.648
		c2.342-1.178,4.992-1.842,7.796-1.842h2.944c2.814,0,5.477,0.67,7.83,1.852c0.932,0.469,1.816,1.02,2.641,1.639
		c1.324,0.994,2.5,2.168,3.49,3.492c0.811,1.072,1.492,2.242,2.037,3.49c0.486,1.107,0.857,2.273,1.105,3.49
		C48.248,57.523,48.367,58.691,48.367,59.887z"/>
	<polygon fill="#FF4D60" points="48.367,59.887 10.554,59.887 10.554,59.852 10.896,56.396 48.02,56.396 	"/>
	<path fill="#FF4D60" d="M46.914,52.906h-34.92c0.544-1.248,1.228-2.418,2.036-3.49h30.848
		C45.688,50.488,46.369,51.658,46.914,52.906z"/>
	<path fill="#FF4D60" d="M41.387,45.924H17.514c2.912-2.193,6.531-3.49,10.458-3.49h2.944
		C34.846,42.434,38.469,43.732,41.387,45.924z"/>
	<g>
		<path fill="#5C4769" d="M15.089,35.488h8.905V16.084h-8.905c-4.696,0-8.717,3.362-9.548,7.984l0,0
			C4.47,30.019,9.043,35.488,15.089,35.488z"/>
		<path fill="#5C4769" d="M43.832,35.488h-8.904V16.084h8.904c4.695,0,8.719,3.362,9.549,7.984l0,0
			C54.451,30.019,49.877,35.488,43.832,35.488z"/>
	</g>
	<path fill="#5C4769" d="M33.326,32.754h-7.729c-7.86,0-14.232-6.373-14.232-14.233V17.82c0-9.78,7.928-17.708,17.707-17.708h0.778
		c9.779,0,17.707,7.928,17.707,17.708v0.701C47.557,26.381,41.186,32.754,33.326,32.754z"/>
	<path fill="#F59055" d="M14.937,19.199h10.452v7.563H14.937c-2.091,0-3.787-1.696-3.787-3.787v0.005
		C11.149,20.889,12.845,19.199,14.937,19.199z"/>
	<path fill="#F59055" d="M44.061,19.199H33.533v7.563h10.527c2.092,0,3.787-1.696,3.787-3.787v0.005
		C47.848,20.889,46.152,19.199,44.061,19.199z"/>
	<path fill="#FFA870" d="M38.746,44.285c-0.355,4.812-4.375,8.621-9.265,8.621H29.47c-4.911,0-8.945-3.814-9.294-8.631
		c2.342-1.178,4.992-1.842,7.796-1.842h2.944C33.73,42.434,36.393,43.104,38.746,44.285z"/>
	<path fill="#F59055" d="M29.604,49.416h-0.259c-3.149,0-5.702-2.555-5.702-5.703v-5.861h11.636v5.889
		C35.279,46.875,32.738,49.416,29.604,49.416z"/>
	<path fill="#FFA870" d="M29.773,41.307h-0.625c-7.86,0-14.231-6.371-14.231-14.232v-7.896c0-7.86,6.372-14.232,14.231-14.232h0.625
		c7.859,0,14.232,6.372,14.232,14.232v7.896C44.006,34.936,37.633,41.307,29.773,41.307z"/>
	<circle fill="#7A2F45" cx="22.043" cy="20.886" r="1.746"/>
	<circle fill="#7A2F45" cx="36.878" cy="20.886" r="1.745"/>
	<path fill="#F57355" d="M32.369,24.435h-5.817v-2.886c0-1.572,1.274-2.847,2.846-2.847h0.125c1.572,0,2.846,1.274,2.846,2.847
		V24.435z"/>
	<path fill="#A12D37" d="M38.188,26.762c0,1.026-0.168,2.007-0.482,2.908c-0.73,2.121-2.244,3.837-4.186,4.837
		c-1.213,0.631-2.596,0.98-4.059,0.98c-1.486,0-2.889-0.359-4.116-1.01c-1.917-1.006-3.406-2.707-4.127-4.808
		c-0.314-0.901-0.483-1.882-0.483-2.908H38.188z"/>
	<path fill="#FFFFFF" d="M38.188,26.762c0,1.026-0.168,2.007-0.482,2.908H21.218c-0.314-0.901-0.483-1.882-0.483-2.908H38.188z"/>
	<path fill="#C93945" d="M33.52,34.508c-1.213,0.631-2.596,0.98-4.059,0.98c-1.486,0-2.889-0.359-4.116-1.01
		c0.634-1.635,2.222-2.789,4.081-2.789C31.294,31.689,32.891,32.859,33.52,34.508z"/>
	<g>
		<path fill="#5C4769" d="M35.725,4.019h-9.314c-6.342,0-11.484,5.142-11.484,11.484v3.696l0,0c4.524,0,8.837-1.918,11.866-5.277
			L35.725,4.019z"/>
		<path fill="#5C4769" d="M23.197,4.019h9.292c6.355,0,11.506,5.151,11.506,11.506v3.674l0,0c-4.523,0-8.836-1.918-11.865-5.277
			L23.197,4.019z"/>
	</g>
</g>
</svg>
