<?xml version="1.0" encoding="utf-8"?>
<!-- Generator: Adobe Illustrator 16.0.0, SVG Export Plug-In . SVG Version: 6.00 Build 0)  -->
<!DOCTYPE svg PUBLIC "-//W3C//DTD SVG 1.1//EN" "http://www.w3.org/Graphics/SVG/1.1/DTD/svg11.dtd">
<svg version="1.1" id="Layer_1" xmlns="http://www.w3.org/2000/svg" xmlns:xlink="http://www.w3.org/1999/xlink" x="0px" y="0px"
	 width="60px" height="60px" viewBox="0 0 60 60" enable-background="new 0 0 60 60" xml:space="preserve">
<g>
	<path fill="#E82247" d="M45.227,43.565c-4.772,2.016-8.421,5.943-10.075,10.89l-0.182,0.542H24.402l-0.182-0.542
		c-1.652-4.946-5.301-8.874-10.072-10.887c2.832-5.716,8.727-9.647,15.539-9.647S42.395,37.85,45.227,43.565z"/>
	<path fill="#F58A4C" d="M47.321,57.29v2.78H12.054v-2.78c0-4.04,1.779-7.667,4.585-10.149c0.491-0.437,1.015-0.835,1.565-1.196
		c0.244-0.163,0.496-0.314,0.754-0.461c0.822-0.47,1.706-0.819,2.626-1.106c0.857-0.27,1.753-0.439,2.678-0.521v-5.217h10.852v5.212
		c0.019,0.002,0.035,0.002,0.054,0.005c0.928,0.079,1.823,0.252,2.687,0.521c0.92,0.287,1.779,0.653,2.601,1.123
		c0.244,0.138,0.486,0.284,0.72,0.439c0.554,0.357,1.077,0.757,1.57,1.193C45.555,49.612,47.321,53.239,47.321,57.29z"/>
	<path fill="#E82247" d="M29.688,60.07h-3.586l-1.699-5.073l-0.182-0.542c-1.145-3.427-3.247-6.362-6.017-8.511
		c0.244-0.163,0.496-0.314,0.754-0.461c0.822-0.47,1.706-0.819,2.626-1.106c0.857-0.27,1.753-0.439,2.678-0.521L29.688,60.07z"/>
	<path fill="#241C29" d="M26.102,60.07H12.054v-2.78c0-4.04,1.779-7.667,4.585-10.149c0.491-0.437,1.015-0.835,1.565-1.196
		c2.77,2.148,4.872,5.084,6.017,8.511l0.182,0.542L26.102,60.07z"/>
	<path fill="#E82247" d="M41.174,45.939c-2.772,2.15-4.875,5.089-6.022,8.516l-0.182,0.542l-1.696,5.073H29.69l5.426-16.215h0.051
		c0.928,0.079,1.823,0.252,2.687,0.521c0.92,0.287,1.779,0.653,2.601,1.123C40.698,45.638,40.94,45.784,41.174,45.939z"/>
	<path fill="#FFC03B" d="M26.102,60.07h-2.003l-1.676-5.011c-0.009-0.021-0.014-0.041-0.022-0.062
		c-1.085-3.201-3.104-5.919-5.762-7.856c-0.993-0.724-2.078-1.34-3.236-1.828c0.214-0.597,0.467-1.18,0.746-1.744
		c1.465,0.618,2.826,1.418,4.056,2.376c2.77,2.148,4.872,5.084,6.017,8.511l0.182,0.542L26.102,60.07z"/>
	<circle fill="#FFC03B" cx="20.518" cy="57.879" r="1.221"/>
	<circle fill="#FFC03B" cx="19.297" cy="54.541" r="1.221"/>
	<circle fill="#FFC03B" cx="17.348" cy="51.429" r="1.221"/>
	<path fill="#241C29" d="M33.273,60.07h14.048v-2.78c0-4.04-1.78-7.667-4.585-10.149c-0.491-0.437-1.015-0.835-1.565-1.196
		c-2.77,2.148-4.872,5.084-6.017,8.511l-0.183,0.542L33.273,60.07z"/>
	<circle fill="#FFC03B" cx="38.856" cy="57.879" r="1.221"/>
	<circle fill="#FFC03B" cx="40.078" cy="54.541" r="1.221"/>
	<circle fill="#FFC03B" cx="42.027" cy="51.429" r="1.221"/>
	<path fill="#FFC03B" d="M45.976,45.31c-1.156,0.488-2.238,1.102-3.231,1.823c-2.664,1.937-4.685,4.658-5.771,7.864
		c-0.008,0.021-0.013,0.041-0.021,0.062l-1.677,5.011h-2.002l1.696-5.073l0.182-0.542c1.147-3.427,3.25-6.365,6.022-8.516
		c1.229-0.955,2.588-1.753,4.053-2.374C45.509,44.13,45.759,44.713,45.976,45.31z"/>
	<g>
		<path fill="#241C29" d="M29.688,0.243L29.688,0.243c-9.457,0-17.213,7.494-17.536,16.945l-0.776,22.663H48l-0.776-22.663
			C46.9,7.737,39.145,0.243,29.688,0.243z"/>
		<path fill="#FFA870" d="M29.706,42.004h-0.009c-7.497,0-13.573-6.077-13.573-13.573V17.07c0-2.921,2.368-5.289,5.289-5.289h21.84
			v16.676C43.253,35.938,37.188,42.004,29.706,42.004z"/>
		<g>
			<path fill="#A12D37" d="M36.199,29.143c0,0.766-0.126,1.498-0.36,2.17c-0.545,1.582-1.674,2.863-3.123,3.609
				c-0.905,0.471-1.936,0.731-3.027,0.731c-1.109,0-2.155-0.27-3.071-0.753c-1.431-0.751-2.541-2.021-3.079-3.588
				c-0.234-0.673-0.361-1.404-0.361-2.17H36.199z"/>
			<path fill="#FFFFFF" d="M36.199,29.143c0,0.766-0.126,1.498-0.36,2.17H23.538c-0.234-0.673-0.361-1.404-0.361-2.17H36.199z"/>
			<path fill="#C93945" d="M32.716,34.923c-0.905,0.471-1.936,0.731-3.027,0.731c-1.109,0-2.155-0.27-3.071-0.753
				c0.474-1.22,1.658-2.082,3.045-2.082C31.056,32.819,32.247,33.692,32.716,34.923z"/>
		</g>
		<path fill="#FF8366" d="M29.688,27.247L29.688,27.247c-1.904,0-3.448-1.544-3.448-3.448v-4.903h6.896v4.903
			C33.137,25.703,31.593,27.247,29.688,27.247z"/>
		<path fill="#241C29" d="M20.702,10.132l1.313,1.313c3.092,3.092,7.286,4.83,11.659,4.83h9.637v-6.143H20.702z"/>
		<g>
			<polygon fill="#241C29" points="20.771,33.362 17.595,38.594 14.418,38.594 14.418,20.253 			"/>
			<polygon fill="#241C29" points="38.605,33.362 41.781,38.594 44.958,38.594 44.958,20.253 			"/>
		</g>
		<path fill="#FFC03B" d="M20.484,28.16L20.484,28.16c-2.933,0-5.31-2.377-5.31-5.31l0,0c0-2.932,2.377-5.309,5.31-5.309h8.751
			l-1.814,5.58C26.443,26.125,23.644,28.16,20.484,28.16z"/>
		<path fill="#E8681A" d="M27.367,18.896l-0.273,0.844l-0.963,2.963c-0.798,2.452-3.065,4.099-5.646,4.099
			c-0.144,0-0.288-0.008-0.429-0.024c-1.042-0.111-1.964-0.629-2.604-1.392c-0.575-0.686-0.923-1.573-0.923-2.536
			c0-2.179,1.774-3.953,3.956-3.953H27.367z"/>
		<path fill="#FFC03B" d="M38.893,28.16L38.893,28.16c2.932,0,5.31-2.377,5.31-5.31l0,0c0-2.932-2.378-5.309-5.31-5.309h-8.752
			l1.814,5.58C32.933,26.125,35.732,28.16,38.893,28.16z"/>
		<path fill="#E8681A" d="M42.845,22.849c0,2.181-1.771,3.953-3.953,3.953c-0.496,0-0.981-0.062-1.445-0.176
			c-1.354-0.339-2.539-1.142-3.354-2.263c-0.36-0.494-0.648-1.053-0.847-1.66l-1.239-3.807h6.885c0.209,0,0.415,0.017,0.616,0.049
			c1.427,0.225,2.602,1.212,3.09,2.528C42.758,21.902,42.845,22.366,42.845,22.849z"/>
		<rect x="24.648" y="17.541" fill="#FFC03B" width="10.08" height="1.356"/>
		<rect x="27.367" y="20.253" fill="#FFC03B" width="4.642" height="1.356"/>
		<g>
			<circle fill="#96302B" cx="22.442" cy="22.132" r="1.879"/>
			<circle fill="#96302B" cx="36.934" cy="22.132" r="1.879"/>
		</g>
	</g>
</g>
</svg>
