<?xml version="1.0" encoding="utf-8"?>
<!-- Generator: Adobe Illustrator 16.0.0, SVG Export Plug-In . SVG Version: 6.00 Build 0)  -->
<!DOCTYPE svg PUBLIC "-//W3C//DTD SVG 1.1//EN" "http://www.w3.org/Graphics/SVG/1.1/DTD/svg11.dtd">
<svg version="1.1" id="Layer_1" xmlns="http://www.w3.org/2000/svg" xmlns:xlink="http://www.w3.org/1999/xlink" x="0px" y="0px"
	 width="60px" height="60px" viewBox="0 0 60 60" enable-background="new 0 0 60 60" xml:space="preserve">
<g>
	<path fill="#3D2F45" d="M43.289,5.921h5.734c0,3.153-2.566,5.733-5.734,5.733H14.625l0,0c0-6.333,5.133-11.466,11.466-11.466
		h22.933C49.023,3.341,46.457,5.921,43.289,5.921z"/>
	<path fill="#FF4D60" d="M47.627,59.812H10.361v-0.197c0-9.391,7.612-17.002,17.002-17.002h3.229
		c9.408,0,17.035,7.627,17.035,17.035V59.812z"/>
	<path fill="#FE932E" d="M37.594,51.106H20.395c-3.958,0-7.166-3.209-7.166-7.167l0,0c0-3.958,3.208-7.166,7.166-7.166h17.199
		c3.959,0,7.168,3.208,7.168,7.166l0,0C44.762,47.897,41.553,51.106,37.594,51.106z"/>
	<path fill="#F27501" d="M40.906,42.006c0,1.173-0.701,2.233-1.779,2.692l-4.398,1.871l-5.76,2.451l-5.708-2.439l-4.403-1.88
		c-1.077-0.462-1.774-1.52-1.774-2.689v-0.006c0-1.613,1.307-2.924,2.924-2.924h17.974C39.598,39.082,40.906,40.393,40.906,42.006z"
		/>
	<polygon fill="#96442B" points="34.729,36.52 34.729,46.569 28.969,49.021 23.261,46.581 23.261,36.52 	"/>
	<path fill="#FFFFFF" d="M24.938,59.812h-1.677v-9.954c0-0.464,0.375-0.838,0.838-0.838l0,0c0.463,0,0.838,0.374,0.838,0.838V59.812
		z"/>
	<path fill="#FFFFFF" d="M34.729,59.812h-1.678v-9.954c0-0.464,0.375-0.838,0.838-0.838l0,0c0.464,0,0.84,0.374,0.84,0.838V59.812z"
		/>
	<g>
		<path fill="#96442B" d="M14.931,18.534h10.3v7.453h-10.3c-2.061,0-3.732-1.671-3.732-3.732v0.006
			C11.199,20.199,12.87,18.534,14.931,18.534z"/>
		<path fill="#96442B" d="M43.059,18.534H32.684v7.453h10.375c2.062,0,3.732-1.671,3.732-3.732v0.006
			C46.791,20.199,45.121,18.534,43.059,18.534z"/>
	</g>
	<path fill="#BF593A" d="M29.094,40.436h-0.273c-7.84,0-14.196-6.355-14.196-14.196V11.654h28.665V26.24
		C43.289,34.08,36.934,40.436,29.094,40.436z"/>
	<path fill="#A12D37" d="M37.557,25.987c0,1.012-0.166,1.978-0.476,2.866c-0.72,2.09-2.21,3.781-4.125,4.768
		c-1.196,0.622-2.557,0.966-3.999,0.966c-1.464,0-2.846-0.355-4.056-0.995c-1.889-0.991-3.356-2.669-4.068-4.739
		c-0.31-0.888-0.476-1.854-0.476-2.866H37.557z"/>
	<path fill="#FFFFFF" d="M37.557,25.987c0,1.012-0.166,1.978-0.476,2.866H20.833c-0.31-0.888-0.476-1.854-0.476-2.866H37.557z"/>
	<path fill="#C93945" d="M32.956,33.621c-1.196,0.622-2.557,0.966-3.999,0.966c-1.464,0-2.846-0.355-4.056-0.995
		c0.625-1.611,2.19-2.749,4.021-2.749C30.764,30.843,32.338,31.995,32.956,33.621z"/>
	<path fill="#96442B" d="M31.824,23.693h-5.733v-2.82c0-1.562,1.267-2.83,2.829-2.83h0.059c1.572,0,2.845,1.273,2.845,2.844V23.693z
		"/>
	<circle fill="#66273A" cx="21.647" cy="20.196" r="1.72"/>
	<circle fill="#66273A" cx="36.267" cy="20.196" r="1.72"/>
</g>
</svg>
