<?xml version="1.0" encoding="utf-8"?>
<!-- Generator: Adobe Illustrator 16.0.0, SVG Export Plug-In . SVG Version: 6.00 Build 0)  -->
<!DOCTYPE svg PUBLIC "-//W3C//DTD SVG 1.1//EN" "http://www.w3.org/Graphics/SVG/1.1/DTD/svg11.dtd">
<svg version="1.1" id="Layer_1" xmlns="http://www.w3.org/2000/svg" xmlns:xlink="http://www.w3.org/1999/xlink" x="0px" y="0px"
	 width="60px" height="60px" viewBox="0 0 60 60" enable-background="new 0 0 60 60" xml:space="preserve">
<g>
	<path fill="#FFDB56" d="M41.892,4.558v12.15c0,3.898-1.624,7.416-4.232,9.912c-2.452,2.345-5.777,3.786-9.445,3.786h-0.012
		c-1.117,0-2.205-0.134-3.243-0.386c-6-1.458-10.463-6.863-10.463-13.312V4.558c0.15-0.326,0.965-1.37,3.301-2.422
		c1.03-0.463,2.179-0.849,3.411-1.153c2.132-0.529,4.518-0.808,6.986-0.808c3.898,0,7.591,0.699,10.399,1.961
		C40.931,3.188,41.741,4.231,41.892,4.558z"/>
	<ellipse fill="#FFC03B" cx="28.194" cy="15.518" rx="19.177" ry="9.862"/>
	<path fill="#3D2F45" d="M41.892,15.516c-0.15,0.329-0.961,1.373-3.298,2.425c-2.809,1.263-6.501,1.959-10.399,1.959
		s-7.592-0.696-10.397-1.959c-2.336-1.052-3.15-2.096-3.301-2.425c0.15-0.326,0.965-1.37,3.301-2.421
		c2.806-1.263,6.499-1.961,10.397-1.961s7.591,0.698,10.399,1.961C40.931,14.146,41.741,15.19,41.892,15.516z"/>
	<path fill="#3D2F45" d="M46.003,57.075v2.808H10.389v-2.808c0-5.088,2.791-9.531,6.912-11.89c0.019-0.011,0.038-0.021,0.057-0.033
		c0.831-0.474,1.724-0.827,2.652-1.117c1.296-0.406,2.682-0.59,4.111-0.59h8.22c1.43,0,2.805,0.184,4.101,0.59
		c0.929,0.29,1.795,0.66,2.625,1.134c0.008,0.006,0.017,0.008,0.024,0.014C43.228,47.536,46.003,51.975,46.003,57.075z"/>
	<path fill="#DB9953" d="M39.092,45.183l-1.323,1.326h-0.003l-6.794,6.797h-0.003l-2.768,2.77v-7.109h0.009
		c3.021,0,5.452-2.443,5.463-5.463c0.956,0.08,1.882,0.255,2.77,0.532c0.929,0.29,1.795,0.66,2.625,1.134
		C39.075,45.175,39.084,45.177,39.092,45.183z"/>
	<path fill="#FFA870" d="M33.673,43.503c-0.011,3.02-2.441,5.463-5.463,5.463h-0.009v7.109l-0.005,0.006l-2.068-2.068l-8.826-8.827
		c0.019-0.011,0.038-0.021,0.057-0.033c0.83-0.474,1.724-0.827,2.652-1.117c1.296-0.406,2.682-0.59,4.111-0.59h8.22
		c0.421,0,0.841,0.017,1.251,0.053C33.621,43.498,33.648,43.498,33.673,43.503z"/>
	<polygon fill="#A8A055" points="28.201,48.561 28.201,56.075 28.196,56.081 26.128,54.013 26.128,48.561 	"/>
	<path fill="#96A24E" d="M28.194,48.966L28.194,48.966c-3.026,0-5.479-2.453-5.479-5.479v-5.411h10.958v5.411
		C33.673,46.513,31.221,48.966,28.194,48.966z"/>
	<path fill="#918A49" d="M33.673,41.411v2.085c-0.005,3.021-2.438,5.471-5.462,5.471h-0.009c-0.733,0-1.436-0.146-2.073-0.405
		C26.34,44.575,29.636,41.411,33.673,41.411z"/>
	<path fill="#C98D4C" d="M33.673,43.495v0.008c-0.011,3.02-2.441,5.463-5.463,5.463h-0.009c0-2.994,2.406-5.427,5.392-5.468
		C33.621,43.495,33.646,43.495,33.673,43.495z"/>
	<rect x="22.715" y="39.947" fill="#918A49" width="10.958" height="2.722"/>
	<g>
		<path fill="#F58A4C" d="M14.789,20.433h9.844v7.123h-9.844c-1.97,0-3.566-1.597-3.566-3.567v0.005
			C11.223,22.024,12.819,20.433,14.789,20.433z"/>
		<path fill="#F58A4C" d="M41.671,20.433h-9.915v7.123h9.915c1.97,0,3.566-1.597,3.566-3.567v0.005
			C45.237,22.024,43.641,20.433,41.671,20.433z"/>
	</g>
	<path fill="#FFA870" d="M41.892,15.516v12.15c0,3.898-1.624,7.416-4.232,9.912c-2.452,2.345-5.777,3.785-9.445,3.785h-0.012
		c-1.117,0-2.205-0.134-3.243-0.386c-6-1.458-10.463-6.862-10.463-13.312v-12.15c0.15-0.326,0.965-1.37,3.301-2.421
		c1.03-0.463,2.179-0.849,3.411-1.153c2.132-0.529,4.518-0.808,6.986-0.808c3.898,0,7.591,0.698,10.399,1.961
		C40.931,14.146,41.741,15.19,41.892,15.516z"/>
	<path fill="#A12D37" d="M36.413,27.556c0,0.967-0.159,1.89-0.455,2.739c-0.688,1.997-2.112,3.613-3.942,4.556
		c-1.142,0.595-2.443,0.924-3.821,0.924c-1.4,0-2.72-0.34-3.877-0.951c-1.805-0.948-3.207-2.551-3.887-4.528
		c-0.296-0.849-0.455-1.772-0.455-2.739H36.413z"/>
	<path fill="#FFFFFF" d="M36.413,27.556c0,0.967-0.159,1.89-0.455,2.739H20.431c-0.296-0.849-0.455-1.772-0.455-2.739H36.413z"/>
	<path fill="#C93945" d="M32.016,34.851c-1.142,0.595-2.443,0.924-3.821,0.924c-1.4,0-2.72-0.34-3.877-0.951
		c0.598-1.539,2.094-2.627,3.844-2.627C29.92,32.196,31.424,33.298,32.016,34.851z"/>
	<path fill="#FF8366" d="M30.934,25.364h-5.479v-2.66c0-1.513,1.227-2.74,2.739-2.74l0,0c1.513,0,2.739,1.227,2.739,2.74V25.364z"/>
	<rect x="22.853" y="26.323" fill="#3D2F45" width="0.821" height="2.465"/>
	<circle fill="#3D2F45" cx="13.179" cy="25.364" r="0.863"/>
	<path fill="#A8A055" d="M37.766,46.509l-6.794,6.797h-0.003v-1.112c0-3.14,2.545-5.685,5.685-5.685H37.766z"/>
	<path fill="#F58A4C" d="M38.932,21.966h-7.503c0-2.072,1.68-3.751,3.752-3.751C37.252,18.214,38.932,19.894,38.932,21.966z"/>
	<path fill="#3D2F45" d="M16.219,17.201c0.526-0.548,1.121-0.997,1.768-1.34v1.611c-0.274,0.197-0.535,0.421-0.775,0.674
		L16.219,17.201z"/>
	<path fill="#3D2F45" d="M19.082,15.396c0.355-0.115,0.72-0.2,1.096-0.255v1.389c-0.378,0.071-0.745,0.18-1.096,0.326V15.396z"/>
	<path fill="#3D2F45" d="M26.709,17.801l-1.091,0.827c-1.046-1.378-2.624-2.175-4.345-2.192v-1.372
		C23.424,15.083,25.402,16.078,26.709,17.801z"/>
	<path fill="#F58A4C" d="M24.96,21.966h-7.503c0-2.072,1.68-3.751,3.751-3.751C23.28,18.214,24.96,19.894,24.96,21.966z"/>
	<circle fill="#7A2F45" cx="35.181" cy="22.022" r="1.644"/>
	<circle fill="#7A2F45" cx="21.208" cy="22.022" r="1.644"/>
	<path fill="#FF4D60" d="M45.469,26.247l-0.047,0.671l-0.046,0.638h-1.05v12.556l-6.668-10.526l-0.002,0.003l-0.22,0.389
		l-2.258,4.008L21.208,11.941c2.131-0.529,4.517-0.808,6.985-0.808c3.898,0,7.591,0.698,10.399,1.961
		c2.337,1.052,3.147,2.096,3.298,2.421l3.247,9.734L45.469,26.247z"/>
	<polygon fill="#FF4D60" points="49.523,27.556 44.326,27.556 44.326,27.841 33.672,24.855 41.891,15.516 	"/>
	<polygon fill="#FF4D60" points="41.822,15.392 50,28.256 32.53,28.256 	"/>
</g>
</svg>
