<?xml version="1.0" encoding="utf-8"?>
<!-- Generator: Adobe Illustrator 16.0.0, SVG Export Plug-In . SVG Version: 6.00 Build 0)  -->
<!DOCTYPE svg PUBLIC "-//W3C//DTD SVG 1.1//EN" "http://www.w3.org/Graphics/SVG/1.1/DTD/svg11.dtd">
<svg version="1.1" id="Layer_1" xmlns="http://www.w3.org/2000/svg" xmlns:xlink="http://www.w3.org/1999/xlink" x="0px" y="0px"
	 width="60px" height="60px" viewBox="0 0 60 60" enable-background="new 0 0 60 60" xml:space="preserve">
<g>
	<path fill="#FFA870" d="M37.195,43.718v3.083c0,4.64-3.785,8.402-8.425,8.402c-4.639,0-8.425-3.763-8.425-8.402v-3.083
		c0.376-0.113,0.75-0.202,1.123-0.277c1.025-0.208,2.056-0.289,3.126-0.289h8.425c1.063,0,2.053,0.081,3.053,0.286
		C36.443,43.513,36.815,43.604,37.195,43.718z"/>
	<path fill="#EDE9E1" d="M16.976,45.389V60h-6.459v-2.879c0-4.42,2.053-8.365,5.335-10.935
		C16.212,45.903,16.588,45.635,16.976,45.389z"/>
	<path fill="#FFA870" d="M37.195,43.718v3.083c0,4.64-3.785,8.402-8.425,8.402c-4.639,0-8.425-3.763-8.425-8.402v-3.083
		c0.376-0.113,0.75-0.202,1.123-0.277c1.025-0.208,2.056-0.289,3.126-0.289h8.425c1.063,0,2.053,0.081,3.053,0.286
		C36.443,43.513,36.815,43.604,37.195,43.718z"/>
	<path fill="#EDE9E1" d="M47.024,57.121V60h-6.179V45.389c0.388,0.267,0.764,0.554,1.123,0.859
		C45.005,48.82,47.024,52.738,47.024,57.121z"/>
	<path fill="#FFA870" d="M16.976,45.389V60h-6.459v-2.879c0-4.42,2.053-8.365,5.335-10.935
		C16.212,45.903,16.588,45.635,16.976,45.389z"/>
	<path fill="#FFA870" d="M47.024,57.121V60h-6.179V45.389c0.388,0.267,0.764,0.554,1.123,0.859
		C45.005,48.82,47.024,52.738,47.024,57.121z"/>
	<path fill="#FF4D60" d="M41.969,46.248V60H15.852V46.187c0.36-0.283,0.736-0.552,1.124-0.798c0.281-0.18,0.562-0.348,0.842-0.506
		c0.562-0.319,1.124-0.601,1.686-0.84c0.28-0.117,0.562-0.228,0.842-0.325c0.376-0.113,0.75-0.202,1.123-0.277v3.36
		c0,4.014,3.274,7.279,7.302,7.279c4.024,0,7.302-3.266,7.302-7.279v-3.363c0.371,0.075,0.743,0.167,1.123,0.28
		c0.291,0.081,0.573,0.172,0.843,0.267c0.708,0.253,1.346,0.554,1.965,0.901c0.284,0.158,0.562,0.327,0.843,0.503
		C41.233,45.655,41.609,45.942,41.969,46.248z"/>
	<path fill="#644B6E" d="M40.846,45.389V60h-23.87V45.389c0.281-0.18,0.562-0.348,0.842-0.506c0.562-0.319,1.124-0.601,1.686-0.84
		c0.28-0.117,0.562-0.228,0.842-0.325v3.083c0,4.64,3.786,8.402,8.425,8.402c4.64,0,8.425-3.763,8.425-8.402v-3.083
		c0.291,0.081,0.573,0.172,0.843,0.267c0.708,0.253,1.346,0.554,1.965,0.901C40.287,45.044,40.565,45.213,40.846,45.389z"/>
	<g>
		<path fill="#F59055" d="M15.029,19.56H25.12v7.302H15.029c-2.019,0-3.656-1.636-3.656-3.656v0.005
			C11.373,21.191,13.01,19.56,15.029,19.56z"/>
		<path fill="#F59055" d="M42.585,19.56H32.42v7.302h10.165c2.019,0,3.655-1.636,3.655-3.656v0.005
			C46.24,21.191,44.604,19.56,42.585,19.56z"/>
	</g>
	<path fill="#F59055" d="M28.784,48.977L28.784,48.977c-3.109,0-5.63-2.521-5.63-5.631v-5.532h11.233v5.56
		C34.387,46.468,31.879,48.977,28.784,48.977z"/>
	<path fill="#FFA870" d="M28.784,41.018L28.784,41.018c-7.763,0-14.055-6.292-14.055-14.054V9.113h28.083V26.99
		C42.812,34.738,36.531,41.018,28.784,41.018z"/>
	<circle fill="#7A2F45" cx="21.609" cy="20.908" r="1.685"/>
	<circle fill="#7A2F45" cx="35.931" cy="20.908" r="1.685"/>
	<path fill="#FF8366" d="M31.579,24.615h-5.617v-2.726c0-1.551,1.257-2.808,2.809-2.808l0,0c1.55,0,2.809,1.257,2.809,2.808V24.615z
		"/>
	<g>
		<path fill="#A12D37" d="M37.194,26.861c0,0.992-0.163,1.938-0.465,2.808c-0.706,2.048-2.165,3.705-4.042,4.67
			c-1.171,0.609-2.504,0.946-3.917,0.946c-1.436,0-2.789-0.348-3.974-0.975c-1.851-0.971-3.289-2.613-3.985-4.642
			c-0.303-0.87-0.466-1.816-0.466-2.808H37.194z"/>
		<path fill="#FFFFFF" d="M37.194,26.861c0,0.992-0.163,1.938-0.465,2.808H20.811c-0.303-0.87-0.466-1.816-0.466-2.808H37.194z"/>
		<path fill="#C93945" d="M32.688,34.34c-1.171,0.609-2.504,0.946-3.917,0.946c-1.436,0-2.789-0.348-3.974-0.975
			c0.612-1.578,2.146-2.693,3.939-2.693C30.539,31.618,32.081,32.747,32.688,34.34z"/>
	</g>
	<rect x="14.729" y="9.113" fill="#FF4D60" width="28.083" height="5.617"/>
	<path fill="#FFC03B" d="M43.935,0.158h-20.22c-4.962,0-8.986,4.023-8.986,8.986l0,0h29.206c2.481,0,4.493-2.012,4.493-4.493l0,0
		C48.428,2.17,46.416,0.158,43.935,0.158z"/>
	<circle fill="#FFC03B" cx="39.161" cy="7.951" r="4.212"/>
	<circle fill="#FFC03B" cx="32.421" cy="6.613" r="3.791"/>
</g>
</svg>
