<?xml version="1.0" encoding="utf-8"?>
<!-- Generator: Adobe Illustrator 16.0.0, SVG Export Plug-In . SVG Version: 6.00 Build 0)  -->
<!DOCTYPE svg PUBLIC "-//W3C//DTD SVG 1.1//EN" "http://www.w3.org/Graphics/SVG/1.1/DTD/svg11.dtd">
<svg version="1.1" id="Layer_1" xmlns="http://www.w3.org/2000/svg" xmlns:xlink="http://www.w3.org/1999/xlink" x="0px" y="0px"
	 width="60px" height="60px" viewBox="0 0 60 60" enable-background="new 0 0 60 60" xml:space="preserve">
<g>
	<path fill="#5C4769" d="M53.027,42.815c-6.158,2.091-13.965,3.338-22.456,3.338c-8.492,0-16.296-1.247-22.454-3.338l3.141-10.774
		c0.349-1.189,1.066-2.194,2.009-2.903c0.944-0.706,2.105-1.117,3.347-1.117V28.01h27.914v0.011c1.24,0,2.406,0.411,3.35,1.117
		c0.943,0.709,1.664,1.714,2.01,2.903L53.027,42.815z"/>
	<path fill="#FFC03B" d="M48.716,59.798h-7.964v-7.132h0.009v-7.121C45.533,48.493,48.716,53.773,48.716,59.798z"/>
	<path fill="#FFDB56" d="M20.381,45.528v7.138h-0.009v7.132h-7.944v-0.033C12.428,53.746,15.607,48.471,20.381,45.528z"/>
	<path fill="#BABABA" d="M40.761,45.545v7.121h-0.009v7.132h-20.38v-7.132h0.009v-7.138c2.548-1.571,5.546-2.479,8.762-2.479h2.825
		C35.191,43.05,38.203,43.963,40.761,45.545z"/>
	<path fill="#FFA870" d="M40.761,45.545v7.121h-20.38v-7.138c2.548-1.571,5.546-2.479,8.762-2.479h2.825
		C35.191,43.05,38.203,43.963,40.761,45.545z"/>
	<circle fill="#5C4769" cx="30.572" cy="18.554" r="18.528"/>
	<path fill="#F58A4C" d="M30.585,49.992L30.585,49.992c-3.09,0-5.596-2.506-5.596-5.597v-5.499h11.165v5.526
		C36.154,47.499,33.661,49.992,30.585,49.992z"/>
	<path fill="#FFA870" d="M44.527,22.718v5.292c0,7.71-6.246,13.957-13.956,13.957c-3.852,0-7.341-1.563-9.867-4.087
		c-2.526-2.525-4.09-6.015-4.09-9.87v-5.292c0-7.707,6.25-13.957,13.957-13.957c3.854,0,7.344,1.563,9.87,4.089
		C42.965,15.376,44.527,18.865,44.527,22.718z"/>
	<g>
		<path fill="#A12D37" d="M36.154,31.965c0,0.656-0.107,1.284-0.309,1.86c-0.467,1.357-1.435,2.455-2.678,3.095
			c-0.776,0.404-1.66,0.628-2.597,0.628c-0.951,0-1.848-0.231-2.633-0.646c-1.226-0.644-2.179-1.732-2.64-3.076
			c-0.201-0.576-0.309-1.204-0.309-1.86H36.154z"/>
		<path fill="#FFFFFF" d="M36.154,31.965c0,0.656-0.107,1.284-0.309,1.86H25.298c-0.201-0.576-0.309-1.204-0.309-1.86H36.154z"/>
		<path fill="#C93945" d="M33.168,36.92c-0.776,0.404-1.66,0.628-2.597,0.628c-0.951,0-1.848-0.231-2.633-0.646
			c0.406-1.046,1.422-1.784,2.611-1.784C31.744,35.117,32.766,35.865,33.168,36.92z"/>
	</g>
	<path fill="#5C4769" d="M45.954,19.458h-4.243c-9.397,0-18.192-4.632-23.507-12.383l0,0h15.368
		C40.41,7.075,45.954,12.619,45.954,19.458L45.954,19.458z"/>
	<path fill="#F57355" d="M30.571,30.034L30.571,30.034c-1.335,0-2.418-1.083-2.418-2.419v-2.529h4.837v2.529
		C32.99,28.951,31.907,30.034,30.571,30.034z"/>
	<circle fill="#7A2F45" cx="23.868" cy="25.364" r="1.675"/>
	<circle fill="#7A2F45" cx="37.267" cy="25.364" r="1.675"/>
	<g>
		<path fill="#C93E4C" d="M19.727,25.364c0,0.19,0.014,0.377,0.039,0.559h-3.151v-1.117h3.151
			C19.741,24.987,19.727,25.174,19.727,25.364z"/>
		<path fill="#C93E4C" d="M44.527,24.805v1.117h-3.156c0.025-0.182,0.039-0.369,0.039-0.559s-0.014-0.377-0.039-0.559H44.527z"/>
		<path fill="#C93E4C" d="M29.097,24.806c-0.279-2.641-2.518-4.701-5.228-4.701s-4.949,2.06-5.229,4.701
			c-0.02,0.185-0.031,0.369-0.031,0.559c0,0.189,0.011,0.374,0.031,0.558c0.14,1.32,0.771,2.496,1.703,3.341
			c0.933,0.843,2.172,1.359,3.526,1.359c2.71,0,4.949-2.06,5.228-4.701c0.02-0.184,0.031-0.369,0.031-0.558
			C29.127,25.174,29.116,24.99,29.097,24.806z M23.869,29.506c-2.094,0-3.833-1.563-4.104-3.584
			c-0.025-0.181-0.039-0.369-0.039-0.558c0-0.19,0.014-0.377,0.039-0.559c0.271-2.021,2.01-3.584,4.104-3.584
			c2.093,0,3.833,1.563,4.103,3.584c0.025,0.182,0.039,0.369,0.039,0.559c0,0.189-0.014,0.377-0.039,0.558
			C27.701,27.943,25.962,29.506,23.869,29.506z"/>
		<path fill="#C93E4C" d="M42.495,24.806c-0.14-1.32-0.771-2.495-1.703-3.341c-0.932-0.843-2.172-1.36-3.525-1.36
			c-2.71,0-4.949,2.06-5.228,4.701c-0.02,0.185-0.031,0.369-0.031,0.559c0,0.189,0.012,0.374,0.031,0.558
			c0.14,1.32,0.77,2.496,1.702,3.341c0.933,0.843,2.172,1.359,3.525,1.359c2.711,0,4.949-2.06,5.229-4.701
			c0.02-0.184,0.03-0.369,0.03-0.558C42.525,25.174,42.515,24.99,42.495,24.806z M37.267,29.506c-2.094,0-3.832-1.563-4.103-3.584
			c-0.025-0.181-0.04-0.369-0.04-0.558c0-0.19,0.015-0.377,0.04-0.559c0.271-2.021,2.009-3.584,4.103-3.584s3.833,1.563,4.104,3.584
			c0.025,0.182,0.039,0.369,0.039,0.559c0,0.189-0.014,0.377-0.039,0.558C41.1,27.943,39.36,29.506,37.267,29.506z"/>
		<path fill="#C93E4C" d="M33.164,24.806c-0.025,0.182-0.04,0.369-0.04,0.559c0,0.189,0.015,0.377,0.04,0.558h-5.192
			c0.025-0.181,0.039-0.369,0.039-0.558c0-0.19-0.014-0.377-0.039-0.559H33.164z"/>
	</g>
	<rect x="20.372" y="52.666" fill="#FFC03B" width="20.38" height="7.132"/>
	<g>
		<circle fill="#FFFFFF" cx="22.509" cy="54.775" r="0.907"/>
		<circle fill="#FFFFFF" cx="22.509" cy="57.688" r="0.907"/>
	</g>
</g>
</svg>
