<?xml version="1.0" encoding="utf-8"?>
<!-- Generator: Adobe Illustrator 16.0.0, SVG Export Plug-In . SVG Version: 6.00 Build 0)  -->
<!DOCTYPE svg PUBLIC "-//W3C//DTD SVG 1.1//EN" "http://www.w3.org/Graphics/SVG/1.1/DTD/svg11.dtd">
<svg version="1.1" id="Layer_1" xmlns="http://www.w3.org/2000/svg" xmlns:xlink="http://www.w3.org/1999/xlink" x="0px" y="0px"
	 width="60px" height="60px" viewBox="0 0 60 60" enable-background="new 0 0 60 60" xml:space="preserve">
<g>
	<path fill="#FFDB56" d="M17.983,29.423l-4.28,4.28l0,0c-1.934-1.935-1.934-5.07,0-7.004l4.28-4.279l0,0
		C19.917,24.354,19.917,27.489,17.983,29.423z"/>
	<path fill="#FFDB56" d="M17.983,36.393l-4.28,4.279l0,0c-1.934-1.934-1.934-5.069,0-7.003l4.28-4.28l0,0
		C19.917,31.323,19.917,34.459,17.983,36.393z"/>
	<path fill="#FFDB56" d="M17.983,43.362l-4.28,4.279l0,0c-1.934-1.934-1.934-5.069,0-7.003l4.28-4.28l0,0
		C19.917,38.293,19.917,41.428,17.983,43.362z"/>
	<path fill="#FFDB56" d="M17.983,50.331l-4.28,4.28l0,0c-1.934-1.934-1.934-5.069,0-7.003l4.28-4.28l0,0
		C19.917,45.262,19.917,48.397,17.983,50.331z"/>
	<path fill="#FFDB56" d="M19.433,53.799c0,1.269-0.484,2.534-1.45,3.503l-2.844,2.844h-2.435c-0.3-0.654-0.451-1.358-0.451-2.065
		c0-1.269,0.484-2.534,1.45-3.502l4.281-4.281C18.949,51.266,19.433,52.531,19.433,53.799z"/>
	<path fill="#FFDB56" d="M41.123,29.423l4.279,4.28l0,0c1.934-1.935,1.934-5.07,0-7.004l-4.279-4.279l0,0
		C39.189,24.354,39.189,27.489,41.123,29.423z"/>
	<path fill="#FFDB56" d="M41.123,36.393l4.279,4.279l0,0c1.934-1.934,1.934-5.069,0-7.003l-4.279-4.28l0,0
		C39.189,31.323,39.189,34.459,41.123,36.393z"/>
	<path fill="#FFDB56" d="M41.123,43.362l4.279,4.279l0,0c1.934-1.934,1.934-5.069,0-7.003l-4.279-4.28l0,0
		C39.189,38.293,39.189,41.428,41.123,43.362z"/>
	<path fill="#FFDB56" d="M41.123,50.331l4.279,4.28l0,0c1.934-1.934,1.934-5.069,0-7.003l-4.279-4.28l0,0
		C39.189,45.262,39.189,48.397,41.123,50.331z"/>
	<path fill="#FFDB56" d="M46.854,58.08c0,0.707-0.149,1.411-0.449,2.065h-2.437l-2.846-2.844c-0.968-0.969-1.449-2.234-1.449-3.503
		c0-1.268,0.481-2.533,1.449-3.502l4.281,4.281C46.372,55.546,46.854,56.812,46.854,58.08z"/>
	<path fill="#3BBEFF" d="M47.39,60.146H11.625v-0.032c0-4.183,1.558-7.998,4.127-10.903c1.648-1.868,3.714-3.358,6.052-4.321
		c1.937-0.807,4.063-1.249,6.295-1.249h2.784c2.242,0,4.377,0.445,6.328,1.257c2.338,0.971,4.404,2.462,6.052,4.33
		C45.833,52.138,47.39,55.959,47.39,60.146z"/>
	<path fill="#9BE053" d="M37.211,44.896v4.479c0,4.251-3.456,7.703-7.704,7.703s-7.703-3.452-7.703-7.703v-4.486
		c1.937-0.807,4.063-1.249,6.295-1.249h2.784C33.125,43.64,35.26,44.085,37.211,44.896z"/>
	<circle fill="#FFDB56" cx="29.508" cy="18.425" r="18.248"/>
	<path fill="#F59055" d="M29.507,50.482L29.507,50.482c-3.039,0-5.502-2.464-5.502-5.502v-5.434H35.01v5.434
		C35.01,48.019,32.547,50.482,29.507,50.482z"/>
	<path fill="#FFA870" d="M29.507,42.573L29.507,42.573c-7.597,0-13.755-6.158-13.755-13.756V17.293c0-5.031,4.078-9.109,9.109-9.109
		h9.293c5.03,0,9.108,4.079,9.108,9.109v11.524C43.263,36.415,37.104,42.573,29.507,42.573z"/>
	<circle fill="#7A2F45" cx="22.492" cy="23.261" r="1.651"/>
	<circle fill="#7A2F45" cx="36.523" cy="23.261" r="1.651"/>
	<path fill="#F57355" d="M32.258,26.617h-5.501v-2.671c0-1.52,1.231-2.751,2.751-2.751l0,0c1.519,0,2.75,1.231,2.75,2.751V26.617z"
		/>
	<path fill="#A12D37" d="M37.761,28.817c0,0.972-0.159,1.898-0.457,2.751c-0.69,2.006-2.121,3.629-3.958,4.575
		c-1.147,0.598-2.454,0.927-3.838,0.927c-1.406,0-2.732-0.341-3.893-0.954c-1.813-0.952-3.221-2.562-3.903-4.548
		c-0.297-0.853-0.457-1.779-0.457-2.751H37.761z"/>
	<path fill="#FFFFFF" d="M37.761,28.817c0,0.972-0.159,1.898-0.457,2.751H21.711c-0.297-0.853-0.457-1.779-0.457-2.751H37.761z"/>
	<path fill="#C93945" d="M33.346,36.144c-1.147,0.598-2.454,0.927-3.838,0.927c-1.406,0-2.732-0.341-3.893-0.954
		c0.6-1.546,2.102-2.639,3.86-2.639C31.24,33.478,32.751,34.584,33.346,36.144z"/>
	<path fill="#3BBEFF" d="M15.752,49.21v10.937h-4.127v-0.033C11.625,55.932,13.183,52.115,15.752,49.21z"/>
	<path fill="#3BBEFF" d="M47.391,60.146h-4.127v-10.92C45.833,52.138,47.391,55.959,47.391,60.146z"/>
	<path fill="#FFDB56" d="M47.756,18.425c0,2.259-0.411,4.425-1.161,6.422l-1.881-0.505L29.507,9.136L14.009,24.637l-1.586,0.211
		c-0.753-1.997-1.164-4.164-1.164-6.422c0-10.079,8.17-18.249,18.249-18.249C39.586,0.176,47.756,8.346,47.756,18.425z"/>
</g>
</svg>
