<?xml version="1.0" encoding="utf-8"?>
<!-- Generator: Adobe Illustrator 16.0.0, SVG Export Plug-In . SVG Version: 6.00 Build 0)  -->
<!DOCTYPE svg PUBLIC "-//W3C//DTD SVG 1.1//EN" "http://www.w3.org/Graphics/SVG/1.1/DTD/svg11.dtd">
<svg version="1.1" id="Layer_1" xmlns="http://www.w3.org/2000/svg" xmlns:xlink="http://www.w3.org/1999/xlink" x="0px" y="0px"
	 width="60px" height="60px" viewBox="0 0 60 60" enable-background="new 0 0 60 60" xml:space="preserve">
<g>
	<path fill="#FFA870" d="M49.609,57.241v2.993H11.655v-2.993c0-4.659,2.216-8.788,5.641-11.438c0.622-0.479,1.281-0.911,1.977-1.29
		c2.102-1.145,4.517-1.796,7.074-1.796h8.759c2.501,0,4.849,0.625,6.896,1.726c0.697,0.373,1.357,0.803,1.977,1.284
		C47.414,48.372,49.609,52.535,49.609,57.241z"/>
	<path fill="#34283B" d="M30.799,48.775h-0.266c-3.158,0-5.741-2.584-5.741-5.741V37.17h11.679v5.933
		C36.471,46.235,33.931,48.775,30.799,48.775z"/>
	<g>
		<path fill="#F59055" d="M16.401,18.192h10.435v7.591H16.401c-2.099,0-3.801-1.702-3.801-3.801v0.005
			C12.6,19.889,14.302,18.192,16.401,18.192z"/>
		<path fill="#F59055" d="M45.049,18.192H34.427v7.591h10.622c2.099,0,3.801-1.702,3.801-3.801v0.005
			C48.85,19.889,47.147,18.192,45.049,18.192z"/>
	</g>
	<path fill="#574B69" d="M45.229,15.578v10.325c0,1.168-0.09,2.303-0.35,3.39c-0.293,1.238-0.722,2.412-1.309,3.503
		c-2.461,4.587-7.29,7.705-12.857,7.705s-10.402-3.118-12.863-7.705c-0.587-1.092-1.084-2.266-1.376-3.503
		c-0.26-1.086-0.441-2.222-0.441-3.39V15.578c0-8.064,6.584-15.382,14.645-15.382c4.033,0,7.659,1.632,10.298,4.274
		C43.618,7.112,45.229,11.546,45.229,15.578z"/>
	<path fill="#F59055" d="M23.245,22.877c-1.771,0-3.211-1.44-3.211-3.211s1.44-3.211,3.211-3.211c1.771,0,3.212,1.44,3.212,3.211
		S25.016,22.877,23.245,22.877z"/>
	<circle fill="#7A2F45" cx="23.245" cy="19.666" r="1.752"/>
	<path fill="#F59055" d="M38.204,22.877c-1.771,0-3.212-1.44-3.212-3.211s1.441-3.211,3.212-3.211s3.212,1.44,3.212,3.211
		S39.975,22.877,38.204,22.877z"/>
	<circle fill="#7A2F45" cx="38.204" cy="19.666" r="1.752"/>
	<path fill="#F59055" d="M33.551,23.447h-5.839v-2.834c0-1.612,1.325-2.919,2.937-2.919h-0.008c1.611,0,2.91,1.307,2.91,2.919
		V23.447z"/>
	<path fill="#F59055" d="M30.667,36.432c-2.97,0-5.387-2.417-5.387-5.388c0-2.97,2.417-5.387,5.387-5.387
		c2.97,0,5.387,2.417,5.387,5.387C36.054,34.015,33.637,36.432,30.667,36.432z"/>
	<path fill="#34283B" d="M44.927,29.287c-0.292,1.168-0.745,2.335-1.331,3.503h-25.74c-0.586-1.168-1.039-2.335-1.331-3.503H44.927z
		"/>
	<circle fill="#FF3647" cx="30.667" cy="31.045" r="3.927"/>
	<circle fill="#FFFAF1" cx="31.689" cy="29.604" r="1.263"/>
	<g>
		<g>
			<circle fill="#FFFAF1" cx="19.189" cy="31.045" r="0.62"/>
			<circle fill="#FFFAF1" cx="21.872" cy="31.045" r="0.62"/>
			<circle fill="#FFFAF1" cx="24.554" cy="31.045" r="0.62"/>
		</g>
		<g>
			<circle fill="#FFFAF1" cx="36.78" cy="31.045" r="0.62"/>
			<circle fill="#FFFAF1" cx="39.462" cy="31.045" r="0.621"/>
			<circle fill="#FFFAF1" cx="42.145" cy="31.045" r="0.62"/>
		</g>
	</g>
	<path fill="#FFFFFF" d="M23.532,50.077c-0.435-0.879-1.305-1.399-2.222-1.419h-0.058c-0.38,0-0.762,0.085-1.118,0.26
		c-0.38,0.184-0.692,0.455-0.925,0.773c-0.546,0.739-0.666,1.746-0.237,2.625c0.435,0.882,1.305,1.398,2.222,1.419h0.059
		c0.379,0,0.759-0.085,1.118-0.26c0.379-0.184,0.692-0.456,0.925-0.774C23.841,51.963,23.961,50.956,23.532,50.077z M21.958,52.635
		c-0.222,0.11-0.458,0.163-0.707,0.163c-0.198,0-0.391-0.035-0.569-0.102c-0.371-0.141-0.683-0.418-0.87-0.791
		c-0.178-0.368-0.213-0.78-0.093-1.168c0.006-0.021,0.012-0.038,0.018-0.059c0.137-0.403,0.423-0.73,0.809-0.92
		c0.222-0.108,0.458-0.163,0.707-0.163c0.198,0,0.391,0.037,0.569,0.102c0.374,0.141,0.686,0.418,0.867,0.792
		c0.187,0.379,0.21,0.793,0.096,1.167C22.662,52.071,22.373,52.431,21.958,52.635z"/>
	<path fill="#34283B" d="M21.821,49.697c-0.178-0.064-0.371-0.102-0.569-0.102c-0.248,0-0.485,0.055-0.707,0.163
		c-0.385,0.189-0.671,0.517-0.809,0.92c-0.006,0.021-0.012,0.038-0.018,0.059l-0.511-1.046l-1.913-3.889
		c0.622-0.479,1.281-0.911,1.977-1.29l2.038,4.146L21.821,49.697z"/>
	<path fill="#34283B" d="M25.561,57.314l1.437,2.92h-2.61l-1.437-2.92l-1.758-3.579l-0.511-1.039
		c0.178,0.066,0.371,0.102,0.569,0.102c0.248,0,0.484-0.053,0.707-0.163c0.415-0.204,0.704-0.563,0.826-0.979l0.511,1.045
		L25.561,57.314z"/>
	<circle fill="#FFFAF1" cx="23.064" cy="54.887" r="0.498"/>
	<circle fill="#FFFAF1" cx="19.438" cy="47.507" r="0.498"/>
	<path fill="#FFFFFF" d="M42.03,49.691c-0.236-0.318-0.546-0.59-0.926-0.773c-0.358-0.175-0.741-0.26-1.118-0.26h-0.059
		c-0.917,0.02-1.789,0.54-2.222,1.419c-0.432,0.879-0.31,1.886,0.233,2.624c0.234,0.318,0.547,0.591,0.926,0.774
		c0.359,0.175,0.741,0.26,1.118,0.26h0.059c0.917-0.021,1.787-0.537,2.222-1.419C42.696,51.438,42.573,50.431,42.03,49.691z
		 M41.423,51.905c-0.187,0.373-0.496,0.65-0.87,0.791c-0.178,0.066-0.371,0.102-0.569,0.102c-0.245,0-0.481-0.053-0.706-0.163
		c-0.415-0.204-0.704-0.563-0.824-0.979c-0.116-0.374-0.093-0.788,0.094-1.167c0.181-0.374,0.493-0.651,0.87-0.792
		c0.178-0.064,0.368-0.102,0.569-0.102c0.245,0,0.481,0.055,0.704,0.163c0.385,0.189,0.671,0.517,0.809,0.92
		c0.009,0.021,0.012,0.038,0.018,0.059C41.636,51.125,41.601,51.537,41.423,51.905z"/>
	<path fill="#34283B" d="M43.978,45.727l-1.947,3.965l-0.514,1.046c-0.006-0.021-0.009-0.038-0.018-0.059
		c-0.138-0.403-0.424-0.73-0.809-0.92c-0.223-0.108-0.459-0.163-0.704-0.163c-0.201,0-0.392,0.037-0.569,0.102l0.511-1.039
		l2.073-4.216C42.698,44.815,43.358,45.245,43.978,45.727z"/>
	<path fill="#34283B" d="M40.553,52.696l-0.511,1.039l-1.758,3.579l-1.437,2.92h-2.609l1.436-2.92l2.266-4.613l0.514-1.045
		c0.12,0.415,0.409,0.774,0.824,0.979c0.225,0.11,0.461,0.163,0.706,0.163C40.182,52.798,40.375,52.763,40.553,52.696z"/>
	<circle fill="#FFFAF1" cx="38.171" cy="54.887" r="0.498"/>
	<circle fill="#FFFAF1" cx="41.797" cy="47.507" r="0.498"/>
	<rect x="11.655" y="57.314" fill="#34283B" width="37.955" height="2.92"/>
	<circle fill="#FFFAF1" cx="24.974" cy="58.774" r="0.498"/>
	<circle fill="#FFFAF1" cx="36.261" cy="58.774" r="0.498"/>
</g>
</svg>
