<?xml version="1.0" encoding="utf-8"?>
<!-- Generator: Adobe Illustrator 16.0.0, SVG Export Plug-In . SVG Version: 6.00 Build 0)  -->
<!DOCTYPE svg PUBLIC "-//W3C//DTD SVG 1.1//EN" "http://www.w3.org/Graphics/SVG/1.1/DTD/svg11.dtd">
<svg version="1.1" id="Layer_1" xmlns="http://www.w3.org/2000/svg" xmlns:xlink="http://www.w3.org/1999/xlink" x="0px" y="0px"
	 width="60px" height="60px" viewBox="0 0 60 60" enable-background="new 0 0 60 60" xml:space="preserve">
<g>
	<path fill="#BABABA" d="M46.424,57.28v2.83H10.524v-2.83c0-3.853,1.588-7.318,4.142-9.807c1.19-1.159,2.593-2.106,4.142-2.78
		c1.704-0.74,3.584-1.152,5.559-1.152h8.285c1.952,0,3.808,0.401,5.486,1.127c1.553,0.668,2.952,1.61,4.143,2.771
		C44.839,49.927,46.424,53.408,46.424,57.28z"/>
	<path fill="#644B6E" d="M18.809,44.693V60.11h-4.142V47.474C15.856,46.314,17.26,45.367,18.809,44.693z"/>
	<path fill="#644B6E" d="M42.281,47.438V60.11h-4.143V44.668C39.691,45.336,41.091,46.278,42.281,47.438z"/>
	<path fill="#AD4D18" d="M14.687,31.115c-2.894,0-5.25-2.354-5.252-5.247v-0.005c0.004-2.892,2.359-5.242,5.252-5.242h11.579v10.494
		H14.687z"/>
	<g>
		<polygon fill="#AD4D18" points="47.058,23.574 42.546,14.345 39.404,16.882 39.404,23.574 		"/>
		<path fill="#AD4D18" d="M30.685,31.115V20.622h11.651c2.893,0,5.249,2.351,5.252,5.242c0,0,0,0,0,0.001
			c-0.002,2.896-2.358,5.251-5.252,5.251H30.685z"/>
		<g>
			<polygon fill="#AD4D18" points="9.964,23.574 14.476,14.345 17.618,16.882 17.618,23.574 			"/>
			<path fill="#AD4D18" d="M26.338,31.115V20.622H14.687c-2.894,0-5.25,2.351-5.252,5.242c0,0,0,0,0,0.001
				c0.002,2.896,2.358,5.251,5.252,5.251H26.338z"/>
		</g>
	</g>
	<g>
		<polygon fill="#AD4D18" points="47.058,31.359 42.546,22.132 39.404,24.668 39.404,31.359 		"/>
		<path fill="#AD4D18" d="M30.685,38.901V28.408h11.651c2.893,0,5.249,2.351,5.252,5.242v0.001
			c-0.002,2.896-2.358,5.251-5.252,5.251H30.685z"/>
		<g>
			<polygon fill="#AD4D18" points="9.964,31.359 14.476,22.132 17.618,24.668 17.618,31.359 			"/>
			<path fill="#AD4D18" d="M26.338,38.901V28.408H14.687c-2.894,0-5.25,2.351-5.252,5.242v0.001
				c0.002,2.896,2.358,5.251,5.252,5.251H26.338z"/>
		</g>
	</g>
	<g>
		<polygon fill="#AD4D18" points="47.058,38.79 42.546,29.562 39.404,32.098 39.404,38.79 		"/>
		<path fill="#AD4D18" d="M30.685,46.331V35.838h11.651c2.893,0,5.249,2.351,5.252,5.241c0,0,0,0.001,0,0.002
			c-0.002,2.896-2.358,5.25-5.252,5.25H30.685z"/>
		<g>
			<polygon fill="#AD4D18" points="9.964,38.79 14.476,29.562 17.618,32.098 17.618,38.79 			"/>
			<path fill="#AD4D18" d="M26.338,46.331V35.838H14.687c-2.894,0-5.25,2.351-5.252,5.241c0,0,0,0.001,0,0.002
				c0.002,2.896,2.358,5.25,5.252,5.25H26.338z"/>
		</g>
	</g>
	<rect x="14.668" y="10.628" fill="#FFA870" width="27.614" height="26.631"/>
	<path fill="#F59055" d="M14.687,22.278h9.922v7.18h-9.922c-1.986,0-3.596-1.609-3.596-3.595v0.005
		C11.091,23.883,12.701,22.278,14.687,22.278z"/>
	<path fill="#F59055" d="M42.336,22.278h-9.994v7.18h9.994c1.985,0,3.595-1.609,3.595-3.595v0.005
		C45.931,23.883,44.321,22.278,42.336,22.278z"/>
	<path fill="#FFA870" d="M42.282,20.735v6.903c0,7.625-6.183,13.808-13.807,13.808c-7.625,0-13.808-6.184-13.808-13.808v-6.903
		c0-7.627,6.201-13.808,13.825-13.808c3.813,0,7.257,1.543,9.753,4.043C40.745,13.469,42.282,16.921,42.282,20.735z"/>
	<path fill="#F59055" d="M28.489,49.271L28.489,49.271c-3.058,0-5.537-2.479-5.537-5.536v-5.44h11.046v5.468
		C33.998,46.805,31.531,49.271,28.489,49.271z"/>
	<g>
		<path fill="#7A2F45" d="M23.628,22.278h-4.695c0-1.296,1.051-2.347,2.348-2.347S23.628,20.982,23.628,22.278z"/>
		<path fill="#7A2F45" d="M38.017,22.278h-4.694c0-1.296,1.051-2.347,2.348-2.347S38.017,20.982,38.017,22.278z"/>
	</g>
	<path fill="#C75B20" d="M42.311,29.458L42.311,29.458H14.668l0,0c0-2.897,2.349-5.247,5.247-5.247h17.149
		C39.961,24.211,42.311,26.561,42.311,29.458z"/>
	<path fill="#F57355" d="M31.236,25.316h-5.522v-2.688c0-1.522,1.233-2.755,2.754-2.755l0,0c1.529,0,2.768,1.24,2.768,2.769V25.316z
		"/>
	<path fill="#C75B20" d="M28.476,54.312L28.476,54.312c-7.626,0-13.808-6.182-13.808-13.808V29.458h27.614v11.046
		C42.282,48.13,36.101,54.312,28.476,54.312z"/>
	<path fill="#382A3D" d="M44.216,15.703H12.735c0-8.695,7.071-15.741,15.762-15.741c4.348,0,8.271,1.76,11.116,4.609
		C42.462,7.42,44.216,11.355,44.216,15.703z"/>
	<rect x="10.802" y="10.628" fill="#241C29" width="35.347" height="7.732"/>
	<path fill="#AD4D18" d="M46.188,18.361H35.67v-1.107c0-2.215,1.795-4.011,4.011-4.011h10.518v1.107
		C50.198,16.566,48.402,18.361,46.188,18.361z"/>
	<g>
		<path fill="#A12D37" d="M36.773,29.458c0,0.975-0.16,1.905-0.459,2.762c-0.693,2.013-2.129,3.643-3.973,4.592
			c-1.152,0.6-2.464,0.931-3.853,0.931c-1.411,0-2.742-0.343-3.907-0.958c-1.82-0.955-3.234-2.571-3.918-4.564
			c-0.298-0.856-0.458-1.787-0.458-2.762H36.773z"/>
		<path fill="#FFFFFF" d="M36.773,29.458c0,0.975-0.16,1.905-0.459,2.762H20.663c-0.298-0.856-0.458-1.787-0.458-2.762H36.773z"/>
		<path fill="#C93945" d="M32.342,36.812c-1.152,0.6-2.464,0.931-3.853,0.931c-1.411,0-2.742-0.343-3.907-0.958
			c0.602-1.552,2.11-2.647,3.875-2.647C30.229,34.137,31.744,35.246,32.342,36.812z"/>
	</g>
	<circle fill="#AD4D18" cx="40.685" cy="15.254" r="2.071"/>
</g>
</svg>
