<?xml version="1.0" encoding="utf-8"?>
<!-- Generator: Adobe Illustrator 16.0.0, SVG Export Plug-In . SVG Version: 6.00 Build 0)  -->
<!DOCTYPE svg PUBLIC "-//W3C//DTD SVG 1.1//EN" "http://www.w3.org/Graphics/SVG/1.1/DTD/svg11.dtd">
<svg version="1.1" id="Layer_1" xmlns="http://www.w3.org/2000/svg" xmlns:xlink="http://www.w3.org/1999/xlink" x="0px" y="0px"
	 width="60px" height="60px" viewBox="0 0 60 60" enable-background="new 0 0 60 60" xml:space="preserve">
<g>
	<path fill="#E82247" d="M47.929,56.974V60H9.541v-3.026c0-4.335,1.881-8.215,4.866-10.896c0.166-0.147,0.333-0.292,0.505-0.431
		c0.502-0.414,1.031-0.792,1.583-1.135c0.18-0.111,0.363-0.219,0.549-0.324c2.155-1.214,4.648-1.904,7.299-1.904h8.859
		c2.628,0,5.094,0.679,7.226,1.875c0.186,0.103,0.371,0.212,0.552,0.324c0.552,0.343,1.081,0.721,1.583,1.131
		c0.171,0.14,0.34,0.284,0.505,0.435C46.057,48.729,47.929,52.621,47.929,56.974z"/>
	<path fill="#BF593A" d="M37.622,42.919c-0.198,4.71-4.093,8.463-8.85,8.463c-4.757,0-8.652-3.743-8.85-8.453
		c1.396-0.438,2.879-0.646,4.42-0.646h8.858C34.743,42.283,36.226,42.482,37.622,42.919z"/>
	<g>
		<g>
			<path fill="#FFDB56" d="M18.06,47.56l-0.564,0.184l-1.695,0.552l-0.567,0.183c-0.34-0.768-0.617-1.57-0.827-2.4
				c0.166-0.147,0.333-0.292,0.505-0.431c0.502-0.414,1.031-0.792,1.583-1.135c0.18-0.111,0.363-0.219,0.549-0.324
				c0.026,0.191,0.059,0.384,0.094,0.569C17.331,45.74,17.644,46.68,18.06,47.56z"/>
			<path fill="#FFDB56" d="M20.148,50.604l-2.404,1.744c-0.659-0.731-1.243-1.529-1.745-2.383l2.404-1.745
				C18.884,49.089,19.472,49.89,20.148,50.604z"/>
			<path fill="#FFDB56" d="M23.062,52.86l-1.746,2.403c-0.856-0.499-1.656-1.081-2.389-1.736l1.745-2.4
				C21.391,51.8,22.194,52.382,23.062,52.86z"/>
			<path fill="#FFDB56" d="M26.529,54.106l-0.918,2.826c-0.975-0.21-1.917-0.518-2.809-0.913l0.918-2.826
				C24.604,53.61,25.546,53.92,26.529,54.106z"/>
			<path fill="#FFDB56" d="M30.211,54.225v2.971c-0.481,0.05-0.966,0.073-1.459,0.073c-0.505,0-1.004-0.026-1.494-0.077v-2.967
				c0.487,0.059,0.983,0.092,1.485,0.092C29.24,54.316,29.73,54.286,30.211,54.225z"/>
			<path fill="#FFDB56" d="M34.67,56.025c-0.895,0.396-1.834,0.703-2.811,0.913l-0.918-2.829c0.985-0.187,1.928-0.493,2.811-0.91
				L34.67,56.025z"/>
			<path fill="#FFDB56" d="M38.547,53.533c-0.734,0.652-1.535,1.237-2.389,1.736l-1.748-2.406c0.868-0.479,1.672-1.061,2.39-1.736
				L38.547,53.533z"/>
			<path fill="#FFDB56" d="M41.471,49.969c-0.499,0.854-1.084,1.651-1.742,2.384l-2.403-1.748c0.676-0.715,1.264-1.516,1.742-2.381
				L41.471,49.969z"/>
			<path fill="#FFDB56" d="M43.068,46.048c-0.204,0.841-0.484,1.656-0.833,2.434l-0.564-0.184l-1.697-0.555l-0.564-0.184
				c0.42-0.88,0.732-1.819,0.922-2.803c0.038-0.197,0.073-0.398,0.098-0.599c0.186,0.103,0.371,0.212,0.552,0.324
				c0.552,0.343,1.081,0.721,1.583,1.131C42.734,45.753,42.903,45.897,43.068,46.048z"/>
		</g>
		<path fill="#FFDB56" d="M42.563,45.613c-0.207,0.934-0.511,1.831-0.893,2.685c-0.203,0.455-0.431,0.897-0.682,1.323
			c-0.496,0.856-1.081,1.653-1.739,2.383c-0.33,0.366-0.682,0.718-1.051,1.048c-0.732,0.659-1.533,1.243-2.392,1.736
			c-0.426,0.248-0.868,0.473-1.32,0.673c-0.892,0.399-1.834,0.706-2.812,0.913c-0.481,0.101-0.969,0.178-1.464,0.228
			c-0.479,0.05-0.966,0.076-1.459,0.076c-0.505,0-1.004-0.026-1.494-0.079c-0.497-0.051-0.984-0.127-1.465-0.23
			c-0.978-0.207-1.917-0.514-2.809-0.912c-0.452-0.201-0.892-0.426-1.32-0.674c-0.856-0.493-1.657-1.078-2.389-1.733
			c-0.369-0.33-0.721-0.682-1.051-1.048c-0.662-0.729-1.246-1.529-1.742-2.387c-0.251-0.425-0.479-0.865-0.682-1.319
			c-0.381-0.842-0.679-1.728-0.889-2.648c0.502-0.414,1.031-0.792,1.583-1.135c0.186,1.138,0.525,2.221,1.001,3.231
			c0.13,0.283,0.271,0.558,0.425,0.826c0.484,0.865,1.072,1.662,1.745,2.383c0.209,0.225,0.428,0.446,0.656,0.656
			c0.723,0.667,1.526,1.252,2.392,1.733c0.269,0.15,0.543,0.292,0.824,0.419c0.883,0.41,1.825,0.721,2.809,0.912
			c0.301,0.06,0.605,0.109,0.913,0.145c0.487,0.06,0.983,0.089,1.485,0.089c0.496,0,0.986-0.029,1.467-0.089
			c0.307-0.035,0.614-0.082,0.913-0.142c0.983-0.191,1.925-0.499,2.812-0.909c0.279-0.13,0.555-0.269,0.823-0.422
			c0.865-0.481,1.668-1.063,2.392-1.733c0.228-0.213,0.446-0.432,0.659-0.655c0.67-0.721,1.255-1.519,1.738-2.384
			c0.154-0.269,0.296-0.546,0.426-0.829c0.479-1.019,0.821-2.115,1.007-3.261C41.532,44.825,42.062,45.203,42.563,45.613z"/>
	</g>
	<path fill="#96442B" d="M28.925,48.41H28.57c-3.171,0-5.743-2.571-5.743-5.742v-5.996h11.811v6.024
		C34.639,45.852,32.081,48.41,28.925,48.41z"/>
	<path fill="#003166" d="M13.969,18.756v1.756c0,2.196-1.781,3.978-3.978,3.978H8.235v-1.756c0-2.196,1.782-3.978,3.978-3.978
		H13.969z"/>
	<path fill="#003166" d="M9.41,14.197h1.396c1.747,0,3.163,1.416,3.163,3.163v1.396h-1.396c-1.747,0-3.164-1.417-3.164-3.163V14.197
		z"/>
	<g>
		<path fill="#96442B" d="M14.285,21.04h10.61v7.677h-10.61c-2.123,0-3.844-1.721-3.844-3.844v0.006
			C10.44,22.755,12.162,21.04,14.285,21.04z"/>
		<path fill="#96442B" d="M43.26,21.04H32.572v7.677H43.26c2.123,0,3.845-1.721,3.845-3.844v0.006
			C47.104,22.755,45.383,21.04,43.26,21.04z"/>
	</g>
	<path fill="#BF593A" d="M43.498,19.667v7.382c0,8.153-6.611,14.765-14.764,14.765s-14.765-6.611-14.765-14.765v-7.382
		c0-8.156,6.631-14.764,14.784-14.764c4.078,0,7.759,1.65,10.429,4.323C41.854,11.897,43.498,15.589,43.498,19.667z"/>
	<circle fill="#66273A" cx="21.204" cy="20.981" r="2.464"/>
	<circle fill="#66273A" cx="36.669" cy="20.981" r="2.464"/>
	<path fill="#96442B" d="M31.687,26.355h-5.906v-5.82h5.896c0.005,0,0.01,0.004,0.01,0.01V26.355z"/>
	<rect x="13.969" y="16.364" fill="#0053AD" width="29.529" height="4.617"/>
	<path fill="#382A3D" d="M43.497,10.04v6.325H13.968V10.04c0-5.655,4.583-10.238,10.238-10.238h9.057
		C38.915-0.198,43.497,4.385,43.497,10.04z"/>
	<path fill="#241C29" d="M43.497,10.04v6.325H21.203V10.04c0-5.655,4.583-10.238,10.238-10.238h1.822
		C38.915-0.198,43.497,4.385,43.497,10.04z"/>
	<rect x="21.203" y="14.001" fill="#241C29" width="30.933" height="2.362"/>
	<rect x="11.607" y="24.879" fill="#FFDB56" width="2.362" height="4.872"/>
	<polygon fill="#FFFAF1" points="36.67,28.776 36.67,33.888 25.78,33.888 25.78,29.981 31.945,29.299 34.309,29.039 	"/>
	<polygon fill="#FFC03B" points="34.309,29.039 34.309,31.629 31.945,31.629 31.945,29.299 	"/>
</g>
</svg>
