<?xml version="1.0" encoding="utf-8"?>
<!-- Generator: Adobe Illustrator 16.0.0, SVG Export Plug-In . SVG Version: 6.00 Build 0)  -->
<!DOCTYPE svg PUBLIC "-//W3C//DTD SVG 1.1//EN" "http://www.w3.org/Graphics/SVG/1.1/DTD/svg11.dtd">
<svg version="1.1" id="Layer_1" xmlns="http://www.w3.org/2000/svg" xmlns:xlink="http://www.w3.org/1999/xlink" x="0px" y="0px"
	 width="60px" height="60px" viewBox="0 0 60 60" enable-background="new 0 0 60 60" xml:space="preserve">
<g>
	<path fill="#2EC945" d="M48.954,56.923v2.974H11.237v-2.974c0-4.75,2.298-8.966,5.829-11.608c0.496-0.374,1.016-0.714,1.555-1.019
		c0.879-0.502,1.825-0.873,2.809-1.181c1.372-0.43,2.837-0.627,4.352-0.627h8.704c1.515,0,2.971,0.197,4.344,0.627
		c0.983,0.308,1.903,0.696,2.782,1.198c0.527,0.299,1.035,0.63,1.517,0.989C46.671,47.942,48.954,52.158,48.954,56.923z"/>
	<path fill="#FFDB56" d="M43.128,45.303c-0.405,6.836-6.095,12.272-13.032,12.272c-6.931,0-12.621-5.431-13.03-12.261
		c0.496-0.374,1.016-0.714,1.555-1.019c0.879-0.502,1.825-0.873,2.809-1.181c1.372-0.43,2.837-0.627,4.352-0.627h8.704
		c1.515,0,2.971,0.197,4.344,0.627c0.983,0.308,1.903,0.696,2.782,1.198C42.139,44.612,42.646,44.943,43.128,45.303z"/>
	<circle fill="#F59055" cx="30.096" cy="44.52" r="8.704"/>
	<path fill="#BF571F" d="M51.878,41.92H8.315l0,0c2.492-3.344,3.838-7.402,3.838-11.573V23.99h35.886v6.357
		C48.039,34.518,49.386,38.576,51.878,41.92L51.878,41.92z"/>
	<path fill="#F58A4C" d="M14.159,23.221h10.425v7.543H14.159c-2.086,0-3.777-1.691-3.777-3.777v0.005
		C10.381,24.907,12.073,23.221,14.159,23.221z"/>
	<path fill="#F58A4C" d="M46.108,23.221h-10.5v7.543h10.5c2.086,0,3.777-1.691,3.777-3.777v0.005
		C49.886,24.907,48.194,23.221,46.108,23.221z"/>
	<path fill="#FFA870" d="M30.101,46.839L30.101,46.839c-10.571,0-18.553-9.584-16.64-19.98l1.217-6.611
		c1.369-7.439,7.854-12.84,15.418-12.84l0,0c7.563,0,14.049,5.401,15.418,12.841l1.218,6.622
		C48.643,37.26,40.665,46.839,30.101,46.839z"/>
	<g>
		<path fill="#A12D37" d="M36.212,31.426c0,0.754-0.124,1.474-0.354,2.136c-0.535,1.557-1.646,2.816-3.072,3.551
			c-0.891,0.464-1.905,0.72-2.979,0.72c-1.091,0-2.121-0.265-3.022-0.741c-1.407-0.738-2.5-1.987-3.03-3.529
			c-0.231-0.662-0.354-1.382-0.354-2.136H36.212z"/>
		<path fill="#FFFFFF" d="M36.212,31.426c0,0.754-0.124,1.474-0.354,2.136H23.754c-0.231-0.662-0.354-1.382-0.354-2.136H36.212z"/>
		<path fill="#C93945" d="M32.785,37.112c-0.891,0.464-1.905,0.72-2.979,0.72c-1.091,0-2.121-0.265-3.022-0.741
			c0.466-1.2,1.632-2.047,2.996-2.047C31.151,35.044,32.323,35.901,32.785,37.112z"/>
	</g>
	<rect x="27.195" y="22.726" fill="#FF8366" width="5.802" height="5.718"/>
	<circle fill="#7A2F45" cx="22.697" cy="24.904" r="1.741"/>
	<circle fill="#7A2F45" cx="37.494" cy="24.904" r="1.741"/>
	<path fill="#BF571F" d="M38.866,12.572H21.326c-3.463,0-6.271-2.807-6.271-6.271l0,0c0-3.463,2.808-6.271,6.271-6.271h17.541
		c3.464,0,6.271,2.808,6.271,6.271l0,0C45.138,9.765,42.33,12.572,38.866,12.572z"/>
	<path fill="#BF571F" d="M48.039,23.989H12.154v-1.096c0-6.321,5.125-11.445,11.445-11.445h12.995
		c6.321,0,11.445,5.124,11.445,11.445V23.989z"/>
	<rect x="17.482" y="11.258" fill="#FF4D60" width="25.265" height="1.962"/>
	<polygon fill="#FFDB56" points="34.746,59.896 25.445,59.896 30.096,53.215 	"/>
	<g>
		<path fill="#FFDB56" d="M36.318,14.54V9.939c0-0.649,0.526-1.175,1.176-1.175l0,0c0.649,0,1.176,0.526,1.176,1.175v4.601
			c0,0.649-0.526,1.176-1.176,1.176l0,0C36.845,15.715,36.318,15.189,36.318,14.54z"/>
		<path fill="#FFDB56" d="M38.898,14.408l-3.984-2.3c-0.562-0.325-0.754-1.043-0.43-1.606l0,0c0.324-0.562,1.043-0.755,1.605-0.431
			l3.984,2.301c0.562,0.324,0.755,1.044,0.43,1.606l0,0C40.18,14.54,39.461,14.732,38.898,14.408z"/>
		<path fill="#FFDB56" d="M40.074,12.107l-3.984,2.3c-0.562,0.325-1.281,0.132-1.605-0.43l0,0c-0.324-0.562-0.133-1.282,0.43-1.606
			l3.984-2.301c0.562-0.324,1.281-0.132,1.605,0.431l0,0C40.829,11.064,40.637,11.783,40.074,12.107z"/>
	</g>
	<circle fill="#FFFFFF" cx="37.494" cy="12.239" r="1.375"/>
</g>
</svg>
