<?xml version="1.0" encoding="utf-8"?>
<!-- Generator: Adobe Illustrator 16.0.0, SVG Export Plug-In . SVG Version: 6.00 Build 0)  -->
<!DOCTYPE svg PUBLIC "-//W3C//DTD SVG 1.1//EN" "http://www.w3.org/Graphics/SVG/1.1/DTD/svg11.dtd">
<svg version="1.1" id="Layer_1" xmlns="http://www.w3.org/2000/svg" xmlns:xlink="http://www.w3.org/1999/xlink" x="0px" y="0px"
	 width="60px" height="60px" viewBox="0 0 60 60" enable-background="new 0 0 60 60" xml:space="preserve">
<g>
	<path fill="#E3E3E3" d="M48.043,56.836v2.905H11.202v-2.905c0-3.953,1.629-7.51,4.251-10.063c1.221-1.189,2.661-2.162,4.251-2.854
		c1.083-0.47,2.233-0.811,3.435-1.003c0.74-0.119,1.499-0.179,2.27-0.179h8.502c0.745,0,1.479,0.057,2.196,0.164
		c1.201,0.19,2.355,0.524,3.435,0.992c1.593,0.686,3.03,1.652,4.251,2.843C46.416,49.289,48.043,52.863,48.043,56.836z"/>
	<path fill="#FE932E" d="M23.139,42.916v16.825h-7.686V46.772c1.221-1.189,2.661-2.162,4.251-2.854
		C20.787,43.449,21.937,43.108,23.139,42.916z"/>
	<path fill="#F27501" d="M43.792,46.736v13.005h-7.686v-16.84c1.201,0.19,2.355,0.524,3.435,0.992
		C41.134,44.579,42.571,45.546,43.792,46.736z"/>
	<circle fill="#FFFFFF" cx="29.623" cy="55.632" r="0.945"/>
	<path fill="#96442B" d="M15.472,24.723h10.183v7.368H15.472c-2.038,0-3.689-1.652-3.689-3.689v0.005
		C11.783,26.369,13.435,24.723,15.472,24.723z"/>
	<path fill="#96442B" d="M43.847,24.723H33.59v7.368h10.257c2.037,0,3.689-1.652,3.689-3.689v0.005
		C47.536,26.369,45.884,24.723,43.847,24.723z"/>
	<path fill="#BF593A" d="M43.791,8.97v21.254c0,7.825-6.346,14.169-14.17,14.169s-14.169-6.345-14.169-14.169V8.97H43.791z"/>
	<g>
		<path fill="#66273A" d="M24.648,24.723h-4.818c0-1.33,1.079-2.409,2.409-2.409C23.57,22.314,24.648,23.393,24.648,24.723z"/>
		<path fill="#66273A" d="M39.414,24.723h-4.817c0-1.33,1.078-2.409,2.409-2.409C38.336,22.314,39.414,23.393,39.414,24.723z"/>
	</g>
	<path fill="#3D2F45" d="M43.82,32.091L43.82,32.091H15.453l0,0c0-2.974,2.411-5.385,5.384-5.385h17.598
		C41.409,26.706,43.82,29.117,43.82,32.091z"/>
	<path fill="#96442B" d="M32.456,27.84h-5.667v-2.756c0-1.562,1.266-2.829,2.828-2.829l0,0c1.568,0,2.839,1.271,2.839,2.838V27.84z"
		/>
	<path fill="#3D2F45" d="M29.623,51.928L29.623,51.928c-7.826,0-14.17-6.344-14.17-14.17v-5.667h28.339v5.667
		C43.792,45.584,37.448,51.928,29.623,51.928z"/>
	<rect x="15.453" y="9.994" fill="#FFFFFF" width="28.339" height="9.269"/>
	<g>
		<path fill="#A12D37" d="M38.139,32.091c0,1-0.164,1.955-0.471,2.834c-0.711,2.065-2.185,3.738-4.078,4.713
			c-1.182,0.615-2.527,0.955-3.953,0.955c-1.448,0-2.814-0.352-4.01-0.983c-1.868-0.98-3.319-2.639-4.021-4.685
			c-0.306-0.879-0.471-1.834-0.471-2.834H38.139z"/>
		<path fill="#FFFFFF" d="M38.139,32.091c0,1-0.164,1.955-0.471,2.834H21.605c-0.306-0.879-0.471-1.834-0.471-2.834H38.139z"/>
		<path fill="#C93945" d="M33.59,39.638c-1.182,0.615-2.527,0.955-3.953,0.955c-1.448,0-2.814-0.352-4.01-0.983
			c0.617-1.593,2.165-2.718,3.976-2.718C31.422,36.892,32.978,38.03,33.59,39.638z"/>
	</g>
	<path fill="none" d="M29.616,10.56L16.66,23.519L29.616,10.56z"/>
	<rect x="15.453" y="20.184" fill="#3D2F45" width="2.267" height="13.324"/>
	<rect x="41.525" y="20.184" fill="#3D2F45" width="2.267" height="13.324"/>
	<path fill="#FE932E" d="M38.002,2.177l-8.386,8.383L15.45,24.727c-1.459-2.454-2.295-5.322-2.295-8.383
		c0-9.091,7.374-16.459,16.462-16.459C32.678-0.116,35.545,0.72,38.002,2.177z"/>
	<path fill="#F27501" d="M46.081,16.344c0,3.061-0.836,5.929-2.295,8.383L29.616,10.56l8.386-8.383
		C42.837,5.042,46.081,10.313,46.081,16.344z"/>
</g>
</svg>
