<?xml version="1.0" encoding="utf-8"?>
<!-- Generator: Adobe Illustrator 16.0.0, SVG Export Plug-In . SVG Version: 6.00 Build 0)  -->
<!DOCTYPE svg PUBLIC "-//W3C//DTD SVG 1.1//EN" "http://www.w3.org/Graphics/SVG/1.1/DTD/svg11.dtd">
<svg version="1.1" id="Layer_1" xmlns="http://www.w3.org/2000/svg" xmlns:xlink="http://www.w3.org/1999/xlink" x="0px" y="0px"
	 width="60px" height="60px" viewBox="0 0 60 60" enable-background="new 0 0 60 60" xml:space="preserve">
<g>
	<rect x="35.786" y="23.56" fill="#3D2F45" width="10.845" height="36.546"/>
	<path fill="#BF593A" d="M48.944,60.106H11.35v-0.034c0-5.842,2.892-11.007,7.325-14.145c2.822-1.999,6.27-3.173,9.992-3.173h2.926
		c3.73,0,7.187,1.177,10.018,3.182C46.047,49.08,48.944,54.254,48.944,60.106z"/>
	<path fill="#FFDB56" d="M48.944,60.106H24.505l17.105-14.17C46.047,49.08,48.944,54.254,48.944,60.106z"/>
	<path fill="#FF4D60" d="M35.789,60.106H11.35v-0.034c0-5.842,2.892-11.007,7.325-14.145L35.789,60.106z"/>
	<path fill="#3D2F45" d="M30.147,40.285c-9.089,0-16.484-7.395-16.484-16.484v-7.23c0-9.089,7.395-16.484,16.484-16.484
		s16.484,7.395,16.484,16.484v7.23C46.631,32.891,39.236,40.285,30.147,40.285z"/>
	<rect x="13.663" y="23.56" fill="#3D2F45" width="10.845" height="36.546"/>
	<path fill="#96442B" d="M15.707,19.656h10.391v7.519H15.707c-2.079,0-3.765-1.686-3.765-3.765v0.005
		C11.942,21.336,13.628,19.656,15.707,19.656z"/>
	<path fill="#96442B" d="M44.662,19.656H34.196v7.519h10.466c2.08,0,3.765-1.686,3.765-3.765v0.005
		C48.427,21.336,46.742,19.656,44.662,19.656z"/>
	<path fill="#FFDB56" d="M41.859,32.545l-2.747-2.748l5.494-5.495l2.748,2.748c1.517,1.518,1.517,3.978,0,5.495l0,0
		C45.837,34.062,43.377,34.062,41.859,32.545z"/>
	<path fill="#FFDB56" d="M12.94,32.545L12.94,32.545c-1.517-1.518-1.517-3.978,0-5.495l2.747-2.748l5.495,5.495l-2.748,2.748
		C16.917,34.062,14.457,34.062,12.94,32.545z"/>
	<path fill="#96442B" d="M30.215,49.949H30.08c-3.157,0-5.716-2.56-5.716-5.717v-5.778h11.567v5.778
		C35.931,47.39,33.372,49.949,30.215,49.949z"/>
	<path fill="#BF593A" d="M30.316,41.635h-0.338c-7.893,0-14.291-6.398-14.291-14.291v-4.676c0-7.893,6.398-14.291,14.291-14.291
		h0.338c7.893,0,14.29,6.398,14.29,14.291v4.676C44.606,35.236,38.209,41.635,30.316,41.635z"/>
	<path fill="#852028" d="M38.823,27.175c0,1.021-0.168,1.996-0.48,2.892c-0.726,2.108-2.229,3.815-4.161,4.809
		c-1.206,0.628-2.58,0.975-4.035,0.975c-1.478,0-2.872-0.358-4.092-1.003c-1.906-1.001-3.386-2.692-4.103-4.781
		c-0.312-0.896-0.48-1.871-0.48-2.892H38.823z"/>
	<path fill="#FFFFFF" d="M38.823,27.175c0,1.021-0.168,1.996-0.48,2.892H21.952c-0.312-0.896-0.48-1.871-0.48-2.892H38.823z"/>
	<path fill="#B8343F" d="M34.182,34.876c-1.206,0.628-2.58,0.975-4.035,0.975c-1.478,0-2.872-0.358-4.092-1.003
		c0.631-1.626,2.209-2.773,4.058-2.773C31.969,32.074,33.557,33.236,34.182,34.876z"/>
	<circle fill="#66273A" cx="22.772" cy="21.333" r="1.735"/>
	<circle fill="#66273A" cx="37.521" cy="21.333" r="1.735"/>
	<circle fill="#B8343F" cx="30.147" cy="15.692" r="1.156"/>
	<path fill="#96442B" d="M33.039,24.861h-5.784v-2.846c0-1.576,1.278-2.854,2.854-2.854h0.068c1.582,0,2.863,1.282,2.863,2.863
		V24.861z"/>
	<rect x="29.335" y="4.058" fill="#BF593A" width="1.623" height="5.64"/>
</g>
</svg>
