<?xml version="1.0" encoding="utf-8"?>
<!-- Generator: Adobe Illustrator 16.0.0, SVG Export Plug-In . SVG Version: 6.00 Build 0)  -->
<!DOCTYPE svg PUBLIC "-//W3C//DTD SVG 1.1//EN" "http://www.w3.org/Graphics/SVG/1.1/DTD/svg11.dtd">
<svg version="1.1" id="Layer_1" xmlns="http://www.w3.org/2000/svg" xmlns:xlink="http://www.w3.org/1999/xlink" x="0px" y="0px"
	 width="60px" height="60px" viewBox="0 0 60 60" enable-background="new 0 0 60 60" xml:space="preserve">
<g>
	<path fill="#7A2F45" d="M46.107,14.729v7.545H12.445v-7.545c0-0.398,0.014-0.792,0.042-1.184c0.15-2.15,1.979-3.799,4.134-3.799
		h25.313c2.158,0,3.987,1.653,4.134,3.808C46.094,13.943,46.107,14.335,46.107,14.729z"/>
	<path fill="#EDE9E1" d="M17.088,44.901V60h-6.674v-2.975C10.414,51.956,13.025,47.492,17.088,44.901z"/>
	<path fill="#EDE9E1" d="M33.667,42.588c1.509,0,2.864,0.157,4.315,0.587v3.187c0,4.793-3.912,8.683-8.706,8.683
		s-8.706-3.89-8.706-8.683v-3.187c1.451-0.43,2.881-0.587,4.391-0.587H33.667z"/>
	<path fill="#EDE9E1" d="M48.139,57.025V60h-6.384V44.901C45.526,47.492,48.139,51.956,48.139,57.025z"/>
	<path fill="#FFA870" d="M38.012,43.214c-0.195,4.628-4.022,8.316-8.697,8.316c-4.675,0-8.503-3.679-8.697-8.308
		c1.373-0.429,2.83-0.635,4.344-0.635h8.706C35.182,42.588,36.64,42.784,38.012,43.214z"/>
	<path fill="#FFA870" d="M17.088,44.901V60h-6.674v-2.975C10.414,51.956,13.025,47.492,17.088,44.901z"/>
	<path fill="#FFA870" d="M48.139,57.025V60h-6.384V44.901C45.526,47.492,48.139,51.956,48.139,57.025z"/>
	<path fill="#FFA870" d="M37.982,43.175v3.187c0,4.793-3.912,8.683-8.706,8.683s-8.706-3.89-8.706-8.683v-3.187
		c1.451-0.43,2.881-0.587,4.391-0.587h8.706C35.176,42.588,36.531,42.745,37.982,43.175z"/>
	<path fill="#F59055" d="M15.077,18.212h10.427v7.545H15.077c-2.086,0-3.778-1.691-3.778-3.778v0.005
		C11.299,19.898,12.99,18.212,15.077,18.212z"/>
	<path fill="#F59055" d="M43.551,18.212H33.049v7.545h10.502c2.088,0,3.778-1.691,3.778-3.778v0.005
		C47.329,19.898,45.639,18.212,43.551,18.212z"/>
	<path fill="#F59055" d="M29.405,48.609h-0.23c-3.149,0-5.703-2.553-5.703-5.701v-5.833H35.08v5.859
		C35.08,46.069,32.539,48.609,29.405,48.609z"/>
	<path fill="#FFA870" d="M43.786,14.73v11.146c0,8.013-6.497,14.51-14.51,14.51c-8.012,0-14.51-6.497-14.51-14.51V14.73
		c0-8.015,6.517-14.51,14.529-14.51c4.007,0,7.625,1.622,10.249,4.249C42.17,7.095,43.786,10.722,43.786,14.73z"/>
	<path fill="#D6865F" d="M43.786,25.757v0.119c0,8.013-6.497,14.51-14.51,14.51c-8.012,0-14.51-6.497-14.51-14.51v-0.119H43.786z"/>
	<rect x="17.504" y="25.757" fill="#7A2F45" width="23.574" height="2.902"/>
	<circle fill="#7A2F45" cx="21.876" cy="19.074" r="1.741"/>
	<circle fill="#7A2F45" cx="36.676" cy="19.074" r="1.741"/>
	<path fill="#7A2F45" d="M41.078,25.757L41.078,25.757H17.504l0,0c0-1.923,1.559-3.482,3.482-3.482h16.608
		C39.52,22.275,41.078,23.834,41.078,25.757z"/>
	<path fill="#F57355" d="M32.179,23.436h-5.804v-2.873c0-1.572,1.274-2.846,2.847-2.846h0.11c1.573,0,2.847,1.274,2.847,2.846
		V23.436z"/>
	<path fill="#A12D37" d="M37.982,25.757c0,1.024-0.168,2.002-0.481,2.902c-0.729,2.115-2.237,3.827-4.177,4.825
		c-1.209,0.631-2.588,0.979-4.048,0.979c-1.483,0-2.882-0.359-4.106-1.007c-1.913-1.004-3.398-2.702-4.118-4.796
		c-0.313-0.9-0.481-1.878-0.481-2.902H37.982z"/>
	<path fill="#FFFFFF" d="M37.982,25.757c0,1.024-0.168,2.002-0.481,2.902H21.052c-0.313-0.9-0.481-1.878-0.481-2.902H37.982z"/>
	<path fill="#C93945" d="M33.324,33.484c-1.209,0.631-2.588,0.979-4.048,0.979c-1.483,0-2.882-0.359-4.106-1.007
		c0.632-1.631,2.217-2.783,4.071-2.783C31.104,30.673,32.697,31.84,33.324,33.484z"/>
	<rect x="24.923" y="3.703" fill="#7A2F45" width="1.451" height="4.643"/>
	<rect x="28.696" y="3.703" fill="#7A2F45" width="1.451" height="4.643"/>
	<rect x="32.469" y="3.703" fill="#7A2F45" width="1.451" height="4.643"/>
	<path fill="#7A2F45" d="M24.354,55.212v-0.871c0.66,0,1.197-0.537,1.197-1.196c0-0.661-0.537-1.197-1.197-1.197v-0.87
		c1.14,0,2.068,0.927,2.068,2.067C26.422,54.284,25.494,55.212,24.354,55.212z"/>
	<path fill="#7A2F45" d="M31.691,56.114v-0.871c0.661,0,1.197-0.536,1.197-1.196s-0.536-1.197-1.197-1.197v-0.871
		c1.141,0,2.068,0.928,2.068,2.068C33.76,55.187,32.832,56.114,31.691,56.114z"/>
	<path fill="#7A2F45" d="M30.131,53.96c-1.14,0-2.068-0.928-2.068-2.068c0-1.14,0.928-2.067,2.068-2.067v0.871
		c-0.661,0-1.198,0.536-1.198,1.196s0.537,1.197,1.198,1.197V53.96z"/>
	<path fill="#F2F2F2" d="M41.755,44.901V60H17.088V44.901c1.161-0.737,2.322-1.32,3.482-1.727v3.187
		c0,4.793,3.912,8.683,8.706,8.683s8.706-3.89,8.706-8.683v-3.187C39.434,43.581,40.595,44.164,41.755,44.901z"/>
</g>
</svg>
