<?xml version="1.0" encoding="utf-8"?>
<!-- Generator: Adobe Illustrator 16.0.0, SVG Export Plug-In . SVG Version: 6.00 Build 0)  -->
<!DOCTYPE svg PUBLIC "-//W3C//DTD SVG 1.1//EN" "http://www.w3.org/Graphics/SVG/1.1/DTD/svg11.dtd">
<svg version="1.1" id="Layer_1" xmlns="http://www.w3.org/2000/svg" xmlns:xlink="http://www.w3.org/1999/xlink" x="0px" y="0px"
	 width="60px" height="60px" viewBox="0 0 60 60" enable-background="new 0 0 60 60" xml:space="preserve">
<g>
	<path fill="#E3E3E3" d="M46.654,57.688v2.588H13.829v-2.588c0-5.808,3.946-10.658,9.294-12.112c1.071-0.293,2.2-0.45,3.364-0.45
		h7.574c1.142,0,2.247,0.15,3.298,0.433C42.723,46.995,46.654,51.858,46.654,57.688z"/>
	<path fill="#9C2F3B" d="M41.099,50.366c0,3.191-2.587,5.777-5.777,5.777c-2.194,0-4.101-1.223-5.077-3.021
		c-0.983,1.798-2.89,3.021-5.083,3.021c-3.189,0-5.778-2.586-5.778-5.777c0-2.351,0.955-4.482,2.495-6.024
		c1.542-1.541,3.672-2.496,6.024-2.496h4.68C37.285,41.846,41.099,45.662,41.099,50.366z"/>
	<path fill="#73648C" d="M38.938,32.296H21.545c-6.661,0-12.062-5.4-12.062-12.062v0c0-6.661,5.401-12.062,12.062-12.062h17.393
		C45.6,8.171,51,13.572,51,20.233v0C51,26.896,45.6,32.296,38.938,32.296z"/>
	<path fill="#F59055" d="M31.724,29.083v6.565H17.602c-1.813,0-3.286-1.47-3.288-3.282c0-1.328,0.788-2.47,1.919-2.985
		c0.416-0.192,0.879-0.298,1.369-0.298H31.724z"/>
	<path fill="#F59055" d="M30.258,50.366H30.25c-2.79,0-5.059-2.261-5.059-5.051v-4.986h10.1v4.986
		C35.291,48.105,33.047,50.366,30.258,50.366z"/>
	<path fill="#F59055" d="M46.169,32.361c0,1.815-1.472,3.287-3.287,3.287H28.693v-6.565h14.188c0.465,0,0.906,0.096,1.309,0.271
		C45.354,29.856,46.167,31.012,46.169,32.361z"/>
	<path fill="#73648C" d="M42.866,16.377H17.617v-3.788c0-6.973,5.652-12.625,12.625-12.625l0,0c6.972,0,12.624,5.652,12.624,12.625
		V16.377z"/>
	<path fill="#FFA870" d="M42.866,20.902v12.874c0,6.922-5.486,12.714-12.407,12.83c-7.071,0.119-12.843-5.578-12.843-12.622V20.902
		c0-2.499,2.025-4.525,4.525-4.525H38.34C40.839,16.377,42.866,18.403,42.866,20.902z"/>
	<g>
		<path fill="#A12D37" d="M36.056,34.76c0,0.684-0.112,1.337-0.321,1.938c-0.486,1.413-1.495,2.557-2.789,3.224
			c-0.808,0.42-1.729,0.652-2.703,0.652c-0.991,0-1.926-0.24-2.743-0.672c-1.277-0.67-2.27-1.804-2.751-3.204
			c-0.209-0.602-0.321-1.255-0.321-1.938H36.056z"/>
		<path fill="#FFFFFF" d="M36.056,34.76c0,0.684-0.112,1.337-0.321,1.938H24.748c-0.209-0.602-0.321-1.255-0.321-1.938H36.056z"/>
		<path fill="#C93945" d="M32.945,39.922c-0.808,0.42-1.729,0.652-2.703,0.652c-0.991,0-1.926-0.24-2.743-0.672
			c0.422-1.09,1.48-1.858,2.719-1.858C31.463,38.044,32.526,38.822,32.945,39.922z"/>
	</g>
	<path fill="#66273A" d="M25.663,28.704v0.378h-3.03v-0.378c0-0.836,0.679-1.515,1.515-1.515
		C24.986,27.189,25.663,27.868,25.663,28.704z"/>
	<path fill="#66273A" d="M37.783,28.704v0.378h-3.03v-0.378c0-0.836,0.679-1.515,1.515-1.515
		C37.106,27.189,37.783,27.868,37.783,28.704z"/>
	<path fill="#FF8366" d="M30.242,32.801L30.242,32.801c-1.209,0-2.188-0.979-2.188-2.188v-2.288h4.376v2.288
		C32.43,31.821,31.45,32.801,30.242,32.801z"/>
	<g>
		<g>
			<path fill="#9C2F3B" d="M20.435,28.073c-0.023,0.164-0.036,0.333-0.036,0.505c0,0.171,0.013,0.341,0.036,0.505H17.6
				c-0.491,0-0.953,0.106-1.369,0.298l-0.027-0.099c-0.031-0.106-0.056-0.214-0.081-0.323c-0.026-0.108-0.05-0.217-0.074-0.323
				c-0.017-0.083-0.038-0.169-0.053-0.252c0.495-0.2,1.038-0.311,1.604-0.311H20.435z"/>
			<path fill="#9C2F3B" d="M44.424,28.36c-0.015,0.083-0.035,0.167-0.052,0.25c-0.021,0.101-0.044,0.2-0.068,0.3
				c-0.028,0.124-0.062,0.248-0.094,0.371l-0.02,0.074c-0.402-0.177-0.844-0.273-1.312-0.273h-2.9
				c0.021-0.164,0.034-0.333,0.034-0.505c0-0.172-0.013-0.341-0.034-0.505h2.9C43.425,28.073,43.944,28.174,44.424,28.36z"/>
			<g>
				<path fill="#9C2F3B" d="M28.875,28.073c-0.251-2.389-2.277-4.252-4.729-4.252c-2.452,0-4.477,1.864-4.729,4.252
					c-0.018,0.166-0.027,0.333-0.027,0.505c0,0.171,0.01,0.338,0.027,0.505c0.126,1.194,0.696,2.257,1.54,3.022
					c0.843,0.763,1.965,1.229,3.189,1.229c2.451,0,4.478-1.863,4.729-4.251c0.018-0.167,0.029-0.333,0.029-0.505
					C28.904,28.406,28.893,28.239,28.875,28.073z M24.146,32.324c-1.894,0-3.468-1.414-3.712-3.242
					c-0.023-0.164-0.036-0.333-0.036-0.505c0-0.172,0.013-0.341,0.036-0.505c0.244-1.829,1.818-3.242,3.712-3.242
					s3.467,1.414,3.711,3.242c0.023,0.164,0.036,0.333,0.036,0.505c0,0.171-0.013,0.341-0.036,0.505
					C27.613,30.91,26.04,32.324,24.146,32.324z"/>
				<path fill="#9C2F3B" d="M40.996,28.073c-0.126-1.194-0.698-2.257-1.541-3.023c-0.843-0.763-1.964-1.229-3.188-1.229
					c-2.452,0-4.478,1.864-4.73,4.252c-0.018,0.166-0.027,0.333-0.027,0.505c0,0.171,0.01,0.338,0.027,0.505
					c0.127,1.194,0.698,2.257,1.541,3.022c0.844,0.763,1.965,1.229,3.189,1.229c2.451,0,4.477-1.863,4.729-4.251
					c0.018-0.167,0.027-0.333,0.027-0.505C41.023,28.406,41.014,28.239,40.996,28.073z M36.267,32.324
					c-1.894,0-3.467-1.414-3.712-3.242c-0.022-0.164-0.035-0.333-0.035-0.505c0-0.172,0.013-0.341,0.035-0.505
					c0.245-1.829,1.818-3.242,3.712-3.242s3.466,1.414,3.712,3.242c0.021,0.164,0.034,0.333,0.034,0.505
					c0,0.171-0.013,0.341-0.034,0.505C39.732,30.91,38.16,32.324,36.267,32.324z"/>
			</g>
		</g>
		<path fill="#9C2F3B" d="M32.555,28.073c-0.022,0.164-0.035,0.333-0.035,0.505c0,0.171,0.013,0.341,0.035,0.505h-4.697
			c0.023-0.164,0.036-0.333,0.036-0.505c0-0.172-0.013-0.341-0.036-0.505H32.555z"/>
	</g>
	<rect x="24.18" y="21.855" fill="#F59055" width="12.123" height="1.01"/>
	<rect x="24.18" y="19.835" fill="#F59055" width="12.123" height="1.01"/>
</g>
</svg>
