<?xml version="1.0" encoding="utf-8"?>
<!-- Generator: Adobe Illustrator 16.0.0, SVG Export Plug-In . SVG Version: 6.00 Build 0)  -->
<!DOCTYPE svg PUBLIC "-//W3C//DTD SVG 1.1//EN" "http://www.w3.org/Graphics/SVG/1.1/DTD/svg11.dtd">
<svg version="1.1" id="Layer_1" xmlns="http://www.w3.org/2000/svg" xmlns:xlink="http://www.w3.org/1999/xlink" x="0px" y="0px"
	 width="60px" height="60px" viewBox="0 0 60 60" enable-background="new 0 0 60 60" xml:space="preserve">
<g>
	<path fill="#E3E3E3" d="M48.219,56.75v2.962H10.653V56.75c0-6.646,4.517-12.197,10.637-13.861c1.225-0.335,2.517-0.515,3.849-0.515
		h8.668c1.307,0,2.572,0.171,3.774,0.494C43.72,44.513,48.219,50.078,48.219,56.75z"/>
	<path fill="#73648C" d="M21.291,42.889v16.823H10.653V56.75C10.653,50.104,15.17,44.553,21.291,42.889z"/>
	<path fill="#73648C" d="M48.219,56.75v2.962H37.582V42.868C43.72,44.513,48.219,50.078,48.219,56.75z"/>
	<path fill="#B87D7A" d="M42.951,52.26l-2.037,2.037l2.037,2.037v3.378h-27.03v-3.378l2.037-2.037l-2.037-2.037v-1.061
		c0-7.464,6.051-13.515,13.515-13.515c3.732,0,7.11,1.511,9.556,3.959c2.447,2.444,3.959,5.822,3.959,9.556V52.26z"/>
	<rect x="21.291" y="48.37" fill="#D5E7FF" width="16.292" height="11.342"/>
	<polygon fill="#3D2F45" points="29.39,56.099 25.405,48.873 33.467,48.873 	"/>
	<polygon fill="#3D2F45" points="29.399,52.486 26.235,59.712 32.637,59.712 	"/>
	<path fill="#FFFFFF" d="M29.437,37.684c-4.492,0-8.146,3.654-8.146,8.146v6.583l8.146-3.064l8.146,3.064v-6.583
		C37.582,41.338,33.928,37.684,29.437,37.684z"/>
	<path fill="#F59055" d="M29.546,48.37h-0.22c-3.131,0-5.669-2.538-5.669-5.669v-5.817h11.558v5.817
		C35.215,45.832,32.677,48.37,29.546,48.37z"/>
	<g>
		<path fill="#BF571F" d="M17.652,28.354c-1.794,0.743-3.719,0.688-5.383-0.002c-1.662-0.688-3.06-2.008-3.803-3.803l3.037-1.257
			c-1.633-1.078-2.71-2.93-2.71-5.033v-0.156h0.98c1.591,0,2.88-1.289,2.88-2.88v-2.015c0-1.274,0.517-2.427,1.349-3.259
			c0.835-0.835,1.985-1.353,3.257-1.353h7.285v4.612h-7.285L17.652,28.354z"/>
		<path fill="#BF571F" d="M41.22,28.354c1.794,0.743,3.719,0.688,5.384-0.002c1.661-0.688,3.06-2.008,3.803-3.803l-3.037-1.257
			c1.633-1.078,2.71-2.93,2.71-5.033v-0.156H49.1c-1.591,0-2.881-1.289-2.881-2.88v-2.015c0-1.274-0.517-2.427-1.35-3.259
			c-0.835-0.835-1.985-1.353-3.256-1.353h-7.285v4.612h7.285L41.22,28.354z"/>
	</g>
	<path fill="#F59055" d="M31.132,19.548v7.513H14.971c-2.075,0-3.759-1.682-3.762-3.756c0-1.52,0.902-2.826,2.196-3.416
		c0.477-0.219,1.005-0.34,1.566-0.34H31.132z"/>
	<path fill="#F59055" d="M47.664,23.298c0,2.078-1.685,3.762-3.763,3.762H27.665v-7.513h16.236c0.532,0,1.037,0.11,1.497,0.309
		C46.73,20.432,47.661,21.755,47.664,23.298z"/>
	<path fill="#FFA870" d="M43.884,14.634v11.099c0,7.978-6.469,14.448-14.447,14.448s-14.448-6.47-14.448-14.448V14.634
		c0-7.981,6.488-14.448,14.467-14.448c3.99,0,7.593,1.615,10.205,4.23C42.275,7.032,43.884,10.644,43.884,14.634z"/>
	<path fill="#A12D37" d="M38.105,25.615c0,1.02-0.168,1.994-0.48,2.889c-0.725,2.106-2.228,3.812-4.158,4.806
		c-1.204,0.627-2.577,0.974-4.03,0.974c-1.477,0-2.87-0.358-4.089-1.003c-1.904-0.999-3.383-2.689-4.1-4.776
		c-0.312-0.896-0.48-1.869-0.48-2.889H38.105z"/>
	<path fill="#FFFFFF" d="M38.105,25.615c0,1.02-0.168,1.994-0.48,2.889H21.247c-0.312-0.896-0.48-1.869-0.48-2.889H38.105z"/>
	<path fill="#C93945" d="M33.467,33.31c-1.204,0.627-2.577,0.974-4.03,0.974c-1.477,0-2.87-0.358-4.089-1.003
		c0.63-1.624,2.208-2.771,4.054-2.771C31.257,30.51,32.843,31.671,33.467,33.31z"/>
	<path fill="#BF571F" d="M33.468,35.532v2.782c0,2.242-1.817,4.06-4.061,4.06l0,0c-2.242,0-4.06-1.817-4.06-4.06V35.51
		c1.286,0.522,2.679,0.798,4.089,0.798C30.826,36.308,32.205,36.041,33.468,35.532z"/>
	<circle fill="#66273A" cx="22.464" cy="19.114" r="1.734"/>
	<circle fill="#66273A" cx="36.333" cy="19.114" r="1.734"/>
	<path fill="#241C29" d="M18.213,18.391c-0.026,0.188-0.041,0.381-0.041,0.578c0,0.196,0.015,0.39,0.041,0.578h-3.245
		c-0.561,0-1.089,0.122-1.566,0.341l-0.032-0.113c-0.035-0.122-0.063-0.246-0.093-0.37c-0.029-0.124-0.058-0.249-0.084-0.37
		c-0.02-0.095-0.043-0.194-0.06-0.289c0.566-0.229,1.187-0.355,1.834-0.355H18.213z"/>
	<path fill="#241C29" d="M45.667,18.72c-0.018,0.095-0.04,0.19-0.061,0.286c-0.023,0.115-0.05,0.228-0.078,0.344
		c-0.032,0.141-0.069,0.283-0.106,0.425l-0.023,0.083c-0.46-0.202-0.965-0.312-1.5-0.312h-3.32c0.026-0.188,0.041-0.381,0.041-0.578
		c0-0.197-0.015-0.39-0.041-0.578h3.32C44.522,18.391,45.118,18.506,45.667,18.72z"/>
	<path fill="#F57355" d="M29.437,23.802L29.437,23.802c-1.383,0-2.504-1.121-2.504-2.504v-2.618h5.007v2.618
		C31.939,22.681,30.819,23.802,29.437,23.802z"/>
	<g>
		<path fill="#241C29" d="M27.873,18.391c-0.289-2.734-2.606-4.866-5.413-4.866c-2.806,0-5.123,2.132-5.412,4.866
			c-0.02,0.191-0.032,0.381-0.032,0.578c0,0.196,0.012,0.387,0.032,0.578c0.145,1.367,0.797,2.583,1.763,3.459
			c0.965,0.873,2.248,1.407,3.649,1.407c2.806,0,5.124-2.133,5.413-4.866c0.021-0.191,0.032-0.381,0.032-0.578
			C27.905,18.772,27.894,18.582,27.873,18.391z M22.46,23.257c-2.167,0-3.967-1.618-4.248-3.71
			c-0.026-0.188-0.041-0.381-0.041-0.578c0-0.197,0.015-0.39,0.041-0.578c0.281-2.092,2.081-3.71,4.248-3.71
			c2.167,0,3.968,1.619,4.248,3.71c0.026,0.188,0.04,0.381,0.04,0.578c0,0.196-0.014,0.39-0.04,0.578
			C26.428,21.639,24.628,23.257,22.46,23.257z"/>
		<path fill="#241C29" d="M41.743,18.391c-0.145-1.367-0.798-2.583-1.763-3.459c-0.965-0.873-2.249-1.407-3.649-1.407
			c-2.807,0-5.124,2.132-5.412,4.866c-0.021,0.191-0.032,0.381-0.032,0.578c0,0.196,0.012,0.387,0.032,0.578
			c0.145,1.367,0.797,2.583,1.763,3.459c0.965,0.873,2.247,1.407,3.649,1.407c2.806,0,5.123-2.133,5.412-4.866
			c0.021-0.191,0.031-0.381,0.031-0.578C41.774,18.772,41.764,18.582,41.743,18.391z M36.331,23.257
			c-2.168,0-3.968-1.618-4.248-3.71c-0.026-0.188-0.04-0.381-0.04-0.578c0-0.197,0.014-0.39,0.04-0.578
			c0.28-2.092,2.08-3.71,4.248-3.71c2.167,0,3.967,1.619,4.247,3.71c0.026,0.188,0.041,0.381,0.041,0.578
			c0,0.196-0.015,0.39-0.041,0.578C40.298,21.639,38.498,23.257,36.331,23.257z"/>
	</g>
	<path fill="#241C29" d="M32.083,18.391c-0.026,0.188-0.04,0.381-0.04,0.578c0,0.196,0.014,0.39,0.04,0.578h-5.375
		c0.026-0.188,0.04-0.381,0.04-0.578c0-0.197-0.014-0.39-0.04-0.578H32.083z"/>
	<rect x="22.46" y="10.691" fill="#F59055" width="13.873" height="1.156"/>
	<rect x="22.46" y="8.38" fill="#F59055" width="13.873" height="1.156"/>
</g>
</svg>
