<?xml version="1.0" encoding="utf-8"?>
<!-- Generator: Adobe Illustrator 16.0.0, SVG Export Plug-In . SVG Version: 6.00 Build 0)  -->
<!DOCTYPE svg PUBLIC "-//W3C//DTD SVG 1.1//EN" "http://www.w3.org/Graphics/SVG/1.1/DTD/svg11.dtd">
<svg version="1.1" id="Layer_1" xmlns="http://www.w3.org/2000/svg" xmlns:xlink="http://www.w3.org/1999/xlink" x="0px" y="0px"
	 width="60px" height="60px" viewBox="0 0 60 60" enable-background="new 0 0 60 60" xml:space="preserve">
<g>
	<path fill="#E3E3E3" d="M49.081,57.048V60H11.634v-2.952c0-6.625,4.502-12.159,10.603-13.818c1.222-0.334,2.509-0.513,3.837-0.513
		h8.642c1.302,0,2.563,0.17,3.762,0.492C44.596,44.849,49.081,50.396,49.081,57.048z"/>
	<path fill="#644B6E" d="M22.237,43.229V60H11.634v-2.952C11.634,50.423,16.137,44.889,22.237,43.229z"/>
	<path fill="#644B6E" d="M49.081,57.048V60H38.478V43.209C44.596,44.849,49.081,50.396,49.081,57.048z"/>
	<path fill="#3D2F45" d="M43.83,52.571l-2.03,2.031l2.03,2.03V60H16.886v-3.367l2.031-2.03l-2.031-2.031v-1.057
		c0-7.44,6.032-13.473,13.472-13.473c3.722,0,7.089,1.507,9.526,3.946c2.439,2.437,3.946,5.804,3.946,9.526V52.571z"/>
	<rect x="22.237" y="48.694" fill="#E8E8E8" width="16.24" height="11.306"/>
	<path fill="#FFFFFF" d="M30.357,38.041c-4.477,0-8.12,3.643-8.12,8.12v6.562h16.24v-6.562
		C38.478,41.684,34.835,38.041,30.357,38.041z"/>
	<path fill="#F58A4C" d="M30.429,48.694h-0.114c-3.158,0-5.718-2.56-5.718-5.718v-5.732h11.521v5.761
		C36.118,46.147,33.571,48.694,30.429,48.694z"/>
	<path fill="#F58A4C" d="M32.086,19.098v7.489H15.975c-2.068,0-3.748-1.677-3.75-3.745c0-1.515,0.899-2.817,2.189-3.405
		c0.475-0.219,1.002-0.339,1.561-0.339H32.086z"/>
	<path fill="#F58A4C" d="M48.565,22.837c0,2.071-1.68,3.75-3.75,3.75H28.63v-7.489h16.186c0.529,0,1.034,0.109,1.491,0.308
		C47.635,19.979,48.562,21.298,48.565,22.837z"/>
	<path fill="#FFA870" d="M30.508,39.668h-0.272c-7.887,0-14.28-6.394-14.28-14.28V2.079h28.806v23.336
		C44.761,33.286,38.379,39.668,30.508,39.668z"/>
	<path fill="#FF8366" d="M30.357,18.065L30.357,18.065c-1.378,0-2.496,1.117-2.496,2.496v4.009h4.993v-4.009
		C32.854,19.183,31.736,18.065,30.357,18.065z"/>
	<circle fill="#7A2F45" cx="23.445" cy="22.843" r="1.728"/>
	<circle fill="#7A2F45" cx="37.271" cy="22.843" r="1.728"/>
	<path fill="#BF571F" d="M47.641,8.704v2.88H41.88c-4.264,0-7.988-2.316-9.981-5.761H16.044c-1.527,0-2.857-1.151-2.963-2.674
		c-0.062-0.876,0.271-1.677,0.837-2.243c0.521-0.521,1.241-0.844,2.037-0.844h23.044C43.771,0.062,47.641,3.931,47.641,8.704z"/>
	<g>
		<path fill="#A12D37" d="M36.118,28.028c0,0.678-0.11,1.325-0.318,1.92c-0.481,1.4-1.48,2.533-2.764,3.193
			c-0.8,0.417-1.712,0.647-2.679,0.647c-0.981,0-1.907-0.237-2.717-0.666c-1.266-0.664-2.249-1.788-2.726-3.174
			c-0.207-0.595-0.318-1.242-0.318-1.92H36.118z"/>
		<path fill="#FFFFFF" d="M36.118,28.028c0,0.678-0.11,1.325-0.318,1.92H24.915c-0.207-0.595-0.318-1.242-0.318-1.92H36.118z"/>
		<path fill="#C93945" d="M33.036,33.141c-0.8,0.417-1.712,0.647-2.679,0.647c-0.981,0-1.907-0.237-2.717-0.666
			c0.418-1.079,1.467-1.842,2.694-1.842C31.567,31.28,32.621,32.053,33.036,33.141z"/>
	</g>
	<rect x="20.708" y="16.565" fill="#F58A4C" width="5.473" height="1.729"/>
	<rect x="34.534" y="16.565" fill="#F58A4C" width="5.474" height="1.729"/>
	<g>
		<polygon fill="#FF4D60" points="31.832,52.77 24.629,56.741 24.629,48.705 		"/>
		<polygon fill="#FF4D60" points="28.883,52.77 36.086,56.741 36.086,48.705 		"/>
	</g>
</g>
</svg>
