<?xml version="1.0" encoding="utf-8"?>
<!-- Generator: Adobe Illustrator 16.0.0, SVG Export Plug-In . SVG Version: 6.00 Build 0)  -->
<!DOCTYPE svg PUBLIC "-//W3C//DTD SVG 1.1//EN" "http://www.w3.org/Graphics/SVG/1.1/DTD/svg11.dtd">
<svg version="1.1" id="Layer_1" xmlns="http://www.w3.org/2000/svg" xmlns:xlink="http://www.w3.org/1999/xlink" x="0px" y="0px"
	 width="60px" height="60px" viewBox="0 0 60 60" enable-background="new 0 0 60 60" xml:space="preserve">
<g>
	<path fill="#FFDB56" d="M50.5,43.141H8.39l3.624-27.868c1.139-8.758,8.599-15.311,17.431-15.311l0,0
		c8.831,0,16.291,6.553,17.431,15.311L50.5,43.141z"/>
	<path fill="#BABABA" d="M47.692,59.809H11.198l0,0c0-9.303,7.541-16.844,16.844-16.844h2.807
		C40.15,42.965,47.692,50.506,47.692,59.809L47.692,59.809z"/>
	<path fill="#969696" d="M37.867,51.282H21.023c-3.875,0-7.018-3.142-7.018-7.018l0,0c0-3.877,3.142-7.019,7.018-7.019h16.844
		c3.876,0,7.018,3.142,7.018,7.019l0,0C44.885,48.141,41.743,51.282,37.867,51.282z"/>
	<path fill="#5E5E5E" d="M41.109,42.37c0,1.148-0.686,2.187-1.74,2.637l-4.31,1.833l-5.64,2.399l-5.589-2.389l-4.312-1.841
		c-1.056-0.453-1.738-1.489-1.738-2.634V42.37c0-1.58,1.28-2.863,2.864-2.863h17.602C39.829,39.507,41.109,40.79,41.109,42.37z"/>
	<polygon fill="#F59055" points="35.06,36.997 35.06,46.84 29.42,49.239 23.831,46.851 23.831,36.997 	"/>
	<g>
		<path fill="#F59055" d="M15.709,21.806h10.087v7.298H15.709c-2.019,0-3.655-1.637-3.655-3.654v0.005
			C12.054,23.436,13.69,21.806,15.709,21.806z"/>
		<path fill="#F59055" d="M43.255,21.806h-10.16v7.298h10.16c2.018,0,3.653-1.637,3.653-3.654v0.005
			C46.908,23.436,45.272,21.806,43.255,21.806z"/>
	</g>
	<path fill="#FFA870" d="M29.445,43.141L29.445,43.141c-7.752,0-14.037-6.285-14.037-14.037v-7.019
		c0-7.751,6.284-14.035,14.037-14.035l0,0c7.752,0,14.036,6.284,14.036,14.036v7.018C43.481,36.855,37.197,43.141,29.445,43.141z"/>
	<path fill="#A12D37" d="M37.867,29.104c0,0.991-0.163,1.937-0.467,2.808c-0.704,2.046-2.164,3.702-4.04,4.668
		c-1.17,0.609-2.503,0.946-3.915,0.946c-1.435,0-2.787-0.349-3.973-0.975c-1.85-0.972-3.287-2.613-3.983-4.64
		c-0.303-0.871-0.466-1.817-0.466-2.808H37.867z"/>
	<path fill="#FFFFFF" d="M37.867,29.104c0,0.991-0.163,1.937-0.467,2.808H21.489c-0.303-0.871-0.466-1.817-0.466-2.808H37.867z"/>
	<path fill="#C93945" d="M33.36,36.58c-1.17,0.609-2.503,0.946-3.915,0.946c-1.435,0-2.787-0.349-3.973-0.975
		c0.612-1.578,2.146-2.692,3.938-2.692C31.214,33.859,32.755,34.987,33.36,36.58z"/>
	<path fill="#FFFFFF" d="M25.473,59.809h-1.641v-9.748c0-0.454,0.368-0.821,0.821-0.821l0,0c0.453,0,0.82,0.367,0.82,0.821V59.809z"
		/>
	<path fill="#FFFFFF" d="M35.06,59.809h-1.642v-9.748c0-0.454,0.367-0.821,0.821-0.821l0,0c0.453,0,0.82,0.367,0.82,0.821V59.809z"
		/>
	<path fill="#FFDB56" d="M43.479,15.866v5.706c0-2.127-1.72-3.852-3.848-3.852h-7.816h-12.44c-2.191,0-3.968,1.777-3.968,3.968l0,0
		c0,0.064-0.052,0.117-0.116,0.117h-1.17c-0.064,0-0.117-0.052-0.117-0.117v-5.819c0-4.707,3.815-8.521,8.521-8.521h12.437
		C39.666,7.347,43.479,11.161,43.479,15.866z"/>
	<circle fill="#7A2F45" cx="22.286" cy="23.434" r="1.684"/>
	<circle fill="#7A2F45" cx="36.603" cy="23.434" r="1.684"/>
	<path fill="#F57355" d="M32.253,26.858h-5.615v-2.732c0-1.547,1.254-2.8,2.8-2.8l0,0c1.555,0,2.815,1.26,2.815,2.814V26.858z"/>
	<polygon fill="#FFA870" points="32.253,12.247 32.253,17.721 35.769,17.721 	"/>
</g>
</svg>
