<?xml version="1.0" encoding="utf-8"?>
<!-- Generator: Adobe Illustrator 16.0.0, SVG Export Plug-In . SVG Version: 6.00 Build 0)  -->
<!DOCTYPE svg PUBLIC "-//W3C//DTD SVG 1.1//EN" "http://www.w3.org/Graphics/SVG/1.1/DTD/svg11.dtd">
<svg version="1.1" id="Layer_1" xmlns="http://www.w3.org/2000/svg" xmlns:xlink="http://www.w3.org/1999/xlink" x="0px" y="0px"
	 width="60px" height="60px" viewBox="0 0 60 60" enable-background="new 0 0 60 60" xml:space="preserve">
<g>
	<path fill="#241C29" d="M23.628,0.088h11.134C45.387,0.088,54,8.702,54,19.327l0,0c0,10.625-8.613,19.238-19.238,19.238H23.628
		c-10.625,0-19.239-8.613-19.239-19.238l0,0C4.389,8.702,13.002,0.088,23.628,0.088z"/>
	<g>
		<path fill="#96442B" d="M15.759,23.681h9.865v7.138h-9.865c-1.974,0-3.575-1.601-3.575-3.575v0.006
			C12.184,25.276,13.785,23.681,15.759,23.681z"/>
		<path fill="#96442B" d="M42.699,23.681h-9.938v7.138h9.938c1.974,0,3.575-1.601,3.575-3.575v0.006
			C46.274,25.276,44.673,23.681,42.699,23.681z"/>
	</g>
	<circle fill="#FFC03B" cx="14.053" cy="30.208" r="0.961"/>
	<path fill="#BF593A" d="M47.041,57.123v2.781H11.349v-2.809c0-7.103,5.42-12.942,12.352-13.602
		c0.431-0.041,0.871-0.063,1.312-0.063h8.339c0.45,0,0.892,0.022,1.331,0.065C41.616,44.164,47.041,50.013,47.041,57.123z"/>
	<path fill="#96442B" d="M29.211,49.13h-0.009c-3.032,0-5.5-2.458-5.5-5.491v-5.424h10.982v5.424
		C34.685,46.672,32.244,49.13,29.211,49.13z"/>
	<path fill="#3D2F45" d="M23.701,43.494v16.41H11.349v-2.809C11.349,49.993,16.769,44.153,23.701,43.494z"/>
	<path fill="#3D2F45" d="M47.041,57.123v2.781H34.684V43.496C41.616,44.164,47.041,50.013,47.041,57.123z"/>
	<path fill="#241C29" d="M19.9,59.906h3.801V41.853l0,0c-2.098,0-3.801,1.701-3.801,3.8V59.906z"/>
	<path fill="#241C29" d="M17.474,59.906H19.9V49.13l0,0c-2.015,0-3.574,1.769-3.319,3.77L17.474,59.906z"/>
	<path fill="#241C29" d="M40.911,59.906h-2.428V49.13l0,0c2.017,0,3.575,1.769,3.32,3.77L40.911,59.906z"/>
	<path fill="#241C29" d="M38.483,59.906h-3.8V41.853l0,0c2.099,0,3.8,1.701,3.8,3.8V59.906z"/>
	<polygon fill="#FFC03B" points="34.683,49.129 34.683,59.904 23.7,59.904 23.7,49.129 29.192,53.276 	"/>
	<polygon fill="#E82247" points="34.683,51.701 34.683,59.904 23.7,59.904 23.7,51.701 29.192,55.85 	"/>
	<path fill="#BF593A" d="M42.923,13.597v15.42c0,7.728-6.277,14.128-14.005,13.975c-7.455-0.146-13.451-6.235-13.451-13.725v-15.67
		H42.923z"/>
	<path fill="#BF593A" d="M29.637,8.684H28.77c0.146-0.005,0.293-0.008,0.441-0.008C29.354,8.675,29.497,8.678,29.637,8.684z"/>
	<path fill="#96442B" d="M30.304,29.487h-2.221c-1.314,0-2.379-1.065-2.379-2.379v-5.662h6.979v5.662
		C32.684,28.422,31.618,29.487,30.304,29.487z"/>
	<path fill="#FFFFFF" d="M19.878,30.819L19.878,30.819c-2.967,0-5.373-2.406-5.373-5.373l0,0c0-2.968,2.406-5.374,5.373-5.374h8.857
		l-1.836,5.647C25.91,28.761,23.076,30.819,19.878,30.819z"/>
	<path fill="#12B0FF" d="M26.846,21.445l-0.278,0.854L26.4,22.817l-0.808,2.479c-0.807,2.481-3.103,4.148-5.714,4.148
		c-0.145,0-0.291-0.008-0.433-0.024c-1.055-0.113-1.988-0.637-2.637-1.409c-0.582-0.694-0.933-1.593-0.933-2.567
		c0-1.046,0.407-2.005,1.071-2.719c0.73-0.787,1.774-1.282,2.932-1.282H26.846z"/>
	<path fill="#FFFFFF" d="M38.508,30.819L38.508,30.819c2.969,0,5.374-2.406,5.374-5.373l0,0c0-2.968-2.405-5.374-5.374-5.374h-8.856
		l1.837,5.647C32.478,28.761,35.312,30.819,38.508,30.819z"/>
	<path fill="#12B0FF" d="M42.509,25.445c0,2.207-1.793,4-4.001,4c-0.502,0-0.994-0.063-1.463-0.178
		c-1.37-0.343-2.57-1.156-3.394-2.29c-0.366-0.5-0.656-1.065-0.856-1.68l-0.808-2.479l-0.447-1.373h6.968
		c0.212,0,0.421,0.017,0.624,0.049c0.95,0.151,1.787,0.631,2.389,1.323c0.317,0.363,0.568,0.78,0.738,1.235
		C42.421,24.487,42.509,24.957,42.509,25.445z"/>
	<rect x="24.093" y="20.073" fill="#FFFFFF" width="10.201" height="1.373"/>
	<g>
		<circle fill="#4853A6" cx="21.861" cy="24.033" r="1.902"/>
		<circle fill="#4853A6" cx="36.526" cy="24.033" r="1.902"/>
	</g>
	<path fill="#822925" d="M30.326,35.272c0-1.519-1.23-2.747-2.748-2.747c-1.52,0-2.75,1.229-2.75,2.747H30.326z"/>
	<path fill="#822925" d="M33.56,35.272c0-1.519-1.232-2.747-2.749-2.747c-1.519,0-2.749,1.229-2.749,2.747H33.56z"/>
	<path fill="#A3352E" d="M31.04,37.792h-3.692c-1.392,0-2.52-1.128-2.52-2.52l0,0h8.731l0,0
		C33.56,36.664,32.431,37.792,31.04,37.792z"/>
	<path fill="#4853A6" d="M26.846,21.445l-0.278,0.854L26.4,22.817h-9.453v-0.091c0.73-0.787,1.774-1.282,2.932-1.282H26.846z"/>
	<path fill="#4853A6" d="M41.521,22.817h-9.533l-0.447-1.373h6.968c0.212,0,0.421,0.017,0.624,0.049
		C40.082,21.645,40.919,22.125,41.521,22.817z"/>
</g>
</svg>
