<?xml version="1.0" encoding="utf-8"?>
<!-- Generator: Adobe Illustrator 16.0.0, SVG Export Plug-In . SVG Version: 6.00 Build 0)  -->
<!DOCTYPE svg PUBLIC "-//W3C//DTD SVG 1.1//EN" "http://www.w3.org/Graphics/SVG/1.1/DTD/svg11.dtd">
<svg version="1.1" id="Layer_1" xmlns="http://www.w3.org/2000/svg" xmlns:xlink="http://www.w3.org/1999/xlink" x="0px" y="0px"
	 width="60px" height="60px" viewBox="0 0 60 60" enable-background="new 0 0 60 60" xml:space="preserve">
<g>
	<path fill="#3BBEFF" d="M45.753,57.353v2.617H12.557v-2.617c0-1.311,0.199-2.577,0.569-3.767c0.973-3.139,3.125-5.759,5.93-7.347
		c0.773-0.442,1.606-0.769,2.472-1.039c0.135-0.044,0.27-0.082,0.408-0.12l0.141,0.095c3.044,2.04,5.247,5.018,6.325,8.411
		c0.475,1.483,0.732,3.049,0.753,4.647c0.023-1.602,0.281-3.164,0.753-4.647c1.081-3.394,3.281-6.371,6.325-8.411l0.156-0.104
		c0.153,0.04,0.304,0.083,0.452,0.13c0.865,0.271,1.675,0.612,2.448,1.055c2.804,1.588,4.938,4.2,5.898,7.331
		C45.557,54.775,45.753,56.04,45.753,57.353z"/>
	<path fill="#FFC03B" d="M45.753,57.353v2.617H12.557v-2.617c0-1.311,0.199-2.577,0.569-3.767h32.062
		C45.557,54.775,45.753,56.04,45.753,57.353z"/>
	<path fill="#FFDB56" d="M47.031,18.339v11.603c0,6.185-3.156,11.646-7.944,14.856h-0.002l-2.138,1.436
		c-4.073,2.729-6.515,7.308-6.515,12.208v1.527h-2.551v-1.527c0-4.9-2.443-9.479-6.514-12.208l-2.102-1.41l-0.038-0.025
		c-4.788-3.21-7.947-8.672-7.947-14.856V18.117c0-10.078,8.385-18.234,18.542-17.862C39.468,0.608,47.031,8.688,47.031,18.339z"/>
	<path fill="#F58A4C" d="M36.391,45.07l-0.156,0.104c-4.374,2.931-7.009,7.801-7.078,13.059c-0.066-5.255-2.701-10.125-7.078-13.059
		l-0.141-0.095c1.088-0.294,2.237-0.432,3.422-0.432h7.66C34.187,44.648,35.317,44.781,36.391,45.07z"/>
	<path fill="#246AB5" d="M45.753,18.36v11.583c0,5.485-2.701,10.592-7.236,13.7L36.39,45.07c-1.072-0.289-2.204-0.422-3.371-0.422
		h-7.66c-1.185,0-2.334,0.138-3.422,0.432l-2.002-1.344c-4.616-3.097-7.377-8.253-7.377-13.794V18.117
		c0-1.856,0.307-3.644,0.871-5.311c2.303-6.795,8.891-11.629,16.529-11.269C38.846,1.958,45.753,9.463,45.753,18.36z"/>
	<g>
		<path fill="#F58A4C" d="M16.663,23.199h9.175v6.639h-9.175c-1.836,0-3.325-1.488-3.325-3.324v0.004
			C13.338,24.683,14.826,23.199,16.663,23.199z"/>
		<path fill="#F58A4C" d="M41.719,23.199h-9.242v6.639h9.242c1.836,0,3.324-1.488,3.324-3.324v0.004
			C45.043,24.683,43.555,23.199,41.719,23.199z"/>
	</g>
	<path fill="#F58A4C" d="M34.265,39.797v5.043c0,0.191-0.01,0.383-0.03,0.569H24.081c-0.02-0.187-0.03-0.378-0.03-0.569v-5.043
		H34.265z"/>
	<path fill="#FFA870" d="M29.157,42.71L29.157,42.71c-7.052,0-12.768-5.717-12.768-12.768V18.117
		c0-7.051,5.716-12.768,12.768-12.768l0,0c7.052,0,12.768,5.716,12.768,12.768v11.825C41.925,36.993,36.209,42.71,29.157,42.71z"/>
	<path fill="#A12D37" d="M36.817,29.838c0,0.902-0.147,1.762-0.424,2.553c-0.641,1.861-1.969,3.368-3.675,4.247
		c-1.064,0.554-2.277,0.86-3.562,0.86c-1.305,0-2.536-0.317-3.613-0.887c-1.683-0.883-2.99-2.377-3.623-4.221
		c-0.276-0.791-0.425-1.651-0.425-2.553H36.817z"/>
	<path fill="#FFFFFF" d="M36.817,29.838c0,0.902-0.147,1.762-0.424,2.553H21.921c-0.276-0.791-0.425-1.651-0.425-2.553H36.817z"/>
	<path fill="#C93945" d="M32.719,36.639c-1.064,0.554-2.277,0.86-3.562,0.86c-1.305,0-2.536-0.317-3.613-0.887
		c0.557-1.435,1.951-2.448,3.582-2.448C30.766,34.164,32.168,35.19,32.719,36.639z"/>
	<path fill="#FF8366" d="M31.711,27.795h-5.107v-2.488c0-1.405,1.14-2.544,2.545-2.544h0.004c1.413,0,2.559,1.145,2.559,2.558
		V27.795z"/>
	<circle fill="#7A2F45" cx="22.646" cy="24.681" r="1.532"/>
	<circle fill="#7A2F45" cx="35.668" cy="24.681" r="1.532"/>
	<rect x="16.39" y="13.703" fill="#F58A4C" width="3.319" height="9.497"/>
	<path fill="#3D2F45" d="M45.753,18.36v7.528l-7.964-5.7l-6.077-4.349v10.048L13.428,12.806c2.303-6.795,8.891-11.629,16.529-11.269
		c0.761,0.036,1.507,0.125,2.234,0.263C39.978,3.253,45.753,10.225,45.753,18.36z"/>
	<polygon fill="#3D2F45" points="41.925,15.713 41.925,28.795 23.642,15.713 	"/>
</g>
</svg>
