<?xml version="1.0" encoding="utf-8"?>
<!-- Generator: Adobe Illustrator 16.0.0, SVG Export Plug-In . SVG Version: 6.00 Build 0)  -->
<!DOCTYPE svg PUBLIC "-//W3C//DTD SVG 1.1//EN" "http://www.w3.org/Graphics/SVG/1.1/DTD/svg11.dtd">
<svg version="1.1" id="Layer_1" xmlns="http://www.w3.org/2000/svg" xmlns:xlink="http://www.w3.org/1999/xlink" x="0px" y="0px"
	 width="60px" height="60px" viewBox="0 0 60 60" enable-background="new 0 0 60 60" xml:space="preserve">
<g>
	<g>
		<path fill="#D66123" d="M50.199,14.799l-2.424,1.27l-9.121,4.789L31.487,7.205l9.021-4.738l2.524-1.323
			c1.144-0.601,2.369-0.884,3.574-0.884c2.776,0,5.456,1.5,6.836,4.127C55.423,8.159,53.97,12.822,50.199,14.799z"/>
		<path fill="#D66123" d="M28.081,7.205l-7.167,13.653l-9.125-4.789l-2.422-1.27c-3.769-1.977-5.221-6.64-3.244-10.412
			C7.502,1.76,10.185,0.26,12.958,0.26c1.208,0,2.434,0.283,3.575,0.884l2.523,1.323L28.081,7.205z"/>
	</g>
	<path fill="#87D8FF" d="M19.057,2.467l9.023,4.738l-7.167,13.653l-9.125-4.789c0.16-3.5,1.357-6.903,3.524-9.833
		C16.394,4.777,17.655,3.512,19.057,2.467z"/>
	<path fill="#87D8FF" d="M47.775,16.069l-9.121,4.789L31.487,7.205l9.021-4.738c1.401,1.045,2.664,2.311,3.743,3.769
		C46.419,9.168,47.616,12.569,47.775,16.069z"/>
	<path fill="#BF571F" d="M43.804,27.84h-28.04l-1.85-6.045C10.65,11.129,18.628,0.345,29.784,0.345l0,0
		c11.154,0,19.133,10.785,15.87,21.451L43.804,27.84z"/>
	<path fill="#D5E7FF" d="M48.008,59.811H11.557v-0.033c0-6.782,4.023-12.629,9.816-15.276c0.895-0.412,1.832-0.743,2.802-0.992
		c1.335-0.34,2.731-0.522,4.173-0.522h2.836c1.453,0,2.861,0.186,4.207,0.531c0.97,0.249,1.906,0.583,2.801,0.992
		C43.984,47.171,48.008,53.021,48.008,59.811z"/>
	<path fill="#FFDB56" d="M24.174,43.509v16.302H11.557v-0.033C11.557,51.945,16.92,45.364,24.174,43.509z"/>
	<path fill="#FFDB56" d="M48.008,59.811H35.391V43.518C42.646,45.385,48.008,51.975,48.008,59.811z"/>
	<path fill="#F59055" d="M15.782,20.591h10.075v7.291H15.782c-2.016,0-3.651-1.635-3.651-3.65v0.006
		C12.131,22.22,13.766,20.591,15.782,20.591z"/>
	<path fill="#F59055" d="M43.856,20.591H33.709v7.291h10.147c2.017,0,3.65-1.635,3.65-3.65v0.006
		C47.507,22.22,45.873,20.591,43.856,20.591z"/>
	<path fill="#FFA870" d="M38.191,44.51c-0.081,4.567-3.814,8.257-8.389,8.257h-0.009c-4.596,0-8.345-3.695-8.421-8.266
		c0.895-0.412,1.832-0.743,2.802-0.992c1.335-0.34,2.731-0.522,4.173-0.522h2.836c1.453,0,2.861,0.186,4.207,0.531
		C36.36,43.767,37.297,44.101,38.191,44.51z"/>
	<path fill="#F59055" d="M29.796,49.963L29.796,49.963c-3.105,0-5.622-2.516-5.622-5.621v-5.523h11.216v5.551
		C35.391,47.459,32.887,49.963,29.796,49.963z"/>
	<path fill="#FFA870" d="M43.804,20.872v7.01c0,7.742-6.279,14.02-14.02,14.02c-3.873,0-7.377-1.57-9.915-4.108
		c-2.535-2.537-4.105-6.041-4.105-9.911v-7.01c0-5.269,2.905-9.859,7.203-12.251c2.019-1.127,4.344-1.769,6.817-1.769
		c3.869,0,7.375,1.569,9.913,4.107c2.476,2.476,4.031,5.875,4.102,9.635C43.804,20.688,43.804,20.78,43.804,20.872z"/>
	<circle fill="#7A2F45" cx="22.632" cy="22.219" r="1.683"/>
	<circle fill="#7A2F45" cx="36.933" cy="22.219" r="1.683"/>
	<path fill="#F57355" d="M32.587,25.639h-5.608v-2.727c0-1.546,1.253-2.799,2.799-2.799l0,0c1.552,0,2.809,1.257,2.809,2.809V25.639
		z"/>
	<path fill="#A12D37" d="M38.195,27.882c0,0.99-0.163,1.936-0.466,2.804c-0.703,2.045-2.162,3.699-4.034,4.664
		c-1.17,0.607-2.502,0.944-3.912,0.944c-1.433,0-2.785-0.348-3.968-0.973c-1.848-0.971-3.283-2.611-3.979-4.636
		c-0.303-0.868-0.466-1.813-0.466-2.804H38.195z"/>
	<path fill="#FFFFFF" d="M38.195,27.882c0,0.99-0.163,1.936-0.466,2.804H21.837c-0.303-0.868-0.466-1.813-0.466-2.804H38.195z"/>
	<path fill="#C93945" d="M33.695,35.35c-1.17,0.607-2.502,0.944-3.912,0.944c-1.433,0-2.785-0.348-3.968-0.973
		c0.612-1.575,2.143-2.689,3.934-2.689C31.55,32.632,33.088,33.759,33.695,35.35z"/>
	<path fill="#D66123" d="M43.798,20.595h-0.073c-5.624,0-11.02-2.235-14.998-6.214l-5.76-5.76c2.019-1.127,4.344-1.769,6.817-1.769
		c3.869,0,7.375,1.569,9.913,4.107C42.172,13.436,43.728,16.834,43.798,20.595z"/>
</g>
</svg>
