<?xml version="1.0" encoding="utf-8"?>
<!-- Generator: Adobe Illustrator 16.0.0, SVG Export Plug-In . SVG Version: 6.00 Build 0)  -->
<!DOCTYPE svg PUBLIC "-//W3C//DTD SVG 1.1//EN" "http://www.w3.org/Graphics/SVG/1.1/DTD/svg11.dtd">
<svg version="1.1" id="Layer_1" xmlns="http://www.w3.org/2000/svg" xmlns:xlink="http://www.w3.org/1999/xlink" x="0px" y="0px"
	 width="60px" height="60px" viewBox="0 0 60 60" enable-background="new 0 0 60 60" xml:space="preserve">
<g>
	<path fill="#644B6E" d="M50.267,56.588v3.173H9.951v-3.173c0-6.422,3.923-11.887,9.496-14.219c0.797-0.335,1.625-0.604,2.481-0.804
		c0.081-0.019,0.165-0.037,0.245-0.056c1.073-0.235,2.187-0.356,3.328-0.356h9.303c1.2,0,2.363,0.133,3.482,0.391
		c0.081,0.019,0.165,0.04,0.246,0.06c0.769,0.188,1.516,0.434,2.235,0.731C46.355,44.648,50.267,50.141,50.267,56.588z"/>
	<path fill="#382A3D" d="M40.768,42.335v3.002c0,5.88-4.779,10.662-10.659,10.662c-5.876,0-10.662-4.782-10.662-10.662v-2.968
		c0.797-0.335,1.625-0.604,2.481-0.804c0.081-0.019,0.165-0.037,0.245-0.056c1.073-0.235,2.187-0.356,3.328-0.356h9.303
		c1.2,0,2.363,0.133,3.482,0.391c0.081,0.019,0.165,0.04,0.246,0.06C39.301,41.792,40.048,42.037,40.768,42.335z"/>
	<path fill="#96C466" d="M38.288,41.544v3.793c0,4.519-3.663,8.181-8.178,8.181c-4.519,0-8.181-3.662-8.181-8.181v-3.771
		c0.081-0.019,0.165-0.037,0.245-0.056c1.074-0.235,2.187-0.356,3.328-0.356h9.304C36.006,41.153,37.169,41.286,38.288,41.544z"/>
	<path fill="#96C466" d="M28.87,57.291v-6.15h2.171v6.15c0,0.6-0.486,1.086-1.085,1.086l0,0
		C29.356,58.377,28.87,57.891,28.87,57.291z"/>
	<path fill="#96C466" d="M32.901,54.986v-5.324h2.171v5.324c0,0.599-0.485,1.085-1.085,1.085l0,0
		C33.388,56.071,32.901,55.585,32.901,54.986z"/>
	<path fill="#7BAD47" d="M30.67,49.585h-1.052c-3.141,0-5.711-2.569-5.711-5.711v-6.616h12.405v6.686
		C36.312,47.06,33.786,49.585,30.67,49.585z"/>
	<path fill="#D1E6FF" d="M52.98,31.1v6.661H7.24V31.1c0-12.634,10.25-22.871,22.879-22.871c6.316,0,12.03,2.557,16.165,6.697
		C50.424,19.065,52.98,24.783,52.98,31.1z"/>
	<path fill="#C6F7BE" d="M30.11,41.386c-7.695,0-13.956-6.261-13.956-13.956V15.54c0-7.695,6.282-13.956,13.978-13.956
		c3.729,0,7.223,1.451,9.854,4.086c2.638,2.637,4.08,6.142,4.08,9.87V27.43C44.066,35.125,37.806,41.386,30.11,41.386z"/>
	<path fill="#96C466" d="M14.628,21.014h11.14v8.063h-11.14c-2.23,0-4.038-1.845-4.038-4.075v0.025
		C10.591,22.797,12.398,21.014,14.628,21.014z"/>
	<path fill="#96C466" d="M49.715,25.002c0,0.351-0.046,0.695-0.13,1.021c-0.161-0.105-0.351-0.165-0.555-0.165
		c-0.581,0-1.049,0.471-1.049,1.048c0,0.409,0.235,0.766,0.583,0.937c-0.731,0.76-1.755,1.234-2.888,1.234H34.451v-8.063h11.226
		C47.897,21.014,49.702,22.785,49.715,25.002z"/>
	<path fill="#B3E084" d="M45.616,15.541v11.89c0,0.555-0.027,1.107-0.087,1.647c-0.596,5.645-4.218,10.383-9.217,12.565
		c-0.27,0.122-0.543,0.23-0.818,0.332c-1.679,0.624-3.492,0.962-5.384,0.962c-1.892,0-3.706-0.338-5.384-0.962
		c-0.276-0.102-0.549-0.21-0.819-0.332c-4.999-2.183-8.621-6.921-9.217-12.565c-0.059-0.54-0.087-1.092-0.087-1.647v-11.89
		c0-0.862,0.115-1.66,0.251-2.59h4.351c2.527,0,4.869-1.241,6.196-3.303c2.294-0.45,4.087-2.444,4.087-4.869V0.056
		c0-0.016,0.462-0.022,0.723-0.022c4.283,0,8.107,1.733,10.91,4.54C43.93,7.381,45.616,11.257,45.616,15.541z"/>
	<circle fill="#7A2F45" cx="22.618" cy="21.163" r="1.861"/>
	<circle fill="#DFFFBD" cx="38.902" cy="20.929" r="5.07"/>
	<circle fill="#7A2F45" cx="37.308" cy="23.308" r="0.995"/>
	<path fill="#96C466" d="M27.206,21.014c0,2.481-2.054,4.587-4.588,4.587c-2.534,0-4.587-2.106-4.587-4.587H27.206z"/>
	<path fill="#6FC716" d="M28.117,41.153L28.117,41.153c-0.439,0-0.798-0.359-0.798-0.798v-4.456h1.55V40.4
		C28.87,40.816,28.533,41.153,28.117,41.153z"/>
	<path fill="#6FC716" d="M29.49,0.056v4.723c0,2.425-1.794,4.419-4.089,4.869c-1.327,2.062-3.667,3.303-6.194,3.303h-4.351
		l2.138-2.171h2.213c2.167,0,4.022-1.24,4.776-3.101h0.4c1.56,0,2.937-1.34,2.937-2.899V1.869L29.49,0.056z"/>
	<path fill="#96C466" d="M40.455,27.527h-6.623v-3.611h10.234l0,0C44.066,25.91,42.449,27.527,40.455,27.527z"/>
	<rect x="28.87" y="30.008" fill="#96C466" width="2.481" height="4.342"/>
	<path fill="#6FC716" d="M32.901,36.15v9.459c0,0.55-0.391,0.996-0.934,1.008c-0.545-0.012-0.927-0.458-0.927-1.008V36.15H32.901z"
		/>
	<path fill="#6FC716" d="M32.901,37.761v1.063c-0.496,0.311-1.079,0.487-1.706,0.487h-2.17c-0.053,0-0.102,0-0.155-0.004
		c-0.567-0.027-1.098-0.198-1.55-0.483v-1.063H32.901z"/>
	<path fill="#7A2F45" d="M32.901,36.055c0,0.942-0.764,1.706-1.706,1.706h-2.17c-0.942,0-1.706-0.764-1.706-1.706l0,0
		c0-0.941,0.764-1.705,1.706-1.705h2.17C32.138,34.35,32.901,35.113,32.901,36.055L32.901,36.055z"/>
	<path fill="#96C466" d="M23.908,38.294v3.349c-4.999-2.183-8.621-6.921-9.217-12.565l0,0
		C19.781,29.077,23.908,33.203,23.908,38.294z"/>
	<path fill="#96C466" d="M45.529,29.077c-0.596,5.645-4.218,10.383-9.217,12.565v-3.349C36.312,33.203,40.439,29.077,45.529,29.077
		L45.529,29.077z"/>
	<rect x="28.87" y="23.916" fill="#7A2F45" width="2.481" height="3.611"/>
	<polygon fill="#FFFFFF" points="11.709,33.479 11.709,37.761 9.471,37.761 	"/>
</g>
</svg>
