<?xml version="1.0" encoding="utf-8"?>
<!-- Generator: Adobe Illustrator 16.0.0, SVG Export Plug-In . SVG Version: 6.00 Build 0)  -->
<!DOCTYPE svg PUBLIC "-//W3C//DTD SVG 1.1//EN" "http://www.w3.org/Graphics/SVG/1.1/DTD/svg11.dtd">
<svg version="1.1" id="Layer_1" xmlns="http://www.w3.org/2000/svg" xmlns:xlink="http://www.w3.org/1999/xlink" x="0px" y="0px"
	 width="60px" height="60px" viewBox="0 0 60 60" enable-background="new 0 0 60 60" xml:space="preserve">
<g>
	<path fill="#3D2F45" d="M33.886,46.72h-9.225c-8.732,0-15.5-7.633-14.455-16.302l1.796-14.894
		c1.054-8.738,8.468-15.312,17.271-15.312l0,0c8.801,0,16.216,6.574,17.27,15.312l1.797,14.894
		C49.385,39.087,42.617,46.72,33.886,46.72z"/>
	<path fill="#FF4D60" d="M47.537,59.893H11.083v-0.033c0-6.032,3.18-11.321,7.955-14.279c0.199-0.124,0.398-0.244,0.603-0.359
		c2.431-1.371,5.241-2.153,8.23-2.153h2.841c3.003,0,5.82,0.788,8.264,2.167c0.205,0.115,0.404,0.236,0.603,0.359
		C44.357,48.563,47.537,53.855,47.537,59.893z"/>
	<path fill="#BF593A" d="M39.579,45.594v0.432c0,5.671-4.599,10.27-10.269,10.27c-5.673,0-10.272-4.599-10.272-10.27V45.58
		c0.199-0.124,0.398-0.244,0.603-0.359c2.431-1.371,5.241-2.153,8.23-2.153h2.841c3.003,0,5.82,0.788,8.264,2.167
		C39.182,45.35,39.381,45.471,39.579,45.594z"/>
	<path fill="#96442B" d="M29.323,50.043L29.323,50.043c-3.105,0-5.623-2.517-5.623-5.622v-5.524h11.218v5.552
		C34.918,47.538,32.412,50.043,29.323,50.043z"/>
	<path fill="#BF593A" d="M43.294,20.063v7.717c0,7.743-6.278,14.021-14.021,14.021c-7.743,0-14.021-6.278-14.021-14.021v-7.717
		H43.294z"/>
	<path fill="#852028" d="M37.686,27.667c0,0.99-0.163,1.935-0.467,2.805c-0.703,2.043-2.162,3.699-4.035,4.664
		c-1.169,0.608-2.5,0.944-3.911,0.944c-1.434,0-2.785-0.348-3.968-0.973c-1.848-0.971-3.284-2.61-3.979-4.635
		c-0.303-0.87-0.465-1.815-0.465-2.805H37.686z"/>
	<path fill="#FFFAF1" d="M37.686,27.667c0,0.99-0.163,1.935-0.467,2.805H21.325c-0.303-0.87-0.465-1.815-0.465-2.805H37.686z"/>
	<path fill="#B8343F" d="M33.184,35.135c-1.169,0.608-2.5,0.944-3.911,0.944c-1.434,0-2.785-0.348-3.968-0.973
		c0.611-1.576,2.143-2.689,3.934-2.689C31.039,32.417,32.578,33.545,33.184,35.135z"/>
	<path fill="#96442B" d="M29.272,25.314L29.272,25.314c-1.342,0-2.43-1.088-2.43-2.43v-2.541h4.86v2.541
		C31.702,24.227,30.614,25.314,29.272,25.314z"/>
	<path fill="#852028" d="M27.791,20.063h-1.129c0.025,0.182,0.039,0.37,0.039,0.561s-0.014,0.378-0.039,0.561
		c-0.272,2.03-2.019,3.601-4.122,3.601c-2.104,0-3.851-1.571-4.123-3.601c-0.025-0.183-0.039-0.371-0.039-0.561
		s0.014-0.378,0.039-0.561h-1.13c-0.02,0.185-0.031,0.37-0.031,0.561s0.011,0.375,0.031,0.561c0.28,2.653,2.529,4.722,5.252,4.722
		c2.723,0,4.972-2.069,5.251-4.722c0.02-0.186,0.032-0.371,0.032-0.561S27.811,20.248,27.791,20.063z"/>
	<path fill="#852028" d="M41.251,20.063h-1.129c0.024,0.182,0.039,0.37,0.039,0.561s-0.015,0.378-0.039,0.561
		c-0.272,2.03-2.02,3.601-4.123,3.601c-2.103,0-3.85-1.571-4.122-3.601c-0.025-0.183-0.039-0.371-0.039-0.561
		s0.014-0.378,0.039-0.561h-1.129c-0.021,0.185-0.031,0.37-0.031,0.561s0.01,0.375,0.031,0.561c0.279,2.653,2.528,4.722,5.251,4.722
		c2.724,0,4.973-2.069,5.252-4.722c0.021-0.186,0.032-0.371,0.032-0.561S41.271,20.248,41.251,20.063z"/>
	<path fill="#BF593A" d="M37.317,13.26H21.229c-3.301,0-5.977,2.676-5.977,5.977v0.826h28.042v-0.826
		C43.294,15.937,40.618,13.26,37.317,13.26z"/>
	<circle fill="#66273A" cx="22.542" cy="20.765" r="1.682"/>
	<circle fill="#66273A" cx="36.003" cy="20.765" r="1.683"/>
	<rect x="15.252" y="20.063" fill="#852028" width="28.042" height="1.122"/>
</g>
</svg>
