<?xml version="1.0" encoding="utf-8"?>
<!-- Generator: Adobe Illustrator 16.0.0, SVG Export Plug-In . SVG Version: 6.00 Build 0)  -->
<!DOCTYPE svg PUBLIC "-//W3C//DTD SVG 1.1//EN" "http://www.w3.org/Graphics/SVG/1.1/DTD/svg11.dtd">
<svg version="1.1" id="Layer_1" xmlns="http://www.w3.org/2000/svg" xmlns:xlink="http://www.w3.org/1999/xlink" x="0px" y="0px"
	 width="60px" height="60px" viewBox="0 0 60 60" enable-background="new 0 0 60 60" xml:space="preserve">
<g>
	<path fill="#FFDB56" d="M43.019,4.402v12.006c0,3.853-1.605,7.329-4.183,9.794c-2.424,2.317-5.71,3.741-9.335,3.741H29.49
		c-1.104,0-2.18-0.133-3.205-0.382c-5.929-1.44-10.339-6.781-10.339-13.154V4.402c0.149-0.322,0.953-1.354,3.263-2.393
		c1.018-0.458,2.151-0.839,3.37-1.14c2.106-0.522,4.464-0.799,6.903-0.799c3.852,0,7.501,0.69,10.276,1.938
		C42.067,3.048,42.869,4.08,43.019,4.402z"/>
	<ellipse fill="#FFC03B" cx="29.482" cy="16.315" rx="21.518" ry="11.066"/>
	<path fill="#BF571F" d="M47.077,23.589v14.346c0,6.938-5.625,12.563-12.563,12.563H24.448c-6.939,0-12.564-5.625-12.564-12.563
		V23.589H47.077z"/>
	<path fill="#BF571F" d="M47.08,18.389v9.93c0,0.076,0,0.152-0.003,0.228v-4.957h-35.19v-4.821c0-2.956,1.643-5.685,4.28-7.009
		c0.014-0.008,0.024-0.014,0.041-0.021c0.024-0.011,0.049-0.024,0.073-0.036c3.086-1.519,7.626-2.664,13.203-2.664
		c5.577,0,10.114,1.145,13.203,2.664c0.024,0.011,0.049,0.025,0.07,0.036C45.307,13.002,46.939,15.563,47.08,18.389z"/>
	<path fill="#6EEBBD" d="M47.081,59.885H11.887v-0.032c0-4.115,1.533-7.87,4.061-10.729c1.492-1.692,3.333-3.067,5.411-4.018
		c2.053-0.939,4.335-1.465,6.738-1.465h2.74c2.415,0,4.705,0.525,6.765,1.473c2.079,0.953,3.923,2.334,5.417,4.025
		C45.549,52.004,47.081,55.765,47.081,59.885z"/>
	<path fill="#FFA870" d="M37.603,45.114v3.95c0,4.478-3.636,8.121-8.103,8.121h-0.008c-4.483,0-8.133-3.644-8.133-8.121v-3.958
		c2.053-0.939,4.335-1.465,6.738-1.465h2.74C33.253,43.642,35.543,44.167,37.603,45.114z"/>
	<path fill="#F59055" d="M29.5,49.098h-0.009c-2.995,0-5.423-2.429-5.423-5.424v-5.338h10.828V43.7
		C34.896,46.681,32.48,49.098,29.5,49.098z"/>
	<path fill="#FFA870" d="M43.019,14.688v13.63c0,3.853-1.605,7.329-4.183,9.794c-2.423,2.317-5.71,3.741-9.335,3.741H29.49
		c-1.104,0-2.18-0.132-3.205-0.381c-5.929-1.44-10.339-6.782-10.339-13.155v-13.63c0-1.029,0.114-2.025,0.333-2.986
		c3.086-1.519,7.626-2.664,13.203-2.664c5.576,0,10.116,1.145,13.203,2.664C42.904,12.664,43.019,13.66,43.019,14.688z"/>
	<g>
		<path fill="#A12D37" d="M34.896,31.188c0,0.638-0.104,1.246-0.3,1.806c-0.453,1.315-1.392,2.381-2.597,3.002
			c-0.753,0.391-1.61,0.607-2.519,0.607c-0.922,0-1.792-0.224-2.554-0.626c-1.189-0.624-2.113-1.681-2.561-2.983
			c-0.195-0.56-0.3-1.168-0.3-1.806H34.896z"/>
		<path fill="#FFFFFF" d="M34.896,31.188c0,0.638-0.104,1.246-0.3,1.806H24.367c-0.195-0.56-0.3-1.168-0.3-1.806H34.896z"/>
		<path fill="#C93945" d="M32,35.995c-0.753,0.391-1.61,0.607-2.519,0.607c-0.922,0-1.792-0.224-2.554-0.626
			c0.394-1.015,1.379-1.73,2.532-1.73C30.619,34.246,31.61,34.972,32,35.995z"/>
	</g>
	<path fill="#FF8366" d="M32.189,28.752h-5.414v-2.637c0-1.49,1.208-2.698,2.697-2.698h0.005c1.498,0,2.712,1.214,2.712,2.712
		V28.752z"/>
	<path fill="#BF571F" d="M43.02,21.321v-0.022h-2.91c-3.36,0-6.46-1.811-8.11-4.737l0,0v4.737H11.887v-2.531
		c0-2.956,1.643-5.685,4.28-7.009c0.014-0.008,0.024-0.014,0.041-0.021c0.024-0.011,0.049-0.024,0.073-0.036
		c3.086-1.519,7.626-2.664,13.203-2.664c5.577,0,10.114,1.145,13.203,2.664c0.024,0.011,0.049,0.025,0.07,0.036
		c2.55,1.264,4.183,3.825,4.323,6.651c0.009,0.122,0.011,0.247,0.011,0.368l0.012,2.564H43.02z"/>
	<g>
		<path fill="#7A2F45" d="M24.037,25.866v0.667h-4v-0.591c0-1.025,0.738-1.941,1.756-2.061
			C23.01,23.736,24.037,24.682,24.037,25.866z"/>
		<path fill="#7A2F45" d="M38.927,25.866v0.667h-4v-0.591c0-1.025,0.738-1.941,1.756-2.061
			C37.899,23.736,38.927,24.682,38.927,25.866z"/>
	</g>
</g>
</svg>
