<?xml version="1.0" encoding="utf-8"?>
<!-- Generator: Adobe Illustrator 16.0.0, SVG Export Plug-In . SVG Version: 6.00 Build 0)  -->
<!DOCTYPE svg PUBLIC "-//W3C//DTD SVG 1.1//EN" "http://www.w3.org/Graphics/SVG/1.1/DTD/svg11.dtd">
<svg version="1.1" id="Layer_1" xmlns="http://www.w3.org/2000/svg" xmlns:xlink="http://www.w3.org/1999/xlink" x="0px" y="0px"
	 width="60px" height="60px" viewBox="0 0 60 60" enable-background="new 0 0 60 60" xml:space="preserve">
<g>
	<g>
		<g>
			<circle fill="#BF571F" cx="43.837" cy="31.132" r="3.956"/>
			<circle fill="#FF4D60" cx="43.837" cy="31.132" r="2.637"/>
		</g>
		<circle fill="#3D2F45" cx="43.837" cy="31.132" r="1.978"/>
	</g>
	<g>
		<circle fill="#A1491A" cx="16.805" cy="30.913" r="3.956"/>
		<circle fill="#FF4D60" cx="16.805" cy="30.913" r="2.637"/>
		<circle fill="#3D2F45" cx="16.805" cy="30.913" r="1.978"/>
	</g>
	<g>
		<path fill="#F58A4C" d="M17.447,24.056h9.476v6.857h-9.476c-1.896,0-3.434-1.537-3.434-3.434v0.005
			C14.013,25.588,15.55,24.056,17.447,24.056z"/>
		<path fill="#F58A4C" d="M43.325,24.056H33.78v6.857h9.545c1.896,0,3.434-1.537,3.434-3.434v0.005
			C46.759,25.588,45.222,24.056,43.325,24.056z"/>
	</g>
	<path fill="#FFDB56" d="M47.528,59.845H13.243v-0.032c0-4.008,1.493-7.666,3.956-10.451c1.274-1.445,2.812-2.653,4.534-3.553
		c1.63-0.852,3.423-1.427,5.325-1.664c0.646-0.081,1.308-0.124,1.978-0.124h2.669c4.726,0,8.97,2.073,11.867,5.356
		C46.035,52.168,47.528,55.831,47.528,59.845z"/>
	<path fill="#F59055" d="M30.403,50.582h-0.009c-2.913,0-5.283-2.361-5.283-5.275v-5.208H35.66v5.208
		C35.66,48.221,33.316,50.582,30.403,50.582z"/>
	<path fill="#A1491A" d="M45.42,23.22v4.484H15.354V23.22c0-8.289,6.744-15.033,15.033-15.033
		C38.677,8.188,45.42,14.931,45.42,23.22z"/>
	<path fill="#FFA870" d="M43.572,29.812c0,7.283-5.904,13.187-13.187,13.187l0,0c-7.282,0-13.187-5.903-13.187-13.187v-6.593
		c0-7.282,5.904-13.187,13.187-13.187l0,0c7.282,0,13.187,5.904,13.187,13.187V29.812z"/>
	<path fill="#6EEBBD" d="M30.386,41.681c-6.544,0-11.868-5.323-11.868-11.868v-6.593c0-6.543,5.324-11.868,11.868-11.868
		s11.868,5.324,11.868,11.868v6.593C42.254,36.357,36.93,41.681,30.386,41.681z"/>
	<circle fill="#FFA870" cx="23.397" cy="24.486" r="2.901"/>
	<circle fill="#7A2F45" cx="23.397" cy="24.486" r="1.583"/>
	<path fill="#FFA870" d="M37.375,27.387c-1.6,0-2.901-1.301-2.901-2.901c0-1.6,1.302-2.901,2.901-2.901s2.901,1.301,2.901,2.901
		C40.276,26.085,38.975,27.387,37.375,27.387z"/>
	<circle fill="#7A2F45" cx="37.375" cy="24.486" r="1.583"/>
	<path fill="#F57355" d="M33.023,27.703h-5.275v-2.561c0-1.456,1.172-2.637,2.628-2.637h0.005c1.457,0,2.642,1.181,2.642,2.637
		V27.703z"/>
	<path fill="#FFA870" d="M30.386,37.942c-1.158,0-2.303-0.28-3.31-0.812c-1.571-0.825-2.755-2.205-3.333-3.885
		c-0.256-0.735-0.387-1.522-0.387-2.332v-1.318h14.059v1.318c0,0.809-0.131,1.595-0.389,2.338c-0.583,1.693-1.784,3.082-3.381,3.903
		C32.656,37.67,31.527,37.942,30.386,37.942z"/>
	<path fill="#A12D37" d="M36.097,30.913c0,0.672-0.11,1.313-0.315,1.903c-0.479,1.388-1.468,2.512-2.74,3.167
		c-0.793,0.412-1.697,0.641-2.655,0.641c-0.973,0-1.89-0.235-2.693-0.66c-1.255-0.658-2.229-1.772-2.702-3.147
		c-0.206-0.59-0.316-1.231-0.316-1.903H36.097z"/>
	<path fill="#FFFFFF" d="M36.097,30.913c0,0.672-0.11,1.313-0.315,1.903H24.991c-0.206-0.59-0.316-1.231-0.316-1.903H36.097z"/>
	<path fill="#C93945" d="M33.041,35.983c-0.793,0.412-1.697,0.641-2.655,0.641c-0.973,0-1.89-0.235-2.693-0.66
		c0.415-1.07,1.454-1.826,2.671-1.826C31.586,34.138,32.63,34.903,33.041,35.983z"/>
	<path fill="#1BB833" d="M38.959,45.852l-5.321,7.218l-3.279,4.447l-3.276-4.447l3.276-4.443l4.354-5.905
		c0.865-1.174,2.517-1.422,3.688-0.559C39.573,43.026,39.821,44.678,38.959,45.852z"/>
	<path fill="#1FD43B" d="M38.63,59.845h-6.554l-1.717-2.328l-3.276-4.447l-5.322-7.218c-0.011-0.014-0.021-0.029-0.029-0.043
		c-0.831-1.171-0.572-2.793,0.585-3.646c1.173-0.866,2.824-0.615,3.689,0.559l1.05,1.424l3.302,4.481l3.279,4.443L38.63,59.845z"/>
	<g>
		
			<rect x="27.025" y="2.956" transform="matrix(0.9122 0.4098 -0.4098 0.9122 5.9017 -13.7116)" fill="#FF4D60" width="15.824" height="7.912"/>
		
			<rect x="28.344" y="2.956" transform="matrix(0.9122 0.4098 -0.4098 0.9122 5.9018 -13.7118)" fill="#A1491A" width="13.186" height="7.912"/>
	</g>
	<g>
		
			<rect x="10.323" y="6.425" transform="matrix(0.6807 -0.7326 0.7326 0.6807 -1.7821 16.6732)" fill="#FF4D60" width="15.824" height="7.912"/>
		
			<rect x="11.641" y="6.425" transform="matrix(0.6807 -0.7326 0.7326 0.6807 -1.7821 16.6726)" fill="#A1491A" width="13.187" height="7.912"/>
	</g>
	<g>
		
			<rect x="34.411" y="10.335" transform="matrix(0.7356 0.6774 -0.6774 0.7356 20.8688 -24.8909)" fill="#FF4D60" width="15.824" height="7.912"/>
		
			<rect x="35.73" y="10.334" transform="matrix(0.7356 0.6774 -0.6774 0.7356 20.8702 -24.8916)" fill="#BF571F" width="13.187" height="7.913"/>
	</g>
	<g>
		
			<rect x="18.85" y="5.098" transform="matrix(0.9885 -0.1513 0.1513 0.9885 -1.0616 4.1521)" fill="#FF4D60" width="15.825" height="7.912"/>
		
			<rect x="20.169" y="5.098" transform="matrix(0.9885 -0.1513 0.1513 0.9885 -1.0616 4.1521)" fill="#BF571F" width="13.187" height="7.912"/>
	</g>
	<g>
		<g>
			<circle fill="#BF571F" cx="47.001" cy="27.484" r="3.956"/>
			<circle fill="#FF4D60" cx="47.001" cy="27.484" r="2.638"/>
		</g>
		<circle fill="#3D2F45" cx="47.001" cy="27.484" r="1.978"/>
	</g>
	<g>
		<circle fill="#A1491A" cx="47.001" cy="22.505" r="3.956"/>
		<circle fill="#FF4D60" cx="47.001" cy="22.505" r="2.638"/>
		<circle fill="#3D2F45" cx="47.001" cy="22.505" r="1.978"/>
	</g>
	<g>
		<g>
			<circle fill="#BF571F" cx="15.192" cy="21.321" r="3.956"/>
			<circle fill="#FF4D60" cx="15.192" cy="21.321" r="2.637"/>
		</g>
		<circle fill="#3D2F45" cx="15.192" cy="21.321" r="1.978"/>
	</g>
	<g>
		<g>
			<circle fill="#BF571F" cx="13.412" cy="26.516" r="3.956"/>
			<circle fill="#FF4D60" cx="13.412" cy="26.516" r="2.637"/>
		</g>
		<circle fill="#3D2F45" cx="13.412" cy="26.516" r="1.978"/>
	</g>
</g>
</svg>
