<?xml version="1.0" encoding="utf-8"?>
<!-- Generator: Adobe Illustrator 16.0.0, SVG Export Plug-In . SVG Version: 6.00 Build 0)  -->
<!DOCTYPE svg PUBLIC "-//W3C//DTD SVG 1.1//EN" "http://www.w3.org/Graphics/SVG/1.1/DTD/svg11.dtd">
<svg version="1.1" id="Layer_1" xmlns="http://www.w3.org/2000/svg" xmlns:xlink="http://www.w3.org/1999/xlink" x="0px" y="0px"
	 width="60px" height="60px" viewBox="0 0 60 60" enable-background="new 0 0 60 60" xml:space="preserve">
<g>
	<path fill="#BF571F" d="M48.1,19.979v14.193c0,4.202-1.461,8.068-3.903,11.122c-3.271,4.095-8.303,6.722-13.94,6.722
		c-5.637,0-10.669-2.627-13.939-6.722c-2.442-3.054-3.903-6.92-3.903-11.122V19.979H48.1z"/>
	<path fill="#FFDB56" d="M48.099,17.917v16.256c0,4.202-1.461,8.068-3.903,11.122c-3.27,4.095-8.302,6.722-13.939,6.722
		c-5.637,0-10.669-2.627-13.94-6.722c-2.442-3.054-3.903-6.92-3.903-11.122V17.917c0-9.855,7.987-17.843,17.843-17.843
		c4.927,0,9.388,1.996,12.615,5.225c0.234,0.234,0.463,0.474,0.684,0.722c2.121,2.372,3.618,5.311,4.232,8.564
		C47.993,15.664,48.099,16.779,48.099,17.917z"/>
	<path fill="#9BE053" d="M48.378,59.927H12.134v-0.033c0-4.238,1.578-8.105,4.182-11.049c3.056-3.463,7.531-5.646,12.513-5.646
		h2.822c4.996,0,9.481,2.19,12.545,5.662C46.8,51.811,48.378,55.684,48.378,59.927z"/>
	<path fill="#FFFFFF" d="M39.398,56.487l-9.143-3.067l-9.143,3.067v-8.712c0-5.049,4.093-9.142,9.143-9.142l0,0
		c5.049,0,9.143,4.093,9.143,9.142V56.487z"/>
	<path fill="#F59055" d="M30.27,50.134L30.27,50.134c-3.087,0-5.59-2.502-5.59-5.59v-5.492h11.152v5.52
		C35.832,47.644,33.341,50.134,30.27,50.134z"/>
	<path fill="#FFA870" d="M30.256,42.118L30.256,42.118c-7.699,0-13.94-6.241-13.94-13.939V16.5c0-5.098,4.133-9.231,9.231-9.231
		h9.417c5.098,0,9.23,4.133,9.23,9.231v11.679C44.195,35.877,37.954,42.118,30.256,42.118z"/>
	<circle fill="#7A2F45" cx="23.146" cy="22.547" r="1.673"/>
	<circle fill="#7A2F45" cx="37.365" cy="22.547" r="1.673"/>
	<path fill="#F57355" d="M33.044,25.948h-5.576v-2.714c0-1.536,1.245-2.781,2.781-2.781l0,0c1.543,0,2.795,1.252,2.795,2.795V25.948
		z"/>
	<path fill="#A12D37" d="M38.619,28.179c0,0.984-0.161,1.923-0.463,2.787c-0.699,2.033-2.149,3.678-4.012,4.637
		c-1.162,0.605-2.486,0.939-3.889,0.939c-1.425,0-2.769-0.345-3.945-0.967c-1.837-0.965-3.264-2.596-3.956-4.609
		c-0.301-0.864-0.463-1.803-0.463-2.787H38.619z"/>
	<path fill="#FFFFFF" d="M38.619,28.179c0,0.984-0.161,1.923-0.463,2.787H22.354c-0.301-0.864-0.463-1.803-0.463-2.787H38.619z"/>
	<path fill="#C93945" d="M34.145,35.603c-1.162,0.605-2.486,0.939-3.889,0.939c-1.425,0-2.769-0.345-3.945-0.967
		c0.608-1.566,2.13-2.674,3.912-2.674C32.012,32.901,33.543,34.022,34.145,35.603z"/>
	<path fill="#FFDB56" d="M38.731,7.269H16.316v11.809h5.773c5.575,0,10.773-2.814,13.82-7.483L38.731,7.269z"/>
	<path fill="#FFDB56" d="M47.787,14.585c-2.251,2.744-5.663,4.491-9.485,4.491h-2.56V6.021h7.812
		C45.676,8.393,47.173,11.332,47.787,14.585z"/>
</g>
</svg>
