<?xml version="1.0" encoding="utf-8"?>
<!-- Generator: Adobe Illustrator 16.0.0, SVG Export Plug-In . SVG Version: 6.00 Build 0)  -->
<!DOCTYPE svg PUBLIC "-//W3C//DTD SVG 1.1//EN" "http://www.w3.org/Graphics/SVG/1.1/DTD/svg11.dtd">
<svg version="1.1" id="Layer_1" xmlns="http://www.w3.org/2000/svg" xmlns:xlink="http://www.w3.org/1999/xlink" x="0px" y="0px"
	 width="60px" height="60px" viewBox="0 0 60 60" enable-background="new 0 0 60 60" xml:space="preserve">
<g>
	<path fill="#12B0FF" d="M49.27,18.914c0,4.01-1.254,7.726-3.389,10.777c-1.308,1.869-2.943,3.49-4.83,4.773
		c-3.02,2.065-6.671,3.271-10.604,3.271c-10.396,0-18.824-8.427-18.824-18.822c0-10.143,8.022-18.412,18.069-18.808
		c0.25-0.009,0.502-0.015,0.755-0.015c4.899,0,9.364,1.874,12.714,4.947C46.917,8.478,49.27,13.421,49.27,18.914z"/>
	<path fill="#3D2F45" d="M49.503,60H11.317v-0.542c0-9.434,7.648-17.082,17.083-17.082h3.987c9.453,0,17.116,7.663,17.116,17.117V60
		z"/>
	<path fill="#96A24E" d="M30.598,49.683H30.25c-3.156,0-5.715-2.559-5.715-5.715v-5.962h11.749v5.99
		C36.284,47.137,33.739,49.683,30.598,49.683z"/>
	<path fill="#E6F0FF" d="M33.655,53.465c-0.905-0.907-2.092-1.36-3.282-1.36c-1.187,0-2.376,0.453-3.281,1.36
		c-1.797,1.797-1.739,4.699,0.033,6.515h2.349l0.899-1.561l0.9,1.561h2.495c0.877-0.898,1.282-2.068,1.282-3.234
		C35.051,55.555,34.562,54.369,33.655,53.465z M28.426,58.396c-0.79,0-1.43-0.644-1.43-1.435c0-0.789,0.64-1.43,1.43-1.43
		c0.793,0,1.434,0.641,1.434,1.43C29.86,57.753,29.219,58.396,28.426,58.396z M32.321,58.396c-0.789,0-1.434-0.644-1.434-1.435
		c0-0.789,0.645-1.43,1.434-1.43c0.79,0,1.431,0.641,1.431,1.43C33.752,57.753,33.111,58.396,32.321,58.396z"/>
	<path fill="#918A49" d="M36.284,41.583v2.234c-0.006,3.24-2.614,5.866-5.856,5.866h-0.009c-0.787,0-1.539-0.156-2.224-0.435
		C28.421,44.974,31.955,41.583,36.284,41.583z"/>
	<path fill="#C98D4C" d="M36.284,43.817c-0.006,3.24-2.614,5.866-5.856,5.866h-0.009C30.419,46.443,33.046,43.817,36.284,43.817z"/>
	<rect x="24.535" y="40.012" fill="#918A49" width="11.749" height="2.92"/>
	<path fill="#F59055" d="M15.449,18.913h10.555v7.637H15.449c-2.112,0-3.824-1.711-3.824-3.824v0.005
		C11.625,20.62,13.337,18.913,15.449,18.913z"/>
	<path fill="#F59055" d="M45.447,18.913H34.815v7.637h10.632c2.111,0,3.824-1.711,3.824-3.824v0.005
		C49.271,20.62,47.559,18.913,45.447,18.913z"/>
	<path fill="#FFA870" d="M30.833,41.237h-0.846c-7.877,0-14.264-6.386-14.264-14.264v-8.19c0-7.877,6.387-14.263,14.264-14.263
		h0.846c7.878,0,14.264,6.386,14.264,14.263v8.19C45.097,34.852,38.711,41.237,30.833,41.237z"/>
	<path fill="#A978FF" d="M26.942,20.618h-8.045c0-2.222,1.801-4.023,4.022-4.023S26.942,18.396,26.942,20.618z"/>
	<path fill="#3BBEFF" d="M41.517,20.618h-7.232c0-1.997,1.619-3.616,3.616-3.616S41.517,18.621,41.517,20.618z"/>
	<circle fill="#7A2F45" cx="22.92" cy="20.618" r="1.762"/>
	<circle fill="#7A2F45" cx="37.901" cy="20.618" r="1.762"/>
	<path fill="#852028" d="M39.222,26.55c0,1.037-0.169,2.027-0.487,2.938c-0.736,2.141-2.265,3.875-4.226,4.885
		c-1.226,0.638-2.621,0.989-4.099,0.989c-1.501,0-2.917-0.363-4.156-1.019c-1.936-1.018-3.44-2.735-4.168-4.856
		c-0.317-0.91-0.488-1.9-0.488-2.938H39.222z"/>
	<path fill="#FFFFFF" d="M39.222,26.55c0,1.037-0.169,2.027-0.487,2.938H22.086c-0.317-0.91-0.488-1.9-0.488-2.938H39.222z"/>
	<path fill="#B8343F" d="M34.509,34.373c-1.226,0.638-2.621,0.989-4.099,0.989c-1.501,0-2.917-0.363-4.156-1.019
		c0.64-1.651,2.244-2.817,4.121-2.817C32.26,31.526,33.873,32.708,34.509,34.373z"/>
	<path fill="#FFDB56" d="M27.472,23.097c0.609,0,1.105,0.495,1.105,1.104c0,0.609-0.496,1.104-1.105,1.104
		c-0.608,0-1.104-0.495-1.104-1.104C26.369,23.592,26.864,23.097,27.472,23.097L27.472,23.097z M27.472,22.51
		c-0.934,0-1.69,0.756-1.69,1.69c0,0.935,0.757,1.692,1.69,1.692c0.935,0,1.692-0.757,1.692-1.692
		C29.164,23.266,28.407,22.51,27.472,22.51L27.472,22.51z"/>
	<path fill="#F57355" d="M33.347,24.2h-5.875v-2.946c0-1.57,1.273-2.842,2.844-2.842h0.179c1.576,0,2.852,1.276,2.852,2.852V24.2z"
		/>
	<circle fill="#FFDB56" cx="14.025" cy="24.201" r="0.926"/>
	<circle fill="#FFDB56" cx="13.1" cy="21.954" r="0.612"/>
	<path fill="#12B0FF" d="M49.27,18.914v19.617c-3.017-0.822-5.797-2.219-8.219-4.066c-5.723-4.371-9.411-11.266-9.411-19.02V3.813
		l11.521,1.225C46.917,8.478,49.27,13.421,49.27,18.914z"/>
	<path fill="#12B0FF" d="M31.737,2.051v14.9c-6.606,0-11.961-5.356-11.961-11.962L31.737,2.051z"/>
</g>
</svg>
