<?xml version="1.0" encoding="utf-8"?>
<!-- Generator: Adobe Illustrator 16.0.0, SVG Export Plug-In . SVG Version: 6.00 Build 0)  -->
<!DOCTYPE svg PUBLIC "-//W3C//DTD SVG 1.1//EN" "http://www.w3.org/Graphics/SVG/1.1/DTD/svg11.dtd">
<svg version="1.1" id="Layer_1" xmlns="http://www.w3.org/2000/svg" xmlns:xlink="http://www.w3.org/1999/xlink" x="0px" y="0px"
	 width="60px" height="60px" viewBox="0 0 60 60" enable-background="new 0 0 60 60" xml:space="preserve">
<g>
	<g>
		<path fill="#D64151" d="M43.658,49.137h-2.684v-1.914C41.944,47.755,42.848,48.398,43.658,49.137z"/>
		<path fill="#D64151" d="M46.511,52.758h-1.914v-2.68C45.335,50.889,45.979,51.788,46.511,52.758z"/>
		<path fill="#9C2F3B" d="M44.597,50.078v2.68h-3.622v-3.621h2.684C43.986,49.435,44.299,49.749,44.597,50.078z"/>
		<path fill="#FF4D60" d="M40.975,47.223v1.914h-3.621v-3.282C38.637,46.142,39.852,46.606,40.975,47.223z"/>
		<path fill="#D64151" d="M37.354,45.854v3.282h-3.622v-3.622h0.558C35.342,45.515,36.367,45.632,37.354,45.854z"/>
		<rect x="37.354" y="49.138" fill="#D64151" width="3.623" height="3.621"/>
		<rect x="33.732" y="49.138" fill="#9C2F3B" width="3.621" height="3.621"/>
		<rect x="30.109" y="45.515" fill="#FF4D60" width="3.622" height="3.622"/>
		<rect x="26.487" y="45.515" fill="#D64151" width="3.622" height="3.622"/>
		<rect x="30.11" y="49.138" fill="#D64151" width="3.622" height="3.621"/>
		<rect x="26.489" y="49.138" fill="#9C2F3B" width="3.622" height="3.621"/>
		<path fill="#FF4D60" d="M26.487,45.515v3.622h-3.622v-3.282c0.987-0.223,2.012-0.34,3.065-0.34H26.487z"/>
		<path fill="#D64151" d="M22.865,45.854v3.282h-3.622v-1.912C20.367,46.606,21.584,46.142,22.865,45.854z"/>
		<rect x="22.867" y="49.138" fill="#D64151" width="3.622" height="3.621"/>
		<rect x="19.245" y="49.138" fill="#9C2F3B" width="3.622" height="3.621"/>
		<path fill="#FF4D60" d="M19.243,47.225v1.912h-2.68C17.374,48.398,18.274,47.755,19.243,47.225z"/>
		<path fill="#D64151" d="M19.243,49.137v3.621h-3.622v-2.68c0.298-0.329,0.613-0.644,0.942-0.941H19.243z"/>
		<path fill="#9C2F3B" d="M15.622,50.078v2.68H13.71C14.24,51.788,14.883,50.889,15.622,50.078z"/>
		<path fill="#FF4D60" d="M47.879,56.38h-3.282v-3.622h1.914C47.127,53.881,47.592,55.099,47.879,56.38z"/>
		<rect x="40.977" y="52.759" fill="#D64151" width="3.621" height="3.622"/>
		<path fill="#D64151" d="M48.219,59.444v0.558h-3.622V56.38h3.282C48.102,57.366,48.219,58.392,48.219,59.444z"/>
		<rect x="40.977" y="56.381" fill="#9C2F3B" width="3.621" height="3.622"/>
		<rect x="37.354" y="52.759" fill="#FF4D60" width="3.623" height="3.622"/>
		<rect x="33.732" y="52.759" fill="#D64151" width="3.621" height="3.622"/>
		<rect x="37.354" y="56.381" fill="#D64151" width="3.623" height="3.622"/>
		<rect x="33.732" y="56.381" fill="#9C2F3B" width="3.621" height="3.622"/>
		<rect x="30.11" y="52.759" fill="#FF4D60" width="3.622" height="3.622"/>
		<rect x="26.489" y="52.759" fill="#D64151" width="3.622" height="3.622"/>
		<rect x="30.11" y="56.381" fill="#D64151" width="3.622" height="3.622"/>
		<rect x="26.489" y="56.381" fill="#9C2F3B" width="3.622" height="3.622"/>
		<rect x="22.867" y="52.759" fill="#FF4D60" width="3.622" height="3.622"/>
		<rect x="19.245" y="52.759" fill="#D64151" width="3.622" height="3.622"/>
		<rect x="22.867" y="56.381" fill="#D64151" width="3.622" height="3.622"/>
		<rect x="19.245" y="56.381" fill="#9C2F3B" width="3.622" height="3.622"/>
		<rect x="15.623" y="52.759" fill="#FF4D60" width="3.622" height="3.622"/>
		<path fill="#D64151" d="M15.622,52.758v3.622H12.34c0.287-1.281,0.752-2.499,1.371-3.622H15.622z"/>
		<rect x="15.623" y="56.381" fill="#D64151" width="3.622" height="3.622"/>
		<path fill="#9C2F3B" d="M15.622,56.38v3.622H12v-0.558c0-1.053,0.117-2.078,0.34-3.064H15.622z"/>
	</g>
	<path fill="#5C4769" d="M30.109,40.569L30.109,40.569c-5.001,0-9.055,4.054-9.055,9.055v6.757l9.056-3.622l9.054,3.622v-6.757
		C39.164,44.623,35.109,40.569,30.109,40.569z"/>
	<path fill="#BF571F" d="M46.924,16.328l-1.256,8.066l-15.521,1.019l-15.524-1.019l-1.257-8.066
		C12.052,7.882,18.583,0.255,27.132,0.255h6.03C41.707,0.255,48.242,7.882,46.924,16.328z"/>
	<g>
		<path fill="#F58A4C" d="M16.477,22.125h10.011v7.244H16.477c-2.003,0-3.627-1.624-3.627-3.627v0.005
			C12.85,23.744,14.474,22.125,16.477,22.125z"/>
		<path fill="#F58A4C" d="M43.814,22.125H33.731v7.244h10.083c2.003,0,3.627-1.624,3.627-3.627v0.005
			C47.441,23.744,45.817,22.125,43.814,22.125z"/>
	</g>
	<path fill="#F58A4C" d="M30.127,51.052h-0.009c-3.077,0-5.581-2.495-5.581-5.572v-5.502h11.145v5.502
		C35.682,48.557,33.205,51.052,30.127,51.052z"/>
	<path fill="#FFA870" d="M30.127,43.411h-0.009c-7.698,0-13.939-6.24-13.939-13.938V13.905h27.86V29.5
		C44.039,37.183,37.811,43.411,30.127,43.411z"/>
	<path fill="#FF8366" d="M32.895,27.14h-5.571v-2.705c0-1.539,1.238-2.786,2.776-2.786h0.005c1.538,0,2.79,1.248,2.79,2.786V27.14z"
		/>
	<circle fill="#7A2F45" cx="23.005" cy="23.741" r="1.672"/>
	<circle fill="#7A2F45" cx="37.214" cy="23.741" r="1.671"/>
	<path fill="#BF571F" d="M30.225,45.771h-0.231c-7.629,0-13.814-6.186-13.814-13.815l0,0c0-2.66,2.156-4.816,4.816-4.816h18.227
		c2.66,0,4.816,2.156,4.816,4.816l0,0C44.039,39.586,37.854,45.771,30.225,45.771z"/>
	<path fill="#A12D37" d="M36.67,31.404c0,0.771-0.129,1.507-0.362,2.185c-0.549,1.596-1.688,2.886-3.147,3.638
		c-0.087,0.045-0.176,0.09-0.266,0.129c-0.847,0.393-1.791,0.607-2.786,0.607s-1.939-0.215-2.786-0.607
		c-0.104-0.048-0.206-0.098-0.307-0.15c-1.443-0.758-2.563-2.037-3.104-3.616c-0.237-0.678-0.365-1.413-0.365-2.185H36.67z"/>
	<path fill="#FFFFFF" d="M36.67,31.403c0,0.771-0.127,1.509-0.363,2.187H23.912c-0.236-0.678-0.363-1.415-0.363-2.187H36.67z"/>
	<path fill="#C93945" d="M32.895,37.355c-0.847,0.393-1.791,0.607-2.786,0.607s-1.939-0.215-2.786-0.607
		c0.062-1.485,1.284-2.672,2.786-2.672C31.61,34.684,32.834,35.87,32.895,37.355z"/>
	<rect x="19.801" y="18.293" fill="#BF571F" width="6.408" height="1.672"/>
	<rect x="34.01" y="18.293" fill="#BF571F" width="6.408" height="1.672"/>
	<circle fill="#FFFFFF" cx="30.11" cy="56.381" r="1.132"/>
</g>
</svg>
