<?xml version="1.0" encoding="utf-8"?>
<!-- Generator: Adobe Illustrator 16.0.0, SVG Export Plug-In . SVG Version: 6.00 Build 0)  -->
<!DOCTYPE svg PUBLIC "-//W3C//DTD SVG 1.1//EN" "http://www.w3.org/Graphics/SVG/1.1/DTD/svg11.dtd">
<svg version="1.1" id="Layer_1" xmlns="http://www.w3.org/2000/svg" xmlns:xlink="http://www.w3.org/1999/xlink" x="0px" y="0px"
	 width="60px" height="60px" viewBox="0 0 60 60" enable-background="new 0 0 60 60" xml:space="preserve">
<g>
	<path fill="#2EC945" d="M48.148,59.962H10.569v-5.141c0-7.85,6.363-14.213,14.213-14.213h9.119c7.868,0,14.247,6.379,14.247,14.247
		V59.962z"/>
	<rect x="26.468" y="46.606" fill="#28AD3B" width="5.782" height="13.355"/>
	<path fill="#FF5F36" d="M46.125,29.046v-5.085v-0.119v-7.108c0-4.478-1.736-8.689-4.901-11.855
		c-3.163-3.168-7.365-4.911-11.846-4.911c-9.244,0-16.785,7.521-16.785,16.766v7.108v0.119v5.085H9.687
		c0,3.192,2.589,5.781,5.781,5.781h27.751c3.192,0,5.781-2.589,5.781-5.781H46.125z"/>
	<g>
		<path fill="#F58A4C" d="M15.215,16.327h10.387v7.515H15.215c-2.079,0-3.764-1.685-3.764-3.763v0.006
			C11.451,18.006,13.136,16.327,15.215,16.327z"/>
		<path fill="#F58A4C" d="M43.579,16.327H33.117v7.515h10.462c2.078,0,3.763-1.685,3.763-3.763v0.006
			C47.342,18.006,45.657,16.327,43.579,16.327z"/>
	</g>
	<path fill="#9BE053" d="M29.359,35.389c-5.579,0-10.117,4.539-10.117,10.117v5.847l10.117-3.229l10.117,3.229v-5.847
		C39.477,39.928,34.938,35.389,29.359,35.389z"/>
	<path fill="#F58A4C" d="M29.427,46.606h-0.136c-3.155,0-5.713-2.558-5.713-5.714v-5.776h11.562v5.776
		C35.141,44.049,32.582,46.606,29.427,46.606z"/>
	<path fill="#FFA870" d="M43.812,16.734v7.227c0,4.463-2.005,8.452-5.185,11.104c-1.04,0.87-2.199,1.596-3.459,2.145
		c-1.283,0.561-2.66,0.942-4.109,1.11c-0.546,0.063-1.102,0.095-1.665,0.095c-0.61,0-1.21-0.037-1.8-0.112
		c-1.399-0.174-2.736-0.546-3.979-1.093c-1.261-0.549-2.447-1.274-3.488-2.145c-3.18-2.651-5.222-6.64-5.222-11.104v-7.227
		c0-5.952,3.615-11.063,8.755-13.277c1.752-0.757,3.695-1.176,5.727-1.176c1.992,0,3.891,0.402,5.616,1.13
		c1.737,0.729,3.282,1.79,4.591,3.102C42.21,9.129,43.812,12.742,43.812,16.734z"/>
	<circle fill="#7A2F45" cx="21.988" cy="18.004" r="1.734"/>
	<circle fill="#7A2F45" cx="36.73" cy="18.004" r="1.734"/>
	<path fill="#FF5F36" d="M31.094,34.827v3.492c-0.578,0.063-1.104,0.095-1.668,0.095c-0.61,0-1.223-0.037-1.801-0.112v-3.475H31.094
		z"/>
	<path fill="#FF5F36" d="M38.031,20.374H20.688h-3.469v3.469c0,1.394,0.221,2.75,0.662,4.019c0.496,1.448,1.251,2.763,2.229,3.9
		v3.304c1.156,0.87,2.312,1.596,3.469,2.145v-2.647V23.842h11.562v10.675v2.691c1.156-0.549,2.602-1.274,3.469-2.145v-3.312
		c0.012-0.014,0.025-0.027,0.037-0.041c0.951-1.119,1.691-2.417,2.181-3.836c0.447-1.283,0.673-2.639,0.673-4.033v-3.469H38.031z"/>
	<path fill="#F58A4C" d="M32.25,21.53h-5.782v-2.85c0-1.573,1.275-2.847,2.848-2.847h0.073c1.58,0,2.861,1.281,2.861,2.862V21.53z"
		/>
	<path fill="#A12D37" d="M38.031,23.842c0,1.021-0.168,1.995-0.479,2.891c-0.727,2.107-2.229,3.812-4.16,4.807
		c-1.205,0.628-2.578,0.975-4.032,0.975c-1.478,0-2.871-0.358-4.091-1.003c-1.904-1-3.385-2.692-4.102-4.778
		c-0.312-0.896-0.479-1.871-0.479-2.891H38.031z"/>
	<path fill="#FFFFFF" d="M38.031,23.842c0,1.021-0.168,1.995-0.479,2.891H21.167c-0.312-0.896-0.479-1.871-0.479-2.891H38.031z"/>
	<path fill="#C93945" d="M33.392,31.54c-1.205,0.628-2.578,0.975-4.032,0.975c-1.478,0-2.871-0.358-4.091-1.003
		c0.631-1.625,2.209-2.772,4.056-2.772C31.181,28.739,32.768,29.901,33.392,31.54z"/>
	<path fill="#FF5F36" d="M35.008,3.411c-0.523,2.651-2.862,4.651-5.669,4.651c-2.789,0-5.116-1.977-5.66-4.605
		c1.752-0.757,3.686-1.176,5.718-1.176C31.389,2.281,33.281,2.683,35.008,3.411z"/>
	<circle fill="#FFFAF1" cx="29.396" cy="51.353" r="1.156"/>
</g>
</svg>
