<?xml version="1.0" encoding="utf-8"?>
<!-- Generator: Adobe Illustrator 16.0.0, SVG Export Plug-In . SVG Version: 6.00 Build 0)  -->
<!DOCTYPE svg PUBLIC "-//W3C//DTD SVG 1.1//EN" "http://www.w3.org/Graphics/SVG/1.1/DTD/svg11.dtd">
<svg version="1.1" id="Layer_1" xmlns="http://www.w3.org/2000/svg" xmlns:xlink="http://www.w3.org/1999/xlink" x="0px" y="0px"
	 width="60px" height="60px" viewBox="0 0 60 60" enable-background="new 0 0 60 60" xml:space="preserve">
<g>
	<path fill="#2EC945" d="M47.96,57.103v2.777H12.735v-2.777c0-7.481,6.102-13.48,13.583-13.48h8.129
		C41.931,43.622,47.96,49.621,47.96,57.103z"/>
	<path fill="#0B6ED9" d="M47.96,57.103v2.777H30.348V43.622h4.1C41.931,43.622,47.96,49.621,47.96,57.103z"/>
	<path fill="#FFC03B" d="M43.871,44.605c-0.4,7.11-6.306,12.771-13.504,12.771h-0.009c-7.208,0-13.123-5.649-13.534-12.752
		c2.642-1.985,5.931-3.167,9.494-3.167h8.129C37.98,41.457,41.246,42.631,43.871,44.605z"/>
	<path fill="#7B5F8C" d="M47.962,21.135v6.774c0,1.195-0.125,2.363-0.366,3.489H14.729c-0.241-1.126-0.366-2.294-0.366-3.489v-6.774
		c0-9.264,7.535-16.8,16.799-16.8C40.424,4.335,47.962,11.871,47.962,21.135z"/>
	<path fill="#7B5F8C" d="M42.136,36.669H18.562c-5.462,0-9.89-4.428-9.89-9.89l0,0c0-5.462,4.428-9.89,9.89-9.89h23.574
		c5.462,0,9.89,4.428,9.89,9.89l0,0C52.025,32.241,47.598,36.669,42.136,36.669z"/>
	<g>
		<path fill="#F59055" d="M17.09,20.863h9.736v7.045H17.09c-1.948,0-3.527-1.58-3.527-3.527v0.005
			C13.562,22.437,15.142,20.863,17.09,20.863z"/>
		<path fill="#F59055" d="M43.678,20.863h-9.807v7.045h9.807c1.948,0,3.527-1.58,3.527-3.527v0.005
			C47.205,22.437,45.626,20.863,43.678,20.863z"/>
	</g>
	<path fill="#F59055" d="M30.366,49.246h-0.009c-2.993,0-5.428-2.427-5.428-5.42v-5.351h10.838v5.351
		C35.768,46.819,33.359,49.246,30.366,49.246z"/>
	<path fill="#FFA870" d="M30.349,41.456L30.349,41.456c-7.482,0-13.548-6.065-13.548-13.548v-5.735
		c0-7.482,6.066-13.548,13.548-13.548l0,0c7.482,0,13.548,6.066,13.548,13.548v5.735C43.896,35.391,37.831,41.456,30.349,41.456z"/>
	<g>
		<g>
			<path fill="#7A2F45" d="M20.013,20.438c0.49-1.184,1.657-2.019,3.015-2.019c0.401,0,0.784,0.073,1.139,0.205L20.013,20.438z"/>
			<path fill="#FFFFFF" d="M20.013,22.065c-0.207,0-0.417-0.04-0.621-0.124c-0.83-0.344-1.224-1.295-0.881-2.124
				c0.76-1.836,2.533-3.023,4.518-3.023c0.586,0,1.161,0.104,1.708,0.309c0.841,0.314,1.268,1.251,0.953,2.092
				c-0.314,0.841-1.251,1.268-2.092,0.953c-0.182-0.068-0.373-0.102-0.569-0.102c-0.664,0-1.257,0.398-1.512,1.014
				C21.256,21.687,20.651,22.065,20.013,22.065z"/>
		</g>
		<circle fill="#7A2F45" cx="23.028" cy="21.681" r="2.177"/>
	</g>
	<g>
		<g>
			<path fill="#7A2F45" d="M40.684,20.438c-0.489-1.184-1.656-2.019-3.015-2.019c-0.4,0-0.784,0.073-1.139,0.205L40.684,20.438z"/>
			<path fill="#FFFFFF" d="M40.685,22.065c-0.638,0-1.244-0.378-1.503-1.005c-0.255-0.616-0.849-1.014-1.513-1.014
				c-0.195,0-0.388,0.034-0.569,0.102c-0.842,0.314-1.777-0.112-2.092-0.953c-0.314-0.841,0.112-1.778,0.953-2.092
				c0.547-0.205,1.122-0.309,1.708-0.309c1.985,0,3.758,1.187,4.518,3.023c0.343,0.829-0.052,1.78-0.881,2.124
				C41.103,22.025,40.892,22.065,40.685,22.065z"/>
		</g>
		<circle fill="#7A2F45" cx="37.669" cy="21.681" r="2.177"/>
	</g>
	<path fill="#FFFFFF" d="M30.35,39.379c-1.677,0-3.336-0.408-4.799-1.181c-2.038-1.072-3.627-2.782-4.542-4.869
		c-2.017-0.751-3.458-2.695-3.458-4.97c0-2.922,2.377-5.3,5.3-5.3c1.932,0,3.626,1.041,4.551,2.591h5.89
		c0.926-1.55,2.62-2.591,4.554-2.591c2.921,0,5.297,2.378,5.297,5.3c0,2.275-1.439,4.219-3.455,4.97
		c-0.931,2.116-2.545,3.839-4.618,4.908C33.635,38.983,32,39.379,30.35,39.379z"/>
	<path fill="#FF4D60" d="M40.435,28.359c0,1.431-1.157,2.59-2.588,2.59c-0.067,0-0.136-0.003-0.203-0.008
		c-0.06,0.246-0.13,0.487-0.212,0.726c-0.623,1.808-1.902,3.284-3.604,4.162c-1.054,0.548-2.26,0.84-3.479,0.84
		c-1.238,0-2.461-0.3-3.534-0.867c-1.675-0.88-2.937-2.349-3.55-4.137c-0.083-0.236-0.154-0.478-0.208-0.724
		c-0.068,0.005-0.135,0.008-0.206,0.008c-1.431,0-2.59-1.16-2.59-2.59c0-1.43,1.16-2.59,2.59-2.59s2.588,1.16,2.588,2.59h9.816
		c0-1.43,1.16-2.59,2.591-2.59S40.435,26.929,40.435,28.359z"/>
	<g>
		<g>
			<path fill="#A12D37" d="M37.033,29.172c0,0.786-0.129,1.537-0.37,2.228c-0.56,1.624-1.718,2.938-3.206,3.705
				c-0.929,0.483-1.987,0.751-3.108,0.751c-1.139,0-2.213-0.276-3.153-0.772c-1.468-0.771-2.609-2.075-3.162-3.684
				c-0.241-0.691-0.37-1.442-0.37-2.228H37.033z"/>
			<g>
				<path fill="#FFFFFF" d="M37.033,29.172c0,0.786-0.129,1.537-0.37,2.228H24.034c-0.241-0.691-0.37-1.442-0.37-2.228H37.033z"/>
			</g>
		</g>
		<g>
			<path fill="#C93945" d="M33.457,35.105c-0.929,0.483-1.987,0.751-3.108,0.751c-1.139,0-2.213-0.276-3.153-0.772
				c0.486-1.253,1.703-2.138,3.126-2.138C31.752,32.946,32.976,33.842,33.457,35.105z"/>
		</g>
	</g>
	<circle fill="#FF4D60" cx="30.349" cy="23.857" r="3.419"/>
	<circle fill="#7B5F8C" cx="37.669" cy="11.231" r="7.451"/>
	<circle fill="#7B5F8C" cx="30.587" cy="7.426" r="7.451"/>
	<circle fill="#FFFFFF" cx="30.367" cy="52.895" r="2.709"/>
</g>
</svg>
