<?xml version="1.0" encoding="utf-8"?>
<!-- Generator: Adobe Illustrator 16.0.0, SVG Export Plug-In . SVG Version: 6.00 Build 0)  -->
<!DOCTYPE svg PUBLIC "-//W3C//DTD SVG 1.1//EN" "http://www.w3.org/Graphics/SVG/1.1/DTD/svg11.dtd">
<svg version="1.1" id="Layer_1" xmlns="http://www.w3.org/2000/svg" xmlns:xlink="http://www.w3.org/1999/xlink" x="0px" y="0px"
	 width="60px" height="60px" viewBox="0 0 60 60" enable-background="new 0 0 60 60" xml:space="preserve">
<g>
	<polygon fill="#BF571F" points="11.634,29.491 17.727,42.011 22.192,42.011 22.192,29.491 	"/>
	<polygon fill="#BF571F" points="48.386,29.45 42.311,42.007 37.809,42.007 37.809,29.257 	"/>
	<path fill="#FFDB56" d="M48.127,60.028H11.874v-0.034c0-4.238,1.579-8.106,4.183-11.052c1.67-1.894,3.765-3.404,6.135-4.381
		c1.963-0.816,4.119-1.266,6.38-1.266h2.822c2.272,0,4.437,0.451,6.414,1.274c2.37,0.984,4.465,2.495,6.135,4.389
		C46.548,51.91,48.127,55.783,48.127,60.028z"/>
	<polygon fill="#BF571F" points="22.192,36.636 22.192,60.028 15.539,60.028 17.237,43.711 17.259,43.496 17.468,41.48 
		17.491,41.266 17.491,36.636 	"/>
	<path fill="#FFA870" d="M37.809,44.57v0.083c0,4.306-3.494,7.809-7.789,7.809h-0.011c-4.308,0-7.816-3.503-7.816-7.809v-0.092
		c1.963-0.816,4.119-1.266,6.38-1.266h2.822C33.667,43.296,35.831,43.747,37.809,44.57z"/>
	<path fill="#F59055" d="M30.019,50.232H30.01c-3.081,0-5.587-2.497-5.587-5.577v-5.508h11.155v5.508
		C35.578,47.735,33.099,50.232,30.019,50.232z"/>
	<polygon fill="#BF571F" points="44.463,60.028 37.809,60.028 37.809,36.636 42.511,36.636 42.511,41.266 42.533,41.48 
		42.742,43.496 42.764,43.711 	"/>
	<circle fill="#BF571F" cx="30" cy="20.571" r="20.413"/>
	<path fill="#FFA870" d="M43.943,28.271c0,7.701-6.242,13.943-13.943,13.943l0,0c-7.701,0-13.943-6.242-13.943-13.943V16.59
		c0-5.1,4.134-9.234,9.233-9.234h9.419c5.101,0,9.233,4.134,9.233,9.234V28.271z"/>
	<path fill="#F57355" d="M32.789,26.041h-5.577v-2.708c0-1.54,1.239-2.789,2.779-2.789h0.005c1.54,0,2.793,1.249,2.793,2.789V26.041
		z"/>
	<path fill="#A12D37" d="M38.366,28.271c0,0.984-0.161,1.924-0.463,2.788c-0.7,2.033-2.149,3.679-4.013,4.639
		c-1.163,0.604-2.488,0.939-3.89,0.939c-1.425,0-2.769-0.346-3.946-0.968c-1.838-0.965-3.265-2.597-3.957-4.61
		c-0.301-0.864-0.463-1.804-0.463-2.788H38.366z"/>
	<path fill="#FFFFFF" d="M38.366,28.271c0,0.984-0.161,1.924-0.463,2.788H22.097c-0.301-0.864-0.463-1.804-0.463-2.788H38.366z"/>
	<path fill="#C93945" d="M33.891,35.698c-1.163,0.604-2.488,0.939-3.89,0.939c-1.425,0-2.769-0.346-3.946-0.968
		c0.608-1.567,2.131-2.674,3.913-2.674C31.758,32.996,33.288,34.117,33.891,35.698z"/>
	<path fill="#BF571F" d="M43.943,9.458L43.943,9.458c-4.455,4.539-10.152,7.659-16.376,8.968l-15.694,3.302L15.71,8.621
		l16.515-4.323L43.943,9.458z"/>
	<path fill="#7A2F45" d="M24.548,24.031h-4.741c0-1.309,1.061-2.371,2.37-2.371S24.548,22.722,24.548,24.031z"/>
	<path fill="#7A2F45" d="M40.193,24.031h-4.74c0-1.309,1.061-2.371,2.37-2.371S40.193,22.722,40.193,24.031z"/>
	<polygon fill="#3BBEFF" points="22.192,41.48 22.192,43.711 17.237,43.711 17.259,43.496 17.468,41.48 	"/>
	<polygon fill="#3BBEFF" points="42.764,43.711 37.809,43.711 37.809,41.48 42.533,41.48 42.742,43.496 	"/>
</g>
</svg>
