<?xml version="1.0" encoding="utf-8"?>
<!-- Generator: Adobe Illustrator 16.0.0, SVG Export Plug-In . SVG Version: 6.00 Build 0)  -->
<!DOCTYPE svg PUBLIC "-//W3C//DTD SVG 1.1//EN" "http://www.w3.org/Graphics/SVG/1.1/DTD/svg11.dtd">
<svg version="1.1" id="Layer_1" xmlns="http://www.w3.org/2000/svg" xmlns:xlink="http://www.w3.org/1999/xlink" x="0px" y="0px"
	 width="60px" height="60px" viewBox="0 0 60 60" enable-background="new 0 0 60 60" xml:space="preserve">
<g>
	<path fill="#D66123" d="M49.073,43.995L49.073,43.995V26.602H38.178V33.1C38.178,39.117,43.056,43.995,49.073,43.995z"/>
	<path fill="#D66123" d="M54.399,42.607c-1.576,0.883-3.391,1.386-5.326,1.386v-6.712L54.399,42.607z"/>
	<path fill="#D66123" d="M31.086,32.58V20.804h12.095c3.247,0,5.891,2.639,5.893,5.883v0c-0.002,3.251-2.646,5.892-5.893,5.892
		H31.086z"/>
	<polygon fill="#0B68CC" points="29.781,29.025 10.624,13.994 15.275,4.214 29.781,0.248 44.289,4.214 48.94,13.994 	"/>
	<path fill="#0B68CC" d="M47.144,56.947v2.743H12.352v-2.743c0-4.994,2.755-9.351,6.81-11.647c0.811-0.463,1.684-0.807,2.591-1.091
		c1.266-0.396,2.618-0.577,4.015-0.577h8.029c1.396,0,2.74,0.182,4.007,0.577c0.907,0.284,1.754,0.645,2.564,1.107
		C44.423,47.612,47.144,51.953,47.144,56.947z"/>
	<polygon fill="#413369" points="29.705,58.019 26.014,51.326 33.48,51.326 	"/>
	<polygon fill="#413369" points="29.713,52.998 26.784,59.69 32.711,59.69 	"/>
	<path fill="#413369" d="M19.178,45.3c-2.973,1.687-5.173,4.413-6.19,7.684l-1.277-0.398c1.097-3.527,3.506-6.579,6.809-8.449
		L19.178,45.3z"/>
	<path fill="#413369" d="M47.853,52.585l-1.276,0.398c-1.02-3.271-3.214-5.997-6.186-7.682l0.659-1.164
		C44.35,46.006,46.756,49.058,47.853,52.585z"/>
	<path fill="#004EA3" d="M29.748,39.775c-5.166,0-9.368,4.202-9.368,9.367v5.68l9.368-3.523l9.367,3.523v-5.68
		C39.115,43.978,34.913,39.775,29.748,39.775z"/>
	<path fill="#F58A4C" d="M16.384,23.213H26v6.958h-9.617c-1.924,0-3.484-1.56-3.484-3.484v0.005
		C12.899,24.768,14.46,23.213,16.384,23.213z"/>
	<path fill="#F58A4C" d="M43.181,23.213h-9.687v6.958h9.687c1.924,0,3.484-1.56,3.484-3.484v0.005
		C46.665,24.768,45.104,23.213,43.181,23.213z"/>
	<path fill="#F58A4C" d="M29.756,50.532L29.756,50.532c-2.961,0-5.361-2.4-5.361-5.361v-5.277H35.1v5.295
		C35.1,48.14,32.707,50.532,29.756,50.532z"/>
	<path fill="#FFA870" d="M43.129,15.54v14.026c0,7.389-5.992,13.381-13.381,13.381c-7.39,0-13.382-5.992-13.382-13.381V15.54H43.129
		z"/>
	<path fill="#A12D37" d="M37.685,30.685c-0.072,0.503-0.193,0.985-0.354,1.448c-0.147,0.428-0.329,0.838-0.546,1.229
		c-0.758,1.383-1.911,2.505-3.305,3.222c-0.199,0.104-0.399,0.198-0.605,0.284c-0.963,0.401-2.021,0.618-3.129,0.618
		c-1.111,0-2.17-0.22-3.136-0.621c-0.222-0.094-0.439-0.195-0.65-0.308c-1.373-0.72-2.508-1.828-3.251-3.195
		c-0.217-0.391-0.399-0.801-0.546-1.229c-0.161-0.463-0.281-0.945-0.354-1.448H37.685z"/>
	<path fill="#C93945" d="M32.875,36.867c-0.963,0.401-2.021,0.618-3.129,0.618c-1.111,0-2.17-0.22-3.136-0.621
		c0.514-1.221,1.726-2.071,3.131-2.071C31.151,34.793,32.361,35.649,32.875,36.867z"/>
	<rect x="27.071" y="22.968" fill="#F57355" width="5.353" height="5.353"/>
	<circle fill="#7A2F45" cx="22.923" cy="26.18" r="1.606"/>
	<circle fill="#7A2F45" cx="36.572" cy="26.18" r="1.605"/>
	<rect x="16.366" y="12.71" fill="#004EA3" width="26.763" height="5.773"/>
	<path fill="#004EA3" d="M43.129,12.716l-0.015-0.012c-7.853-6.161-18.897-6.16-26.749,0.001l0,0L43.129,12.716z"/>
	<path fill="#FFDB56" d="M29.748,12.335l-1.767-0.508C26.822,11.488,26,10.425,26,9.217V4.031h3.748V12.335z"/>
	<path fill="#FFDB56" d="M31.514,11.827l-1.766,0.508V4.031h3.746v5.186C33.494,10.425,32.674,11.488,31.514,11.827z"/>
	<path fill="#FFFFFF" d="M37.685,30.685c-0.072,0.503-0.192,0.985-0.354,1.448c-0.147,0.428-0.329,0.838-0.546,1.229H22.708
		c-0.217-0.391-0.399-0.801-0.546-1.229c-0.161-0.463-0.281-0.945-0.354-1.448H37.685z"/>
	<rect x="16.366" y="18.483" fill="#BF571F" width="26.763" height="4.73"/>
	<g>
		<path fill="#413369" d="M43.129,18.494l-0.016,0.011c-3.924,3.078-8.645,4.62-13.365,4.622c-4.722-0.002-9.443-1.544-13.366-4.622
			l-0.016-0.011l0.016-0.013c3.923-3.078,8.647-4.619,13.366-4.619c4.718,0,9.441,1.542,13.365,4.619L43.129,18.494z"/>
	</g>
</g>
</svg>
