<?xml version="1.0" encoding="utf-8"?>
<!-- Generator: Adobe Illustrator 16.0.0, SVG Export Plug-In . SVG Version: 6.00 Build 0)  -->
<!DOCTYPE svg PUBLIC "-//W3C//DTD SVG 1.1//EN" "http://www.w3.org/Graphics/SVG/1.1/DTD/svg11.dtd">
<svg version="1.1" id="Layer_1" xmlns="http://www.w3.org/2000/svg" xmlns:xlink="http://www.w3.org/1999/xlink" x="0px" y="0px"
	 width="60px" height="60px" viewBox="0 0 60 60" enable-background="new 0 0 60 60" xml:space="preserve">
<g>
	<path fill="#4A5273" d="M38.719,0.32h-17.7c-3.927,0-7.14,3.213-7.14,7.14v11.165h32.032V7.513
		C45.911,3.557,42.674,0.32,38.719,0.32z"/>
	<path fill="#4A5273" d="M45.911,16.427v6.488H13.879v-6.488c0-8.832,7.185-16.016,16.016-16.016
		C38.727,0.411,45.911,7.595,45.911,16.427z"/>
	<path fill="#4F3B57" d="M48.485,59.809H11.305V56.85c0-7.811,6.391-14.201,14.201-14.201h8.887c7.782,0,14.093,6.31,14.093,14.093
		V59.809z"/>
	<path fill="#382A3D" d="M49,34.068L38.933,48.897c-2.048,3.003-5.408,4.808-9.001,4.808c-3.592,0-6.952-1.817-8.985-4.798
		L10.864,34.068H49z"/>
	<path fill="#B5183F" d="M46.231,34.068l-9.187,13.536l-0.018,0.052c-1.547,2.269-4.149,3.774-7.096,3.774
		c-2.945,0-5.548-1.487-7.096-3.755l-0.017-0.074l-9.187-13.533H46.231z"/>
	<g>
		<path fill="#D1ABC5" d="M15.9,18.625h10.276v7.436H15.9c-2.057,0-3.724-1.667-3.724-3.724v0.006
			C12.177,20.286,13.844,18.625,15.9,18.625z"/>
		<path fill="#D1ABC5" d="M43.964,18.625H33.613v7.436h10.351c2.057,0,3.724-1.667,3.724-3.724v0.006
			C47.688,20.286,46.021,18.625,43.964,18.625z"/>
	</g>
	<path fill="#D1ABC5" d="M29.949,48.583h-0.108c-3.129,0-5.666-2.536-5.666-5.665v-5.704h11.44v5.704
		C35.615,46.047,33.079,48.583,29.949,48.583z"/>
	<path fill="#F0DDED" d="M30.031,40.36h-0.272c-7.822,0-14.164-6.341-14.164-14.164v-7.422c0-7.823,6.342-14.164,14.164-14.164
		h0.272c7.822,0,14.163,6.341,14.163,14.164v7.422C44.194,34.02,37.854,40.36,30.031,40.36z"/>
	<circle fill="#7A2F45" cx="22.602" cy="19.497" r="2.148"/>
	<circle fill="#7A2F45" cx="37.188" cy="19.497" r="2.148"/>
	<path fill="#D19DC1" d="M32.755,23.773h-5.72v-2.805c0-1.564,1.268-2.833,2.832-2.833h0.055c1.564,0,2.833,1.269,2.833,2.833
		V23.773z"/>
	<path fill="#A12D37" d="M38.476,26.061c0,1.01-0.167,1.974-0.476,2.86c-0.718,2.084-2.205,3.771-4.115,4.756
		c-1.193,0.62-2.551,0.964-3.99,0.964c-1.461,0-2.84-0.354-4.046-0.992c-1.886-0.99-3.35-2.663-4.059-4.728
		c-0.31-0.887-0.475-1.851-0.475-2.86H38.476z"/>
	<path fill="#C93945" d="M33.885,33.677c-1.193,0.62-2.551,0.964-3.99,0.964c-1.461,0-2.84-0.354-4.046-0.992
		c0.623-1.607,2.185-2.743,4.012-2.743C31.696,30.905,33.267,32.055,33.885,33.677z"/>
	<g>
		<polygon fill="#FFFFFF" points="25.27,29.901 27.017,26.061 23.522,26.061 		"/>
		<polygon fill="#FFFFFF" points="34.521,29.901 36.268,26.061 32.773,26.061 		"/>
	</g>
	<path fill="#4A5273" d="M32.88,8.945l6.018-3.241l-9.122-2.237l-9.122,2.237l6.019,3.241C28.609,9.988,30.942,9.988,32.88,8.945z"
		/>
	<path fill="#D1ABC5" d="M25.927,20.34c0,1.716-1.488,3.325-3.325,3.325c-1.836,0-3.324-1.609-3.324-3.325H25.927z"/>
	<path fill="#D1ABC5" d="M40.513,20.34c0,1.716-1.488,3.325-3.324,3.325c-1.837,0-3.325-1.609-3.325-3.325H40.513z"/>
	<rect x="25.033" y="26.061" fill="#FFFFFF" width="9.724" height="2.002"/>
	<g>
		<path fill="#4A5273" d="M18.659,17.777L18.659,17.777c-0.937-0.848-1.009-2.295-0.161-3.231l2.355-2.602l3.441,1.73
			c0.843,0.425,1.882,0.65,2.74,0.65v2.288c-1.43,0-2.609-0.309-3.771-0.894l-1.88-0.946L18.659,17.777z"/>
		<path fill="#4A5273" d="M41.092,17.777l-2.721-3.005l-1.865,0.946c-1.161,0.585-2.606,0.894-3.751,0.894v-2.288
			c0.858,0,1.878-0.225,2.721-0.65l3.427-1.73l2.353,2.602C42.103,15.481,42.029,16.929,41.092,17.777L41.092,17.777z"/>
	</g>
</g>
</svg>
