<?xml version="1.0" encoding="utf-8"?>
<!-- Generator: Adobe Illustrator 16.0.0, SVG Export Plug-In . SVG Version: 6.00 Build 0)  -->
<!DOCTYPE svg PUBLIC "-//W3C//DTD SVG 1.1//EN" "http://www.w3.org/Graphics/SVG/1.1/DTD/svg11.dtd">
<svg version="1.1" id="Layer_1" xmlns="http://www.w3.org/2000/svg" xmlns:xlink="http://www.w3.org/1999/xlink" x="0px" y="0px"
	 width="60px" height="60px" viewBox="0 0 60 60" enable-background="new 0 0 60 60" xml:space="preserve">
<g>
	<path fill="#FF4D60" d="M49.107,57.242v2.966H11.5v-2.966c0-5.372,2.948-10.063,7.299-12.555c0.021-0.012,0.041-0.023,0.061-0.035
		c0.876-0.5,1.819-0.873,2.8-1.18c1.368-0.429,2.832-0.622,4.342-0.622h8.679c1.511,0,2.963,0.193,4.331,0.622
		c0.98,0.307,1.895,0.697,2.771,1.197c0.009,0.006,0.018,0.009,0.026,0.015C46.177,47.169,49.107,51.856,49.107,57.242z"/>
	<rect x="23.072" y="37.354" fill="#FF4D60" width="14.464" height="11.783"/>
	<g>
		<path fill="#004EA3" d="M16.149,18.55h10.394v7.522H16.149c-2.081,0-3.767-1.687-3.767-3.767v0.005
			C12.382,20.23,14.068,18.55,16.149,18.55z"/>
		<path fill="#004EA3" d="M44.534,18.55h-10.47v7.522h10.47c2.08,0,3.767-1.687,3.767-3.767v0.005
			C48.301,20.23,46.614,18.55,44.534,18.55z"/>
	</g>
	<path fill="#FFA870" d="M44.768,14.619v11.572c0,6.749-4.625,12.421-10.877,14.012c-1.148,0.295-2.349,0.452-3.587,0.452
		s-2.439-0.157-3.587-0.452c-6.251-1.591-10.877-7.264-10.877-14.012V14.619c0-7.99,6.498-14.464,14.484-14.464
		c3.995,0,7.6,1.617,10.215,4.235C43.156,7.008,44.768,10.624,44.768,14.619z"/>
	<g>
		<path fill="#A12D37" d="M38.982,26.072c0,1.021-0.168,1.996-0.48,2.892c-0.726,2.109-2.23,3.816-4.162,4.812
			c-1.207,0.627-2.58,0.975-4.036,0.975c-1.478,0-2.873-0.359-4.093-1.004c-1.907-1.001-3.388-2.693-4.105-4.782
			c-0.312-0.896-0.48-1.871-0.48-2.892H38.982z"/>
		<path fill="#FFFFFF" d="M38.982,26.072c0,1.021-0.168,1.996-0.48,2.892H22.105c-0.312-0.896-0.48-1.871-0.48-2.892H38.982z"/>
		<path fill="#C93945" d="M34.34,33.775c-1.207,0.627-2.58,0.975-4.036,0.975c-1.478,0-2.873-0.359-4.093-1.004
			c0.63-1.626,2.21-2.774,4.059-2.774C32.126,30.972,33.715,32.135,34.34,33.775z"/>
	</g>
	<path fill="#FF4D60" d="M39.721,3.635L39.2,4.155c-1.901,1.899-2.969,4.476-2.969,7.163v3.266l-5.928,5.355l-5.933-5.361v-3.263
		c0-2.686-1.066-5.261-2.965-7.16l-0.512-0.512c2.537-2.175,5.832-3.489,9.431-3.489C33.917,0.155,37.195,1.462,39.721,3.635z"/>
	<path fill="#0B68CC" d="M44.769,14.619v11.453H15.84V14.619c0-2.904,0.859-5.606,2.334-7.872C18.4,6.4,18.64,6.062,18.897,5.738
		c0.341-0.443,0.708-0.862,1.099-1.259c0.287-0.292,0.587-0.57,0.897-0.836l0.512,0.512c1.899,1.898,2.965,4.474,2.965,7.16v3.263
		l5.933,5.361l5.928-5.355v-3.266c0-2.687,1.067-5.264,2.969-7.163l0.521-0.52c0.283,0.24,0.555,0.492,0.818,0.754
		c0.028,0.029,0.055,0.055,0.081,0.084c0.391,0.396,0.758,0.812,1.099,1.252c0.255,0.327,0.498,0.666,0.724,1.015
		C43.915,9.01,44.769,11.715,44.769,14.619z"/>
	<path fill="#FFDB56" d="M33.891,40.203c-1.148,0.295-2.349,0.452-3.587,0.452s-2.439-0.157-3.587-0.452
		c0.223-1.784,1.745-3.164,3.587-3.164S33.668,38.419,33.891,40.203z"/>
	<path fill="#FFDB56" d="M24.371,11.315v3.263l-2.893,0.006v-3.269c0-1.918-0.762-3.758-2.118-5.114l-0.462-0.462
		c0.341-0.443,0.708-0.862,1.099-1.259c0.287-0.292,0.587-0.57,0.897-0.836l0.512,0.512C23.304,6.054,24.371,8.629,24.371,11.315z"
		/>
	<path fill="#FFDB56" d="M41.719,5.727L41.245,6.2c-1.357,1.356-2.121,3.197-2.121,5.117v3.267h-2.893v-3.266
		c0-2.687,1.067-5.264,2.969-7.163l0.521-0.52c0.283,0.24,0.555,0.492,0.818,0.754c0.028,0.029,0.055,0.055,0.081,0.084
		C41.011,4.87,41.378,5.287,41.719,5.727z"/>
	<g>
		<path fill="#3D2F45" d="M44.768,14.5v4.049c0,4.149-3.375,7.524-7.521,7.524s-7.521-3.375-7.521-7.524V14.5H44.768z"/>
		<path fill="#FFA870" d="M40.718,18.551v-1.736h-6.942v1.736c0,1.917,1.553,3.471,3.472,3.471
			C39.165,22.022,40.718,20.468,40.718,18.551z"/>
		<path fill="#7A2F45" d="M38.982,18.551h-3.472c0,0.958,0.777,1.736,1.735,1.736C38.205,20.287,38.982,19.509,38.982,18.551z"/>
	</g>
	<path fill="#3D2F45" d="M46.213,57.242v2.966H14.392v-2.966c0-0.063,0-0.13,0.003-0.193c0.066-4.056,2.291-7.819,5.84-9.851
		l0.064-0.037c0.604-0.345,1.333-0.648,2.225-0.929c1.038-0.324,2.21-0.488,3.477-0.488h8.679c1.262,0,2.43,0.164,3.469,0.488
		c0.767,0.24,1.457,0.535,2.114,0.902l0.061,0.041l0.104,0.052C44,49.284,46.213,53.114,46.213,57.242z"/>
	<path fill="#FFDB56" d="M46.213,57.242v2.966H40.43c-4.793,0-8.678-3.885-8.678-8.679v-2.894h-2.885v2.894
		c0,4.794-3.885,8.679-8.678,8.679h-5.786v-3.159c0.067-4.056,2.292-7.819,5.841-9.851l0.064-0.037
		c0.604-0.345,1.333-0.648,2.224-0.929c1.039-0.324,2.21-0.488,3.478-0.488h8.67c1.261,0,2.43,0.164,3.468,0.488
		c0.767,0.24,1.458,0.535,2.115,0.902l0.061,0.041l0.104,0.052C44,49.284,46.213,53.114,46.213,57.242z"/>
	<path fill="#0B68CC" d="M26.002,48.636h2.858v2.894c0,4.794-3.885,8.679-8.679,8.679h-2.896v-3.041l0.002-0.072
		c0.049-3.037,1.73-5.866,4.383-7.385l0.075-0.044c0.419-0.237,0.96-0.457,1.646-0.674C24.147,48.758,25.027,48.636,26.002,48.636z"
		/>
	<path fill="#0B68CC" d="M43.321,57.242v2.966h-2.89c-4.794,0-8.68-3.885-8.68-8.679v-2.894h2.928c0.97,0,1.847,0.122,2.607,0.359
		c0.535,0.168,1.018,0.37,1.475,0.616l0.107,0.072l0.183,0.09C41.687,51.324,43.321,54.179,43.321,57.242z"/>
	<g>
		<path fill="#3D2F45" d="M30.884,14.5v4.049c0,4.149-3.375,7.524-7.523,7.524c-4.147,0-7.521-3.375-7.521-7.524V14.5H30.884z"/>
		<path fill="#FFA870" d="M26.833,18.551v-1.736H19.89v1.736c0,1.917,1.554,3.471,3.471,3.471
			C25.279,22.022,26.833,20.468,26.833,18.551z"/>
		<path fill="#7A2F45" d="M25.097,18.551h-3.472c0,0.958,0.777,1.736,1.735,1.736C24.319,20.287,25.097,19.509,25.097,18.551z"/>
	</g>
	<g>
		<polygon fill="#FFDB56" points="30.054,7.728 27.5,7.728 29.68,2.876 32.232,2.876 		"/>
		<polygon fill="#FFDB56" points="33.11,6.461 31.434,10.193 27.986,12.185 29.987,7.728 30.557,6.46 		"/>
	</g>
	<rect x="15.839" y="14.5" fill="#3D2F45" width="28.928" height="4.049"/>
</g>
</svg>
