<?xml version="1.0" encoding="utf-8"?>
<!-- Generator: Adobe Illustrator 16.0.0, SVG Export Plug-In . SVG Version: 6.00 Build 0)  -->
<!DOCTYPE svg PUBLIC "-//W3C//DTD SVG 1.1//EN" "http://www.w3.org/Graphics/SVG/1.1/DTD/svg11.dtd">
<svg version="1.1" id="Layer_1" xmlns="http://www.w3.org/2000/svg" xmlns:xlink="http://www.w3.org/1999/xlink" x="0px" y="0px"
	 width="60px" height="60px" viewBox="0 0 60 60" enable-background="new 0 0 60 60" xml:space="preserve">
<g>
	<path fill="#5C4769" d="M47.479,57.276v2.674H13.568v-2.674c0-0.418,0.021-0.832,0.06-1.239c0.063-0.668,0.178-1.322,0.339-1.956
		c0.17-0.676,0.394-1.328,0.665-1.956c1.046-2.419,2.805-4.459,5.006-5.856c0.185-0.12,0.376-0.235,0.569-0.345
		c0.79-0.451,1.641-0.785,2.525-1.062c1.234-0.386,2.551-0.563,3.913-0.563h7.826c1.361,0,2.671,0.178,3.905,0.563
		c0.884,0.276,1.711,0.626,2.501,1.077c0.181,0.102,0.359,0.209,0.535,0.324c2.212,1.395,3.971,3.435,5.011,5.861
		c0.271,0.628,0.496,1.28,0.663,1.956c0.161,0.634,0.273,1.288,0.336,1.956C47.458,56.444,47.479,56.858,47.479,57.276z"/>
	<path fill="#3D2F45" d="M50.064,43.44l-12.367,6.459V59.95H23.351V49.899l-12.36-6.456C21.021,30.953,40.031,30.953,50.064,43.44z"
		/>
	<rect x="25.306" y="44.495" fill="#FFC03B" width="10.435" height="15.455"/>
	<path fill="#5C4769" d="M30.523,2.081L30.523,2.081c-8.644,0-15.651,7.007-15.651,15.651v3.639h31.303v-3.639
		C46.176,9.088,39.168,2.081,30.523,2.081z"/>
	<path fill="#3D2F45" d="M16.177,34.771c-5.034,0-9.13-4.096-9.13-9.13s4.096-9.13,9.13-9.13h28.694c5.034,0,9.13,4.096,9.13,9.13
		s-4.096,9.13-9.13,9.13H16.177z"/>
	<path fill="#3D2F45" d="M44.871,32.162H16.177c-3.602,0-6.521-2.92-6.521-6.521l0,0c0-3.602,2.92-6.521,6.521-6.521h28.694
		c3.602,0,6.521,2.919,6.521,6.521l0,0C51.392,29.242,48.473,32.162,44.871,32.162z"/>
	<g>
		<path fill="#F58A4C" d="M17.76,24.127h9.373v6.782H17.76c-1.876,0-3.396-1.52-3.396-3.396v0.005
			C14.364,25.643,15.884,24.127,17.76,24.127z"/>
		<path fill="#F58A4C" d="M43.355,24.127h-9.44v6.782h9.44c1.876,0,3.396-1.52,3.396-3.396v0.005
			C46.752,25.643,45.231,24.127,43.355,24.127z"/>
	</g>
	<path fill="#F58A4C" d="M30.541,51.452h-0.009c-2.881,0-5.226-2.336-5.226-5.218v-5.151h10.435v5.151
		C35.741,49.116,33.422,51.452,30.541,51.452z"/>
	<path fill="#FFA870" d="M30.541,44.058h-0.009c-7.203,0-13.051-5.839-13.051-13.043V19.12h26.085v11.895
		C43.566,38.219,37.744,44.058,30.541,44.058z"/>
	<g>
		<path fill="#A12D37" d="M38.35,32.214c0,0.921-0.151,1.8-0.434,2.608c-0.654,1.902-2.011,3.441-3.753,4.338
			c-1.088,0.566-2.327,0.88-3.64,0.88c-1.333,0-2.59-0.324-3.691-0.906c-1.719-0.902-3.055-2.429-3.702-4.312
			c-0.281-0.809-0.433-1.688-0.433-2.608H38.35z"/>
		<g>
			<path fill="#FFFFFF" d="M38.35,32.214c0,0.921-0.151,1.8-0.434,2.608H23.131c-0.281-0.809-0.433-1.688-0.433-2.608H38.35z"/>
		</g>
	</g>
	<g>
		<path fill="#C93945" d="M34.163,39.16c-1.088,0.566-2.327,0.88-3.64,0.88c-1.333,0-2.59-0.324-3.691-0.906
			c0.569-1.466,1.993-2.501,3.66-2.501C32.167,36.633,33.6,37.681,34.163,39.16z"/>
	</g>
	<path fill="#FF8366" d="M33.133,27.667h-5.218v-2.533c0-1.44,1.159-2.608,2.6-2.608h0.005c1.44,0,2.613,1.168,2.613,2.608V27.667z"
		/>
	<circle fill="#7A2F45" cx="23.872" cy="24.485" r="1.565"/>
	<circle fill="#7A2F45" cx="37.176" cy="24.485" r="1.565"/>
	<rect x="23.872" y="0.207" fill="#7B5F8C" width="13.304" height="16.304"/>
	<rect x="22.698" y="27.667" fill="#BF571F" width="15.651" height="4.546"/>
	<path fill="#BF571F" d="M43.566,39.161v-6.947c0-2.511-2.036-4.546-4.547-4.546h-0.67v6.948c0,2.511,2.035,4.546,4.546,4.546
		H43.566z"/>
	<path fill="#BF571F" d="M22.698,34.615v-6.948h-0.671c-2.511,0-4.546,2.035-4.546,4.546v6.947h0.671
		C20.663,39.161,22.698,37.126,22.698,34.615z"/>
	<rect x="17.481" y="19.12" fill="#BF571F" width="9.652" height="2.608"/>
	<rect x="33.915" y="19.12" fill="#BF571F" width="9.651" height="2.608"/>
	<path fill="#FFDB56" d="M47.086,54.081h-9.389v-1.956h8.726C46.694,52.753,46.919,53.405,47.086,54.081z"/>
	<path fill="#3D2F45" d="M47.422,56.037h-9.725v-1.956h9.389C47.247,54.715,47.359,55.369,47.422,56.037z"/>
	<path fill="#FFDB56" d="M47.479,57.276v0.717h-9.782v-1.956h9.725C47.458,56.444,47.479,56.858,47.479,57.276z"/>
	<path fill="#FFDB56" d="M23.351,52.125v1.956h-9.383c0.17-0.676,0.394-1.328,0.665-1.956H23.351z"/>
	<path fill="#3D2F45" d="M23.351,54.081v1.956h-9.723c0.063-0.668,0.178-1.322,0.339-1.956H23.351z"/>
	<path fill="#FFDB56" d="M23.351,56.037v1.956h-9.782v-0.717c0-0.418,0.021-0.832,0.06-1.239H23.351z"/>
	<path fill="#FFDB56" d="M34.18,5.373v5.053c0,1.179-0.799,2.214-1.931,2.546l-1.722,0.495l-1.719-0.495
		c-1.132-0.332-1.933-1.367-1.933-2.546V5.373H34.18z"/>
</g>
</svg>
