<?xml version="1.0" encoding="utf-8"?>
<!-- Generator: Adobe Illustrator 16.0.0, SVG Export Plug-In . SVG Version: 6.00 Build 0)  -->
<!DOCTYPE svg PUBLIC "-//W3C//DTD SVG 1.1//EN" "http://www.w3.org/Graphics/SVG/1.1/DTD/svg11.dtd">
<svg version="1.1" id="Layer_1" xmlns="http://www.w3.org/2000/svg" xmlns:xlink="http://www.w3.org/1999/xlink" x="0px" y="0px"
	 width="60px" height="60px" viewBox="0 0 60 60" enable-background="new 0 0 60 60" xml:space="preserve">
<g>
	<path fill="#7A2F45" d="M49.015,56.794v3.033H10.541v-3.033c0-5.522,3.047-10.341,7.53-12.88c0.897-0.512,1.863-0.892,2.866-1.206
		c1.4-0.438,2.896-0.638,4.44-0.638h8.879c1.545,0,3.03,0.2,4.431,0.638c1.003,0.314,1.939,0.713,2.836,1.225
		C46.007,46.472,49.015,51.271,49.015,56.794z"/>
	<rect x="17.994" y="43.914" fill="#FFDB56" width="3.848" height="15.913"/>
	<rect x="37.675" y="43.914" fill="#FFDB56" width="3.848" height="15.913"/>
	<path fill="#FF5F36" d="M41.085,11.286H18.546c-6.939,0-10.205,8.573-5.025,13.19l0,0H46.11l0,0
		C51.29,19.859,48.024,11.286,41.085,11.286z"/>
	<path fill="#F58A4C" d="M13.521,24.476h10.634v7.695H13.521c-2.128,0-3.853-1.725-3.853-3.854v0.005
		C9.668,26.195,11.393,24.476,13.521,24.476z"/>
	<path fill="#F58A4C" d="M46.112,24.476H35.4v7.695h10.712c2.127,0,3.853-1.725,3.853-3.854v0.005
		C49.965,26.195,48.239,24.476,46.112,24.476z"/>
	<path fill="#FFA870" d="M29.783,48.567L29.783,48.567c-10.783,0-18.925-9.776-16.974-20.381l1.241-6.743
		c1.396-7.588,8.012-13.098,15.727-13.098l0,0c7.717,0,14.332,5.51,15.728,13.098l1.243,6.754
		C48.697,38.796,40.559,48.567,29.783,48.567z"/>
	<g>
		<path fill="#A12D37" d="M36.017,32.845c0,0.77-0.126,1.503-0.361,2.179c-0.547,1.588-1.68,2.873-3.134,3.623
			c-0.909,0.472-1.943,0.733-3.04,0.733c-1.113,0-2.163-0.27-3.083-0.756c-1.435-0.753-2.551-2.027-3.091-3.601
			c-0.235-0.676-0.362-1.409-0.362-2.179H36.017z"/>
		<path fill="#FFFFFF" d="M36.017,32.845c0,0.77-0.126,1.503-0.361,2.179H23.309c-0.235-0.676-0.362-1.409-0.362-2.179H36.017z"/>
		<path fill="#C93945" d="M32.521,38.646c-0.909,0.472-1.943,0.733-3.04,0.733c-1.113,0-2.163-0.27-3.083-0.756
			c0.475-1.225,1.665-2.089,3.056-2.089C30.854,36.535,32.051,37.411,32.521,38.646z"/>
	</g>
	<path fill="#F58A4C" d="M32.737,29.803h-5.919V26.93c0-1.634,1.315-2.959,2.949-2.959h0.006c1.635,0,2.964,1.325,2.964,2.959
		V29.803z"/>
	<circle fill="#7A2F45" cx="22.231" cy="26.193" r="1.776"/>
	<circle fill="#7A2F45" cx="37.325" cy="26.193" r="1.776"/>
	<path fill="#FF5F36" d="M45.291,7.957c0,2.119-0.829,4.048-2.179,5.475c-1.453,1.533-3.51,2.492-5.788,2.492H21.037
		c-2.893,0-5.339-2.291-5.364-5.184c-0.013-1.462,0.576-2.788,1.53-3.745c0.947-0.944,2.252-1.53,3.697-1.53h10.95
		c3.024,0,5.476-2.451,5.476-5.475l0,0C41.725-0.01,45.291,3.556,45.291,7.957z"/>
	<path fill="#FF5F36" d="M23.267,22.551h-2.072c-0.654,0-1.184-0.53-1.184-1.184l0,0c0-0.654,0.53-1.184,1.184-1.184h2.072
		c0.654,0,1.184,0.53,1.184,1.184l0,0C24.451,22.021,23.921,22.551,23.267,22.551z"/>
	<path fill="#FF5F36" d="M38.36,22.551h-2.071c-0.654,0-1.184-0.53-1.184-1.184l0,0c0-0.654,0.529-1.184,1.184-1.184h2.071
		c0.654,0,1.185,0.53,1.185,1.184l0,0C39.545,22.021,39.015,22.551,38.36,22.551z"/>
	<g>
		<circle fill="#FFDB56" cx="29.778" cy="52.292" r="0.888"/>
		<circle fill="#FFDB56" cx="29.778" cy="56.102" r="0.888"/>
	</g>
</g>
</svg>
