<?xml version="1.0" encoding="utf-8"?>
<!-- Generator: Adobe Illustrator 16.0.0, SVG Export Plug-In . SVG Version: 6.00 Build 0)  -->
<!DOCTYPE svg PUBLIC "-//W3C//DTD SVG 1.1//EN" "http://www.w3.org/Graphics/SVG/1.1/DTD/svg11.dtd">
<svg version="1.1" id="Layer_1" xmlns="http://www.w3.org/2000/svg" xmlns:xlink="http://www.w3.org/1999/xlink" x="0px" y="0px"
	 width="60px" height="60px" viewBox="0 0 60 60" enable-background="new 0 0 60 60" xml:space="preserve">
<g>
	<path fill="#2EC945" d="M47.462,60.394H12.795v-0.032c0-4.053,1.509-7.752,4-10.567c0.958-1.086,2.061-2.038,3.28-2.83
		c0.491-0.319,1-0.613,1.528-0.874c2.152-1.086,4.587-1.696,7.16-1.696h2.698c2.587,0,5.029,0.613,7.189,1.706
		c0.525,0.265,1.037,0.558,1.528,0.878c1.221,0.792,2.324,1.747,3.282,2.832C45.952,52.631,47.462,56.335,47.462,60.394z"/>
	<path fill="#E3E3E3" d="M40.18,46.978c-0.633,4.983-4.891,8.849-10.035,8.849h-0.008c-5.16,0-9.432-3.87-10.062-8.862
		c2.499-1.626,5.485-2.57,8.688-2.57h2.698C34.678,44.394,37.673,45.343,40.18,46.978z"/>
	<path fill="#FFA870" d="M38.651,46.1c-0.214,4.519-3.946,8.126-8.507,8.126h-0.008c-4.576,0-8.323-3.613-8.533-8.136
		c2.152-1.086,4.587-1.696,7.16-1.696h2.698C34.049,44.394,36.491,45.007,38.651,46.1z"/>
	<path fill="#FFDB56" d="M49.879,38.392v22.002H35.458V22.456l6.786,3.464c1.728,0.883,3.219,2.096,4.413,3.539
		C48.703,31.925,49.879,35.071,49.879,38.392z"/>
	<path fill="#FFDB56" d="M32.79,10.743v34.132H22.022c-1.2,0-2.354-0.197-3.432-0.558c-4.264-1.435-7.336-5.464-7.336-10.211V10.743
		c0-2.973,1.206-5.667,3.155-7.613c1.949-1.949,4.64-3.155,7.613-3.155c3.504,0,6.618,1.674,8.584,4.267
		C31.977,6.047,32.79,8.3,32.79,10.743z"/>
	<g>
		<path fill="#F58A4C" d="M17.045,25.585h9.582v6.934h-9.582c-1.917,0-3.472-1.555-3.472-3.473v0.005
			C13.573,27.134,15.127,25.585,17.045,25.585z"/>
		<path fill="#F58A4C" d="M43.211,25.585H33.56v6.934h9.651c1.917,0,3.472-1.555,3.472-3.473v0.005
			C46.683,27.134,45.128,25.585,43.211,25.585z"/>
	</g>
	<path fill="#F59055" d="M30.146,51.026h-0.009c-2.945,0-5.342-2.388-5.342-5.333v-5.267h10.667v5.267
		C35.462,48.639,33.091,51.026,30.146,51.026z"/>
	<path fill="#FFA870" d="M30.312,43.359h-0.367c-7.262,0-13.15-5.887-13.15-13.149V17.846c0-5.083,4.121-9.205,9.205-9.205h8.258
		c5.083,0,9.204,4.121,9.204,9.205V30.21C43.461,37.473,37.574,43.359,30.312,43.359z"/>
	<path fill="#F57355" d="M32.795,27.893h-5.333v-2.589c0-1.473,1.185-2.667,2.657-2.667h0.004c1.474,0,2.672,1.194,2.672,2.667
		V27.893z"/>
	<g>
		<g>
			<path fill="#A12D37" d="M36.109,31.036c0,0.703-0.116,1.375-0.331,1.993c-0.501,1.454-1.537,2.63-2.869,3.315
				c-0.831,0.433-1.778,0.673-2.781,0.673c-1.019,0-1.979-0.248-2.821-0.692c-1.313-0.69-2.334-1.856-2.829-3.296
				c-0.215-0.618-0.331-1.29-0.331-1.993H36.109z"/>
			<path fill="#FFFFFF" d="M36.109,31.036c0,0.703-0.116,1.375-0.331,1.993h-11.3c-0.215-0.618-0.331-1.29-0.331-1.993H36.109z"/>
		</g>
		<path fill="#C93945" d="M32.909,36.345c-0.831,0.433-1.778,0.673-2.781,0.673c-1.019,0-1.979-0.248-2.821-0.692
			c0.435-1.12,1.523-1.912,2.798-1.912C31.384,34.413,32.479,35.215,32.909,36.345z"/>
	</g>
	<g>
		<g>
			<path fill="#F58A4C" d="M20.709,22.201l-0.832-0.771c0.879-0.947,2.124-1.491,3.417-1.491c0.613,0,1.209,0.118,1.774,0.35
				l-0.432,1.049c-0.427-0.175-0.878-0.265-1.342-0.265C22.315,21.072,21.374,21.483,20.709,22.201z"/>
			<path fill="#7A2F45" d="M25.264,24.608v0.657h-3.94v-0.657c0-1.087,0.884-1.97,1.971-1.97
				C24.384,22.638,25.264,23.521,25.264,24.608z"/>
		</g>
		<g>
			<path fill="#F58A4C" d="M39.547,22.201c-0.664-0.717-1.606-1.128-2.584-1.128c-0.464,0-0.916,0.089-1.342,0.265l-0.433-1.049
				c0.564-0.232,1.161-0.35,1.774-0.35c1.292,0,2.537,0.543,3.416,1.491L39.547,22.201z"/>
			<path fill="#7A2F45" d="M34.992,24.608v0.657h3.94v-0.657c0-1.087-0.884-1.97-1.971-1.97
				C35.872,22.638,34.992,23.521,34.992,24.608z"/>
		</g>
	</g>
	<path fill="#FFC03B" d="M46.658,16.775v12.683c-1.195-1.442-2.686-2.656-4.414-3.539l-3.701-1.891
		c-0.538-0.275-1.045-0.592-1.517-0.947c-2.638-1.968-4.235-5.085-4.235-8.448v-3.892c0-2.442-0.813-4.696-2.184-6.501h3.518
		C41.036,4.242,46.658,9.866,46.658,16.775z"/>
</g>
</svg>
