<?xml version="1.0" encoding="utf-8"?>
<!-- Generator: Adobe Illustrator 16.0.0, SVG Export Plug-In . SVG Version: 6.00 Build 0)  -->
<!DOCTYPE svg PUBLIC "-//W3C//DTD SVG 1.1//EN" "http://www.w3.org/Graphics/SVG/1.1/DTD/svg11.dtd">
<svg version="1.1" id="Layer_1" xmlns="http://www.w3.org/2000/svg" xmlns:xlink="http://www.w3.org/1999/xlink" x="0px" y="0px"
	 width="60px" height="60px" viewBox="0 0 60 60" enable-background="new 0 0 60 60" xml:space="preserve">
<g>
	<path fill="#E3E3E3" d="M47.513,56.885v2.899H10.745v-2.899c0-6.504,4.42-11.937,10.411-13.567
		c1.199-0.326,2.463-0.504,3.767-0.504h8.483c1.28,0,2.518,0.168,3.694,0.484C43.109,44.906,47.513,50.354,47.513,56.885z"/>
	<path fill="#73648C" d="M21.156,43.317v16.467H10.745v-2.899C10.745,50.381,15.165,44.948,21.156,43.317z"/>
	<path fill="#73648C" d="M47.513,56.885v2.899H37.101V43.298C43.109,44.906,47.513,50.354,47.513,56.885z"/>
	<path fill="#4F3B57" d="M42.355,52.491l-1.994,1.992l1.994,1.994v3.307H15.901v-3.307l1.994-1.994l-1.994-1.992v-1.039
		c0-7.305,5.922-13.227,13.228-13.227c3.654,0,6.96,1.479,9.353,3.874c2.396,2.393,3.874,5.698,3.874,9.353V52.491z"/>
	<rect x="21.156" y="48.684" fill="#E8E8E8" width="15.945" height="11.101"/>
	<polygon fill="#FF4D60" points="29.084,56.248 25.183,49.175 33.074,49.175 	"/>
	<polygon fill="#FF4D60" points="29.093,52.711 25.996,59.784 32.26,59.784 	"/>
	<path fill="#FFFFFF" d="M29.129,38.224c-4.397,0-7.973,3.577-7.973,7.974v6.443l7.973-3l7.972,3v-6.443
		C37.101,41.801,33.524,38.224,29.129,38.224z"/>
	<path fill="#96442B" d="M29.142,48.684L29.142,48.684c-3.131,0-5.67-2.54-5.67-5.671V37.44h11.313v5.6
		C34.785,46.157,32.258,48.684,29.142,48.684z"/>
	<path fill="#3D2F45" d="M45.383,16.427c0,1.066-0.104,2.147-0.332,3.235c-0.016,0.094-0.038,0.187-0.06,0.28
		c-0.021,0.114-0.047,0.224-0.074,0.337c-0.032,0.139-0.069,0.277-0.106,0.416l-0.021,0.082l-1.519,5.634H14.987l-1.516-5.605
		l-0.028-0.11c-0.034-0.119-0.062-0.24-0.094-0.362c-0.028-0.122-0.057-0.243-0.082-0.362c-0.02-0.093-0.042-0.189-0.059-0.283
		C11.166,9.718,18.78,0.215,29.129,0.215C38.338,0.215,45.383,7.745,45.383,16.427z"/>
	<path fill="#E82247" d="M26.018,20.473v5.939h-11.03l-1.513-5.606c0.466-0.215,0.984-0.333,1.533-0.333H26.018z"/>
	<path fill="#96442B" d="M30.826,20.473v7.354H15.007c-2.031,0-3.68-1.646-3.683-3.676c0-1.488,0.883-2.767,2.15-3.344
		c0.466-0.215,0.984-0.333,1.533-0.333H30.826z"/>
	<path fill="#E82247" d="M44.789,20.775l-1.519,5.637H32.24v-5.939h11.083C43.845,20.473,44.339,20.581,44.789,20.775z"/>
	<path fill="#96442B" d="M47.006,24.144c0,2.034-1.648,3.683-3.683,3.683H27.432v-7.354h15.892c0.521,0,1.016,0.108,1.466,0.302
		C46.093,21.338,47.004,22.633,47.006,24.144z"/>
	<path fill="#BF593A" d="M43.271,20.588v5.94c0,7.809-6.333,14.142-14.142,14.142c-7.81,0-14.142-6.333-14.142-14.142v-5.94
		c0-7.812,6.351-14.142,14.16-14.142c3.906,0,7.432,1.582,9.989,4.141C41.695,13.147,43.271,16.683,43.271,20.588z"/>
	<path fill="#852028" d="M37.613,26.412c0,0.999-0.165,1.952-0.47,2.829c-0.71,2.062-2.18,3.729-4.069,4.703
		c-1.181,0.613-2.523,0.954-3.945,0.954c-1.446,0-2.809-0.353-4.002-0.981c-1.864-0.979-3.312-2.634-4.014-4.676
		c-0.305-0.877-0.469-1.83-0.469-2.829H37.613z"/>
	<path fill="#FFFAF1" d="M37.613,26.412c0,0.999-0.165,1.952-0.47,2.829H21.113c-0.305-0.877-0.469-1.83-0.469-2.829H37.613z"/>
	<path fill="#B8343F" d="M33.074,33.943c-1.181,0.613-2.523,0.954-3.945,0.954c-1.446,0-2.809-0.353-4.002-0.981
		c0.617-1.59,2.161-2.715,3.968-2.715C30.91,31.201,32.462,32.341,33.074,33.943z"/>
	<path fill="#96442B" d="M29.129,24.637L29.129,24.637c-1.354,0-2.451-1.098-2.451-2.451v-2.563h4.901v2.563
		C31.579,23.54,30.481,24.637,29.129,24.637z"/>
	<circle fill="#66273A" cx="22.34" cy="20.048" r="1.697"/>
	<circle fill="#66273A" cx="35.916" cy="20.048" r="1.697"/>
	<g>
		<g>
			<path fill="#241C29" d="M27.635,19.34c-0.283-2.675-2.551-4.763-5.297-4.763s-5.015,2.088-5.297,4.763
				c-0.02,0.187-0.031,0.373-0.031,0.565c0,0.193,0.011,0.378,0.031,0.565c0.141,1.338,0.78,2.528,1.725,3.386
				c0.944,0.854,2.2,1.377,3.572,1.377c2.746,0,5.015-2.087,5.297-4.763c0.02-0.187,0.031-0.373,0.031-0.565
				C27.666,19.713,27.655,19.527,27.635,19.34z M22.338,24.103c-2.121,0-3.883-1.584-4.158-3.632
				c-0.025-0.184-0.039-0.373-0.039-0.565c0-0.192,0.014-0.382,0.039-0.565c0.275-2.048,2.037-3.631,4.158-3.631
				s3.883,1.583,4.158,3.631c0.025,0.183,0.039,0.373,0.039,0.565c0,0.193-0.014,0.381-0.039,0.565
				C26.221,22.519,24.459,24.103,22.338,24.103z"/>
			<path fill="#241C29" d="M41.211,19.34c-0.142-1.338-0.78-2.528-1.725-3.386c-0.944-0.854-2.201-1.377-3.574-1.377
				c-2.745,0-5.014,2.088-5.297,4.763c-0.02,0.187-0.031,0.373-0.031,0.565c0,0.193,0.012,0.378,0.031,0.565
				c0.142,1.338,0.781,2.528,1.728,3.386c0.943,0.854,2.198,1.377,3.569,1.377c2.748,0,5.016-2.087,5.299-4.763
				c0.02-0.187,0.031-0.373,0.031-0.565C41.242,19.713,41.23,19.527,41.211,19.34z M35.912,24.103c-2.12,0-3.883-1.584-4.156-3.632
				c-0.025-0.184-0.039-0.373-0.039-0.565c0-0.192,0.014-0.382,0.039-0.565c0.273-2.048,2.036-3.631,4.156-3.631
				c2.122,0,3.885,1.583,4.158,3.631c0.025,0.183,0.041,0.373,0.041,0.565c0,0.193-0.016,0.381-0.041,0.565
				C39.797,22.519,38.034,24.103,35.912,24.103z"/>
		</g>
		<path fill="#241C29" d="M18.18,19.34c-0.025,0.183-0.039,0.373-0.039,0.565c0,0.193,0.014,0.381,0.039,0.565h-3.176
			c-0.549,0-1.066,0.119-1.533,0.334l-0.031-0.11c-0.034-0.119-0.062-0.24-0.091-0.362c-0.028-0.122-0.057-0.243-0.082-0.362
			c-0.02-0.093-0.042-0.189-0.06-0.283c0.555-0.223,1.163-0.348,1.796-0.348H18.18z"/>
		<path fill="#241C29" d="M31.756,19.34c-0.025,0.183-0.039,0.373-0.039,0.565c0,0.193,0.014,0.381,0.039,0.565h-5.26
			c0.025-0.184,0.039-0.373,0.039-0.565c0-0.192-0.014-0.382-0.039-0.565H31.756z"/>
		<path fill="#241C29" d="M45.051,19.662c-0.016,0.094-0.038,0.187-0.06,0.28c-0.021,0.114-0.047,0.224-0.074,0.337
			c-0.032,0.139-0.069,0.277-0.106,0.416l-0.021,0.082c-0.45-0.197-0.944-0.305-1.468-0.305H40.07
			c0.025-0.184,0.041-0.373,0.041-0.565c0-0.192-0.016-0.382-0.041-0.565h3.251C43.932,19.34,44.514,19.453,45.051,19.662z"/>
	</g>
</g>
</svg>
