<?xml version="1.0" encoding="utf-8"?>
<!-- Generator: Adobe Illustrator 16.0.0, SVG Export Plug-In . SVG Version: 6.00 Build 0)  -->
<!DOCTYPE svg PUBLIC "-//W3C//DTD SVG 1.1//EN" "http://www.w3.org/Graphics/SVG/1.1/DTD/svg11.dtd">
<svg version="1.1" id="Layer_1" xmlns="http://www.w3.org/2000/svg" xmlns:xlink="http://www.w3.org/1999/xlink" x="0px" y="0px"
	 width="60px" height="60px" viewBox="0 0 60 60" enable-background="new 0 0 60 60" xml:space="preserve">
<g>
	<path fill="#73648C" d="M48.287,59.97H10.344v-0.41c0-9.445,7.657-17.102,17.102-17.102h3.706c9.464,0,17.136,7.672,17.136,17.136
		V59.97z"/>
	<path fill="#FF4D60" d="M24.792,55.267L24.792,55.267c-3.144,0-5.691-2.548-5.691-5.691v-0.036h11.383v0.036
		C30.483,52.719,27.935,55.267,24.792,55.267z"/>
	<path fill="#FF4D60" d="M33.84,55.267L33.84,55.267c-3.144,0-5.691-2.548-5.691-5.691v-0.036h11.383v0.036
		C39.531,52.719,36.983,55.267,33.84,55.267z"/>
	<path fill="#FF4D60" d="M28.66,38.296c-5.412,0.34-9.56,4.966-9.56,10.387v1.071h20.431v-1.263
		C39.531,42.641,34.589,37.923,28.66,38.296z"/>
	<path fill="#C75B20" d="M48.074,27.496H10.557C8.041,27.496,6,25.455,6,22.938l0,0c0-2.517,2.041-4.557,4.557-4.557h37.517
		c2.518,0,4.558,2.04,4.558,4.557l0,0C52.632,25.455,50.592,27.496,48.074,27.496z"/>
	<path fill="#C75B20" d="M45.854,34.146H12.777c-2.05,0-3.713-1.662-3.713-3.713v-0.162c0-2.051,1.663-3.714,3.713-3.714h33.077
		c2.051,0,3.713,1.663,3.713,3.714v0.162C49.567,32.484,47.905,34.146,45.854,34.146z"/>
	<path fill="#C75B20" d="M47.159,19.144H11.473c-2.095,0-3.794-1.699-3.794-3.794l0,0c0-2.096,1.699-3.795,3.794-3.795h35.687
		c2.096,0,3.795,1.699,3.795,3.795l0,0C50.954,17.445,49.255,19.144,47.159,19.144z"/>
	<path fill="#C75B20" d="M33.193,32.745h-7.755c-7.887,0-14.28-6.394-14.28-14.281v-0.704c0-9.812,7.955-17.768,17.768-17.768h0.78
		c9.813,0,17.768,7.955,17.768,17.768v0.704C47.474,26.351,41.08,32.745,33.193,32.745z"/>
	<path fill="#F59055" d="M14.742,19.144h10.487v7.588H14.742c-2.099,0-3.8-1.701-3.8-3.8v0.006
		C10.942,20.84,12.644,19.144,14.742,19.144z"/>
	<path fill="#F59055" d="M43.966,19.144H33.402v7.588h10.563c2.099,0,3.8-1.701,3.8-3.8v0.006
		C47.766,20.84,46.064,19.144,43.966,19.144z"/>
	<path fill="#F59055" d="M29.46,49.718H29.2c-3.16,0-5.721-2.562-5.721-5.721v-5.881h11.675v5.908
		C35.153,47.169,32.604,49.718,29.46,49.718z"/>
	<path fill="#FFA870" d="M29.629,41.326h-0.627c-7.887,0-14.28-6.394-14.28-14.28v-7.924c0-7.887,6.394-14.28,14.28-14.28h0.627
		c7.886,0,14.28,6.393,14.28,14.28v7.924C43.909,34.933,37.516,41.326,29.629,41.326z"/>
	<circle fill="#7A2F45" cx="21.873" cy="20.837" r="1.751"/>
	<circle fill="#7A2F45" cx="36.759" cy="20.837" r="1.751"/>
	<path fill="#F57355" d="M32.234,24.398h-5.837v-2.906c0-1.572,1.274-2.846,2.846-2.846h0.13c1.579,0,2.86,1.281,2.86,2.861V24.398z
		"/>
	<path fill="#A12D37" d="M38.072,26.732c0,1.031-0.17,2.014-0.484,2.919c-0.732,2.128-2.25,3.85-4.2,4.854
		c-1.217,0.634-2.604,0.984-4.072,0.984c-1.491,0-2.898-0.362-4.13-1.013c-1.923-1.01-3.417-2.718-4.142-4.825
		c-0.315-0.905-0.485-1.888-0.485-2.919H38.072z"/>
	<path fill="#FFFFFF" d="M38.072,26.732c0,1.031-0.17,2.014-0.484,2.919H21.044c-0.315-0.905-0.485-1.888-0.485-2.919H38.072z"/>
	<path fill="#C93945" d="M33.388,34.505c-1.217,0.634-2.604,0.984-4.072,0.984c-1.491,0-2.898-0.362-4.13-1.013
		c0.636-1.641,2.23-2.8,4.095-2.8C31.154,31.677,32.758,32.851,33.388,34.505z"/>
	<g>
		<path fill="#C75B20" d="M35.602,3.913h-9.346c-6.364,0-11.523,5.159-11.523,11.523v3.708l0,0c4.54,0,8.866-1.924,11.907-5.295
			L35.602,3.913z"/>
		<path fill="#C75B20" d="M23.031,3.913h9.325c6.375,0,11.544,5.169,11.544,11.545v3.687l0,0c-4.539,0-8.866-1.924-11.907-5.295
			L23.031,3.913z"/>
	</g>
</g>
</svg>
